%TF.GenerationSoftware,KiCad,Pcbnew,6.0.11+dfsg-1*%
%TF.CreationDate,2023-07-13T18:49:34+02:00*%
%TF.ProjectId,inversor,696e7665-7273-46f7-922e-6b696361645f,rev?*%
%TF.SameCoordinates,Original*%
%TF.FileFunction,Legend,Top*%
%TF.FilePolarity,Positive*%
%FSLAX46Y46*%
G04 Gerber Fmt 4.6, Leading zero omitted, Abs format (unit mm)*
G04 Created by KiCad (PCBNEW 6.0.11+dfsg-1) date 2023-07-13 18:49:34*
%MOMM*%
%LPD*%
G01*
G04 APERTURE LIST*
%ADD10C,0.150000*%
%ADD11C,0.120000*%
G04 APERTURE END LIST*
D10*
%TO.C,R33*%
X221402380Y-40112857D02*
X220926190Y-40446190D01*
X221402380Y-40684285D02*
X220402380Y-40684285D01*
X220402380Y-40303333D01*
X220450000Y-40208095D01*
X220497619Y-40160476D01*
X220592857Y-40112857D01*
X220735714Y-40112857D01*
X220830952Y-40160476D01*
X220878571Y-40208095D01*
X220926190Y-40303333D01*
X220926190Y-40684285D01*
X220402380Y-39779523D02*
X220402380Y-39160476D01*
X220783333Y-39493809D01*
X220783333Y-39350952D01*
X220830952Y-39255714D01*
X220878571Y-39208095D01*
X220973809Y-39160476D01*
X221211904Y-39160476D01*
X221307142Y-39208095D01*
X221354761Y-39255714D01*
X221402380Y-39350952D01*
X221402380Y-39636666D01*
X221354761Y-39731904D01*
X221307142Y-39779523D01*
X220402380Y-38827142D02*
X220402380Y-38208095D01*
X220783333Y-38541428D01*
X220783333Y-38398571D01*
X220830952Y-38303333D01*
X220878571Y-38255714D01*
X220973809Y-38208095D01*
X221211904Y-38208095D01*
X221307142Y-38255714D01*
X221354761Y-38303333D01*
X221402380Y-38398571D01*
X221402380Y-38684285D01*
X221354761Y-38779523D01*
X221307142Y-38827142D01*
%TO.C,U7*%
X194008095Y-63262380D02*
X194008095Y-64071904D01*
X194055714Y-64167142D01*
X194103333Y-64214761D01*
X194198571Y-64262380D01*
X194389047Y-64262380D01*
X194484285Y-64214761D01*
X194531904Y-64167142D01*
X194579523Y-64071904D01*
X194579523Y-63262380D01*
X194960476Y-63262380D02*
X195627142Y-63262380D01*
X195198571Y-64262380D01*
%TO.C,R26*%
X239182380Y-51077857D02*
X238706190Y-51411190D01*
X239182380Y-51649285D02*
X238182380Y-51649285D01*
X238182380Y-51268333D01*
X238230000Y-51173095D01*
X238277619Y-51125476D01*
X238372857Y-51077857D01*
X238515714Y-51077857D01*
X238610952Y-51125476D01*
X238658571Y-51173095D01*
X238706190Y-51268333D01*
X238706190Y-51649285D01*
X238277619Y-50696904D02*
X238230000Y-50649285D01*
X238182380Y-50554047D01*
X238182380Y-50315952D01*
X238230000Y-50220714D01*
X238277619Y-50173095D01*
X238372857Y-50125476D01*
X238468095Y-50125476D01*
X238610952Y-50173095D01*
X239182380Y-50744523D01*
X239182380Y-50125476D01*
X238182380Y-49268333D02*
X238182380Y-49458809D01*
X238230000Y-49554047D01*
X238277619Y-49601666D01*
X238420476Y-49696904D01*
X238610952Y-49744523D01*
X238991904Y-49744523D01*
X239087142Y-49696904D01*
X239134761Y-49649285D01*
X239182380Y-49554047D01*
X239182380Y-49363571D01*
X239134761Y-49268333D01*
X239087142Y-49220714D01*
X238991904Y-49173095D01*
X238753809Y-49173095D01*
X238658571Y-49220714D01*
X238610952Y-49268333D01*
X238563333Y-49363571D01*
X238563333Y-49554047D01*
X238610952Y-49649285D01*
X238658571Y-49696904D01*
X238753809Y-49744523D01*
%TO.C,C4*%
X93678333Y-68697142D02*
X93630714Y-68744761D01*
X93487857Y-68792380D01*
X93392619Y-68792380D01*
X93249761Y-68744761D01*
X93154523Y-68649523D01*
X93106904Y-68554285D01*
X93059285Y-68363809D01*
X93059285Y-68220952D01*
X93106904Y-68030476D01*
X93154523Y-67935238D01*
X93249761Y-67840000D01*
X93392619Y-67792380D01*
X93487857Y-67792380D01*
X93630714Y-67840000D01*
X93678333Y-67887619D01*
X94535476Y-68125714D02*
X94535476Y-68792380D01*
X94297380Y-67744761D02*
X94059285Y-68459047D01*
X94678333Y-68459047D01*
%TO.C,Q1*%
X161289761Y-36787619D02*
X161194523Y-36740000D01*
X161099285Y-36644761D01*
X160956428Y-36501904D01*
X160861190Y-36454285D01*
X160765952Y-36454285D01*
X160813571Y-36692380D02*
X160718333Y-36644761D01*
X160623095Y-36549523D01*
X160575476Y-36359047D01*
X160575476Y-36025714D01*
X160623095Y-35835238D01*
X160718333Y-35740000D01*
X160813571Y-35692380D01*
X161004047Y-35692380D01*
X161099285Y-35740000D01*
X161194523Y-35835238D01*
X161242142Y-36025714D01*
X161242142Y-36359047D01*
X161194523Y-36549523D01*
X161099285Y-36644761D01*
X161004047Y-36692380D01*
X160813571Y-36692380D01*
X162194523Y-36692380D02*
X161623095Y-36692380D01*
X161908809Y-36692380D02*
X161908809Y-35692380D01*
X161813571Y-35835238D01*
X161718333Y-35930476D01*
X161623095Y-35978095D01*
%TO.C,TH1*%
X77159285Y-88242380D02*
X77730714Y-88242380D01*
X77445000Y-89242380D02*
X77445000Y-88242380D01*
X78064047Y-89242380D02*
X78064047Y-88242380D01*
X78064047Y-88718571D02*
X78635476Y-88718571D01*
X78635476Y-89242380D02*
X78635476Y-88242380D01*
X79635476Y-89242380D02*
X79064047Y-89242380D01*
X79349761Y-89242380D02*
X79349761Y-88242380D01*
X79254523Y-88385238D01*
X79159285Y-88480476D01*
X79064047Y-88528095D01*
%TO.C,R14*%
X152507380Y-56642857D02*
X152031190Y-56976190D01*
X152507380Y-57214285D02*
X151507380Y-57214285D01*
X151507380Y-56833333D01*
X151555000Y-56738095D01*
X151602619Y-56690476D01*
X151697857Y-56642857D01*
X151840714Y-56642857D01*
X151935952Y-56690476D01*
X151983571Y-56738095D01*
X152031190Y-56833333D01*
X152031190Y-57214285D01*
X152507380Y-55690476D02*
X152507380Y-56261904D01*
X152507380Y-55976190D02*
X151507380Y-55976190D01*
X151650238Y-56071428D01*
X151745476Y-56166666D01*
X151793095Y-56261904D01*
X151840714Y-54833333D02*
X152507380Y-54833333D01*
X151459761Y-55071428D02*
X152174047Y-55309523D01*
X152174047Y-54690476D01*
%TO.C,Q3*%
X233409761Y-80907619D02*
X233314523Y-80860000D01*
X233219285Y-80764761D01*
X233076428Y-80621904D01*
X232981190Y-80574285D01*
X232885952Y-80574285D01*
X232933571Y-80812380D02*
X232838333Y-80764761D01*
X232743095Y-80669523D01*
X232695476Y-80479047D01*
X232695476Y-80145714D01*
X232743095Y-79955238D01*
X232838333Y-79860000D01*
X232933571Y-79812380D01*
X233124047Y-79812380D01*
X233219285Y-79860000D01*
X233314523Y-79955238D01*
X233362142Y-80145714D01*
X233362142Y-80479047D01*
X233314523Y-80669523D01*
X233219285Y-80764761D01*
X233124047Y-80812380D01*
X232933571Y-80812380D01*
X233695476Y-79812380D02*
X234314523Y-79812380D01*
X233981190Y-80193333D01*
X234124047Y-80193333D01*
X234219285Y-80240952D01*
X234266904Y-80288571D01*
X234314523Y-80383809D01*
X234314523Y-80621904D01*
X234266904Y-80717142D01*
X234219285Y-80764761D01*
X234124047Y-80812380D01*
X233838333Y-80812380D01*
X233743095Y-80764761D01*
X233695476Y-80717142D01*
%TO.C,R25*%
X191562142Y-68962380D02*
X191228809Y-68486190D01*
X190990714Y-68962380D02*
X190990714Y-67962380D01*
X191371666Y-67962380D01*
X191466904Y-68010000D01*
X191514523Y-68057619D01*
X191562142Y-68152857D01*
X191562142Y-68295714D01*
X191514523Y-68390952D01*
X191466904Y-68438571D01*
X191371666Y-68486190D01*
X190990714Y-68486190D01*
X191943095Y-68057619D02*
X191990714Y-68010000D01*
X192085952Y-67962380D01*
X192324047Y-67962380D01*
X192419285Y-68010000D01*
X192466904Y-68057619D01*
X192514523Y-68152857D01*
X192514523Y-68248095D01*
X192466904Y-68390952D01*
X191895476Y-68962380D01*
X192514523Y-68962380D01*
X193419285Y-67962380D02*
X192943095Y-67962380D01*
X192895476Y-68438571D01*
X192943095Y-68390952D01*
X193038333Y-68343333D01*
X193276428Y-68343333D01*
X193371666Y-68390952D01*
X193419285Y-68438571D01*
X193466904Y-68533809D01*
X193466904Y-68771904D01*
X193419285Y-68867142D01*
X193371666Y-68914761D01*
X193276428Y-68962380D01*
X193038333Y-68962380D01*
X192943095Y-68914761D01*
X192895476Y-68867142D01*
%TO.C,R10*%
X91672142Y-74062380D02*
X91338809Y-73586190D01*
X91100714Y-74062380D02*
X91100714Y-73062380D01*
X91481666Y-73062380D01*
X91576904Y-73110000D01*
X91624523Y-73157619D01*
X91672142Y-73252857D01*
X91672142Y-73395714D01*
X91624523Y-73490952D01*
X91576904Y-73538571D01*
X91481666Y-73586190D01*
X91100714Y-73586190D01*
X92624523Y-74062380D02*
X92053095Y-74062380D01*
X92338809Y-74062380D02*
X92338809Y-73062380D01*
X92243571Y-73205238D01*
X92148333Y-73300476D01*
X92053095Y-73348095D01*
X93243571Y-73062380D02*
X93338809Y-73062380D01*
X93434047Y-73110000D01*
X93481666Y-73157619D01*
X93529285Y-73252857D01*
X93576904Y-73443333D01*
X93576904Y-73681428D01*
X93529285Y-73871904D01*
X93481666Y-73967142D01*
X93434047Y-74014761D01*
X93338809Y-74062380D01*
X93243571Y-74062380D01*
X93148333Y-74014761D01*
X93100714Y-73967142D01*
X93053095Y-73871904D01*
X93005476Y-73681428D01*
X93005476Y-73443333D01*
X93053095Y-73252857D01*
X93100714Y-73157619D01*
X93148333Y-73110000D01*
X93243571Y-73062380D01*
%TO.C,C3*%
X119078333Y-31297142D02*
X119030714Y-31344761D01*
X118887857Y-31392380D01*
X118792619Y-31392380D01*
X118649761Y-31344761D01*
X118554523Y-31249523D01*
X118506904Y-31154285D01*
X118459285Y-30963809D01*
X118459285Y-30820952D01*
X118506904Y-30630476D01*
X118554523Y-30535238D01*
X118649761Y-30440000D01*
X118792619Y-30392380D01*
X118887857Y-30392380D01*
X119030714Y-30440000D01*
X119078333Y-30487619D01*
X119411666Y-30392380D02*
X120030714Y-30392380D01*
X119697380Y-30773333D01*
X119840238Y-30773333D01*
X119935476Y-30820952D01*
X119983095Y-30868571D01*
X120030714Y-30963809D01*
X120030714Y-31201904D01*
X119983095Y-31297142D01*
X119935476Y-31344761D01*
X119840238Y-31392380D01*
X119554523Y-31392380D01*
X119459285Y-31344761D01*
X119411666Y-31297142D01*
%TO.C,R15*%
X155387380Y-68072857D02*
X154911190Y-68406190D01*
X155387380Y-68644285D02*
X154387380Y-68644285D01*
X154387380Y-68263333D01*
X154435000Y-68168095D01*
X154482619Y-68120476D01*
X154577857Y-68072857D01*
X154720714Y-68072857D01*
X154815952Y-68120476D01*
X154863571Y-68168095D01*
X154911190Y-68263333D01*
X154911190Y-68644285D01*
X155387380Y-67120476D02*
X155387380Y-67691904D01*
X155387380Y-67406190D02*
X154387380Y-67406190D01*
X154530238Y-67501428D01*
X154625476Y-67596666D01*
X154673095Y-67691904D01*
X154387380Y-66215714D02*
X154387380Y-66691904D01*
X154863571Y-66739523D01*
X154815952Y-66691904D01*
X154768333Y-66596666D01*
X154768333Y-66358571D01*
X154815952Y-66263333D01*
X154863571Y-66215714D01*
X154958809Y-66168095D01*
X155196904Y-66168095D01*
X155292142Y-66215714D01*
X155339761Y-66263333D01*
X155387380Y-66358571D01*
X155387380Y-66596666D01*
X155339761Y-66691904D01*
X155292142Y-66739523D01*
%TO.C,J9*%
X248411666Y-39982380D02*
X248411666Y-40696666D01*
X248364047Y-40839523D01*
X248268809Y-40934761D01*
X248125952Y-40982380D01*
X248030714Y-40982380D01*
X248935476Y-40982380D02*
X249125952Y-40982380D01*
X249221190Y-40934761D01*
X249268809Y-40887142D01*
X249364047Y-40744285D01*
X249411666Y-40553809D01*
X249411666Y-40172857D01*
X249364047Y-40077619D01*
X249316428Y-40030000D01*
X249221190Y-39982380D01*
X249030714Y-39982380D01*
X248935476Y-40030000D01*
X248887857Y-40077619D01*
X248840238Y-40172857D01*
X248840238Y-40410952D01*
X248887857Y-40506190D01*
X248935476Y-40553809D01*
X249030714Y-40601428D01*
X249221190Y-40601428D01*
X249316428Y-40553809D01*
X249364047Y-40506190D01*
X249411666Y-40410952D01*
%TO.C,J6*%
X121386666Y-49022380D02*
X121386666Y-49736666D01*
X121339047Y-49879523D01*
X121243809Y-49974761D01*
X121100952Y-50022380D01*
X121005714Y-50022380D01*
X122291428Y-49022380D02*
X122100952Y-49022380D01*
X122005714Y-49070000D01*
X121958095Y-49117619D01*
X121862857Y-49260476D01*
X121815238Y-49450952D01*
X121815238Y-49831904D01*
X121862857Y-49927142D01*
X121910476Y-49974761D01*
X122005714Y-50022380D01*
X122196190Y-50022380D01*
X122291428Y-49974761D01*
X122339047Y-49927142D01*
X122386666Y-49831904D01*
X122386666Y-49593809D01*
X122339047Y-49498571D01*
X122291428Y-49450952D01*
X122196190Y-49403333D01*
X122005714Y-49403333D01*
X121910476Y-49450952D01*
X121862857Y-49498571D01*
X121815238Y-49593809D01*
%TO.C,R13*%
X149312142Y-36302380D02*
X148978809Y-35826190D01*
X148740714Y-36302380D02*
X148740714Y-35302380D01*
X149121666Y-35302380D01*
X149216904Y-35350000D01*
X149264523Y-35397619D01*
X149312142Y-35492857D01*
X149312142Y-35635714D01*
X149264523Y-35730952D01*
X149216904Y-35778571D01*
X149121666Y-35826190D01*
X148740714Y-35826190D01*
X150264523Y-36302380D02*
X149693095Y-36302380D01*
X149978809Y-36302380D02*
X149978809Y-35302380D01*
X149883571Y-35445238D01*
X149788333Y-35540476D01*
X149693095Y-35588095D01*
X150597857Y-35302380D02*
X151216904Y-35302380D01*
X150883571Y-35683333D01*
X151026428Y-35683333D01*
X151121666Y-35730952D01*
X151169285Y-35778571D01*
X151216904Y-35873809D01*
X151216904Y-36111904D01*
X151169285Y-36207142D01*
X151121666Y-36254761D01*
X151026428Y-36302380D01*
X150740714Y-36302380D01*
X150645476Y-36254761D01*
X150597857Y-36207142D01*
%TO.C,R8*%
X87288333Y-49002380D02*
X86955000Y-48526190D01*
X86716904Y-49002380D02*
X86716904Y-48002380D01*
X87097857Y-48002380D01*
X87193095Y-48050000D01*
X87240714Y-48097619D01*
X87288333Y-48192857D01*
X87288333Y-48335714D01*
X87240714Y-48430952D01*
X87193095Y-48478571D01*
X87097857Y-48526190D01*
X86716904Y-48526190D01*
X87859761Y-48430952D02*
X87764523Y-48383333D01*
X87716904Y-48335714D01*
X87669285Y-48240476D01*
X87669285Y-48192857D01*
X87716904Y-48097619D01*
X87764523Y-48050000D01*
X87859761Y-48002380D01*
X88050238Y-48002380D01*
X88145476Y-48050000D01*
X88193095Y-48097619D01*
X88240714Y-48192857D01*
X88240714Y-48240476D01*
X88193095Y-48335714D01*
X88145476Y-48383333D01*
X88050238Y-48430952D01*
X87859761Y-48430952D01*
X87764523Y-48478571D01*
X87716904Y-48526190D01*
X87669285Y-48621428D01*
X87669285Y-48811904D01*
X87716904Y-48907142D01*
X87764523Y-48954761D01*
X87859761Y-49002380D01*
X88050238Y-49002380D01*
X88145476Y-48954761D01*
X88193095Y-48907142D01*
X88240714Y-48811904D01*
X88240714Y-48621428D01*
X88193095Y-48526190D01*
X88145476Y-48478571D01*
X88050238Y-48430952D01*
%TO.C,C7*%
X99952142Y-80026666D02*
X99999761Y-80074285D01*
X100047380Y-80217142D01*
X100047380Y-80312380D01*
X99999761Y-80455238D01*
X99904523Y-80550476D01*
X99809285Y-80598095D01*
X99618809Y-80645714D01*
X99475952Y-80645714D01*
X99285476Y-80598095D01*
X99190238Y-80550476D01*
X99095000Y-80455238D01*
X99047380Y-80312380D01*
X99047380Y-80217142D01*
X99095000Y-80074285D01*
X99142619Y-80026666D01*
X99047380Y-79693333D02*
X99047380Y-79026666D01*
X100047380Y-79455238D01*
%TO.C,U8*%
X237798095Y-99852380D02*
X237798095Y-100661904D01*
X237845714Y-100757142D01*
X237893333Y-100804761D01*
X237988571Y-100852380D01*
X238179047Y-100852380D01*
X238274285Y-100804761D01*
X238321904Y-100757142D01*
X238369523Y-100661904D01*
X238369523Y-99852380D01*
X238988571Y-100280952D02*
X238893333Y-100233333D01*
X238845714Y-100185714D01*
X238798095Y-100090476D01*
X238798095Y-100042857D01*
X238845714Y-99947619D01*
X238893333Y-99900000D01*
X238988571Y-99852380D01*
X239179047Y-99852380D01*
X239274285Y-99900000D01*
X239321904Y-99947619D01*
X239369523Y-100042857D01*
X239369523Y-100090476D01*
X239321904Y-100185714D01*
X239274285Y-100233333D01*
X239179047Y-100280952D01*
X238988571Y-100280952D01*
X238893333Y-100328571D01*
X238845714Y-100376190D01*
X238798095Y-100471428D01*
X238798095Y-100661904D01*
X238845714Y-100757142D01*
X238893333Y-100804761D01*
X238988571Y-100852380D01*
X239179047Y-100852380D01*
X239274285Y-100804761D01*
X239321904Y-100757142D01*
X239369523Y-100661904D01*
X239369523Y-100471428D01*
X239321904Y-100376190D01*
X239274285Y-100328571D01*
X239179047Y-100280952D01*
%TO.C,J8*%
X134086666Y-81062380D02*
X134086666Y-81776666D01*
X134039047Y-81919523D01*
X133943809Y-82014761D01*
X133800952Y-82062380D01*
X133705714Y-82062380D01*
X134705714Y-81490952D02*
X134610476Y-81443333D01*
X134562857Y-81395714D01*
X134515238Y-81300476D01*
X134515238Y-81252857D01*
X134562857Y-81157619D01*
X134610476Y-81110000D01*
X134705714Y-81062380D01*
X134896190Y-81062380D01*
X134991428Y-81110000D01*
X135039047Y-81157619D01*
X135086666Y-81252857D01*
X135086666Y-81300476D01*
X135039047Y-81395714D01*
X134991428Y-81443333D01*
X134896190Y-81490952D01*
X134705714Y-81490952D01*
X134610476Y-81538571D01*
X134562857Y-81586190D01*
X134515238Y-81681428D01*
X134515238Y-81871904D01*
X134562857Y-81967142D01*
X134610476Y-82014761D01*
X134705714Y-82062380D01*
X134896190Y-82062380D01*
X134991428Y-82014761D01*
X135039047Y-81967142D01*
X135086666Y-81871904D01*
X135086666Y-81681428D01*
X135039047Y-81586190D01*
X134991428Y-81538571D01*
X134896190Y-81490952D01*
%TO.C,R6*%
X87298333Y-96922380D02*
X86965000Y-96446190D01*
X86726904Y-96922380D02*
X86726904Y-95922380D01*
X87107857Y-95922380D01*
X87203095Y-95970000D01*
X87250714Y-96017619D01*
X87298333Y-96112857D01*
X87298333Y-96255714D01*
X87250714Y-96350952D01*
X87203095Y-96398571D01*
X87107857Y-96446190D01*
X86726904Y-96446190D01*
X88155476Y-95922380D02*
X87965000Y-95922380D01*
X87869761Y-95970000D01*
X87822142Y-96017619D01*
X87726904Y-96160476D01*
X87679285Y-96350952D01*
X87679285Y-96731904D01*
X87726904Y-96827142D01*
X87774523Y-96874761D01*
X87869761Y-96922380D01*
X88060238Y-96922380D01*
X88155476Y-96874761D01*
X88203095Y-96827142D01*
X88250714Y-96731904D01*
X88250714Y-96493809D01*
X88203095Y-96398571D01*
X88155476Y-96350952D01*
X88060238Y-96303333D01*
X87869761Y-96303333D01*
X87774523Y-96350952D01*
X87726904Y-96398571D01*
X87679285Y-96493809D01*
%TO.C,D1*%
X160376904Y-53962380D02*
X160376904Y-52962380D01*
X160615000Y-52962380D01*
X160757857Y-53010000D01*
X160853095Y-53105238D01*
X160900714Y-53200476D01*
X160948333Y-53390952D01*
X160948333Y-53533809D01*
X160900714Y-53724285D01*
X160853095Y-53819523D01*
X160757857Y-53914761D01*
X160615000Y-53962380D01*
X160376904Y-53962380D01*
X161900714Y-53962380D02*
X161329285Y-53962380D01*
X161615000Y-53962380D02*
X161615000Y-52962380D01*
X161519761Y-53105238D01*
X161424523Y-53200476D01*
X161329285Y-53248095D01*
X157043095Y-54532380D02*
X157043095Y-53532380D01*
X157614523Y-54532380D02*
X157185952Y-53960952D01*
X157614523Y-53532380D02*
X157043095Y-54103809D01*
%TO.C,R1*%
X98893333Y-28392380D02*
X98560000Y-27916190D01*
X98321904Y-28392380D02*
X98321904Y-27392380D01*
X98702857Y-27392380D01*
X98798095Y-27440000D01*
X98845714Y-27487619D01*
X98893333Y-27582857D01*
X98893333Y-27725714D01*
X98845714Y-27820952D01*
X98798095Y-27868571D01*
X98702857Y-27916190D01*
X98321904Y-27916190D01*
X99845714Y-28392380D02*
X99274285Y-28392380D01*
X99560000Y-28392380D02*
X99560000Y-27392380D01*
X99464761Y-27535238D01*
X99369523Y-27630476D01*
X99274285Y-27678095D01*
%TO.C,RV2*%
X182109761Y-84697380D02*
X181776428Y-84221190D01*
X181538333Y-84697380D02*
X181538333Y-83697380D01*
X181919285Y-83697380D01*
X182014523Y-83745000D01*
X182062142Y-83792619D01*
X182109761Y-83887857D01*
X182109761Y-84030714D01*
X182062142Y-84125952D01*
X182014523Y-84173571D01*
X181919285Y-84221190D01*
X181538333Y-84221190D01*
X182395476Y-83697380D02*
X182728809Y-84697380D01*
X183062142Y-83697380D01*
X183347857Y-83792619D02*
X183395476Y-83745000D01*
X183490714Y-83697380D01*
X183728809Y-83697380D01*
X183824047Y-83745000D01*
X183871666Y-83792619D01*
X183919285Y-83887857D01*
X183919285Y-83983095D01*
X183871666Y-84125952D01*
X183300238Y-84697380D01*
X183919285Y-84697380D01*
%TO.C,J1*%
X144446666Y-27392380D02*
X144446666Y-28106666D01*
X144399047Y-28249523D01*
X144303809Y-28344761D01*
X144160952Y-28392380D01*
X144065714Y-28392380D01*
X145446666Y-28392380D02*
X144875238Y-28392380D01*
X145160952Y-28392380D02*
X145160952Y-27392380D01*
X145065714Y-27535238D01*
X144970476Y-27630476D01*
X144875238Y-27678095D01*
%TO.C,C9*%
X112418333Y-63267142D02*
X112370714Y-63314761D01*
X112227857Y-63362380D01*
X112132619Y-63362380D01*
X111989761Y-63314761D01*
X111894523Y-63219523D01*
X111846904Y-63124285D01*
X111799285Y-62933809D01*
X111799285Y-62790952D01*
X111846904Y-62600476D01*
X111894523Y-62505238D01*
X111989761Y-62410000D01*
X112132619Y-62362380D01*
X112227857Y-62362380D01*
X112370714Y-62410000D01*
X112418333Y-62457619D01*
X112894523Y-63362380D02*
X113085000Y-63362380D01*
X113180238Y-63314761D01*
X113227857Y-63267142D01*
X113323095Y-63124285D01*
X113370714Y-62933809D01*
X113370714Y-62552857D01*
X113323095Y-62457619D01*
X113275476Y-62410000D01*
X113180238Y-62362380D01*
X112989761Y-62362380D01*
X112894523Y-62410000D01*
X112846904Y-62457619D01*
X112799285Y-62552857D01*
X112799285Y-62790952D01*
X112846904Y-62886190D01*
X112894523Y-62933809D01*
X112989761Y-62981428D01*
X113180238Y-62981428D01*
X113275476Y-62933809D01*
X113323095Y-62886190D01*
X113370714Y-62790952D01*
%TO.C,C2*%
X124118333Y-41117142D02*
X124070714Y-41164761D01*
X123927857Y-41212380D01*
X123832619Y-41212380D01*
X123689761Y-41164761D01*
X123594523Y-41069523D01*
X123546904Y-40974285D01*
X123499285Y-40783809D01*
X123499285Y-40640952D01*
X123546904Y-40450476D01*
X123594523Y-40355238D01*
X123689761Y-40260000D01*
X123832619Y-40212380D01*
X123927857Y-40212380D01*
X124070714Y-40260000D01*
X124118333Y-40307619D01*
X124499285Y-40307619D02*
X124546904Y-40260000D01*
X124642142Y-40212380D01*
X124880238Y-40212380D01*
X124975476Y-40260000D01*
X125023095Y-40307619D01*
X125070714Y-40402857D01*
X125070714Y-40498095D01*
X125023095Y-40640952D01*
X124451666Y-41212380D01*
X125070714Y-41212380D01*
%TO.C,TR1*%
X192592380Y-47141904D02*
X192592380Y-46570476D01*
X193592380Y-46856190D02*
X192592380Y-46856190D01*
X193592380Y-45665714D02*
X193116190Y-45999047D01*
X193592380Y-46237142D02*
X192592380Y-46237142D01*
X192592380Y-45856190D01*
X192640000Y-45760952D01*
X192687619Y-45713333D01*
X192782857Y-45665714D01*
X192925714Y-45665714D01*
X193020952Y-45713333D01*
X193068571Y-45760952D01*
X193116190Y-45856190D01*
X193116190Y-46237142D01*
X193592380Y-44713333D02*
X193592380Y-45284761D01*
X193592380Y-44999047D02*
X192592380Y-44999047D01*
X192735238Y-45094285D01*
X192830476Y-45189523D01*
X192878095Y-45284761D01*
X170251428Y-46260952D02*
X170251428Y-45499047D01*
X169632380Y-51213333D02*
X169632380Y-50594285D01*
X170013333Y-50927619D01*
X170013333Y-50784761D01*
X170060952Y-50689523D01*
X170108571Y-50641904D01*
X170203809Y-50594285D01*
X170441904Y-50594285D01*
X170537142Y-50641904D01*
X170584761Y-50689523D01*
X170632380Y-50784761D01*
X170632380Y-51070476D01*
X170584761Y-51165714D01*
X170537142Y-51213333D01*
X169727619Y-41165714D02*
X169680000Y-41118095D01*
X169632380Y-41022857D01*
X169632380Y-40784761D01*
X169680000Y-40689523D01*
X169727619Y-40641904D01*
X169822857Y-40594285D01*
X169918095Y-40594285D01*
X170060952Y-40641904D01*
X170632380Y-41213333D01*
X170632380Y-40594285D01*
X189592380Y-50689523D02*
X189592380Y-50880000D01*
X189640000Y-50975238D01*
X189687619Y-51022857D01*
X189830476Y-51118095D01*
X190020952Y-51165714D01*
X190401904Y-51165714D01*
X190497142Y-51118095D01*
X190544761Y-51070476D01*
X190592380Y-50975238D01*
X190592380Y-50784761D01*
X190544761Y-50689523D01*
X190497142Y-50641904D01*
X190401904Y-50594285D01*
X190163809Y-50594285D01*
X190068571Y-50641904D01*
X190020952Y-50689523D01*
X189973333Y-50784761D01*
X189973333Y-50975238D01*
X190020952Y-51070476D01*
X190068571Y-51118095D01*
X190163809Y-51165714D01*
X189592380Y-41213333D02*
X189592380Y-40546666D01*
X190592380Y-40975238D01*
X170632380Y-35594285D02*
X170632380Y-36165714D01*
X170632380Y-35880000D02*
X169632380Y-35880000D01*
X169775238Y-35975238D01*
X169870476Y-36070476D01*
X169918095Y-36165714D01*
X169965714Y-55689523D02*
X170632380Y-55689523D01*
X169584761Y-55927619D02*
X170299047Y-56165714D01*
X170299047Y-55546666D01*
X190020952Y-35975238D02*
X189973333Y-36070476D01*
X189925714Y-36118095D01*
X189830476Y-36165714D01*
X189782857Y-36165714D01*
X189687619Y-36118095D01*
X189640000Y-36070476D01*
X189592380Y-35975238D01*
X189592380Y-35784761D01*
X189640000Y-35689523D01*
X189687619Y-35641904D01*
X189782857Y-35594285D01*
X189830476Y-35594285D01*
X189925714Y-35641904D01*
X189973333Y-35689523D01*
X190020952Y-35784761D01*
X190020952Y-35975238D01*
X190068571Y-36070476D01*
X190116190Y-36118095D01*
X190211428Y-36165714D01*
X190401904Y-36165714D01*
X190497142Y-36118095D01*
X190544761Y-36070476D01*
X190592380Y-35975238D01*
X190592380Y-35784761D01*
X190544761Y-35689523D01*
X190497142Y-35641904D01*
X190401904Y-35594285D01*
X190211428Y-35594285D01*
X190116190Y-35641904D01*
X190068571Y-35689523D01*
X190020952Y-35784761D01*
X189592380Y-55641904D02*
X189592380Y-56118095D01*
X190068571Y-56165714D01*
X190020952Y-56118095D01*
X189973333Y-56022857D01*
X189973333Y-55784761D01*
X190020952Y-55689523D01*
X190068571Y-55641904D01*
X190163809Y-55594285D01*
X190401904Y-55594285D01*
X190497142Y-55641904D01*
X190544761Y-55689523D01*
X190592380Y-55784761D01*
X190592380Y-56022857D01*
X190544761Y-56118095D01*
X190497142Y-56165714D01*
%TO.C,C5*%
X124118333Y-38577142D02*
X124070714Y-38624761D01*
X123927857Y-38672380D01*
X123832619Y-38672380D01*
X123689761Y-38624761D01*
X123594523Y-38529523D01*
X123546904Y-38434285D01*
X123499285Y-38243809D01*
X123499285Y-38100952D01*
X123546904Y-37910476D01*
X123594523Y-37815238D01*
X123689761Y-37720000D01*
X123832619Y-37672380D01*
X123927857Y-37672380D01*
X124070714Y-37720000D01*
X124118333Y-37767619D01*
X125023095Y-37672380D02*
X124546904Y-37672380D01*
X124499285Y-38148571D01*
X124546904Y-38100952D01*
X124642142Y-38053333D01*
X124880238Y-38053333D01*
X124975476Y-38100952D01*
X125023095Y-38148571D01*
X125070714Y-38243809D01*
X125070714Y-38481904D01*
X125023095Y-38577142D01*
X124975476Y-38624761D01*
X124880238Y-38672380D01*
X124642142Y-38672380D01*
X124546904Y-38624761D01*
X124499285Y-38577142D01*
%TO.C,R28*%
X223752142Y-86742380D02*
X223418809Y-86266190D01*
X223180714Y-86742380D02*
X223180714Y-85742380D01*
X223561666Y-85742380D01*
X223656904Y-85790000D01*
X223704523Y-85837619D01*
X223752142Y-85932857D01*
X223752142Y-86075714D01*
X223704523Y-86170952D01*
X223656904Y-86218571D01*
X223561666Y-86266190D01*
X223180714Y-86266190D01*
X224133095Y-85837619D02*
X224180714Y-85790000D01*
X224275952Y-85742380D01*
X224514047Y-85742380D01*
X224609285Y-85790000D01*
X224656904Y-85837619D01*
X224704523Y-85932857D01*
X224704523Y-86028095D01*
X224656904Y-86170952D01*
X224085476Y-86742380D01*
X224704523Y-86742380D01*
X225275952Y-86170952D02*
X225180714Y-86123333D01*
X225133095Y-86075714D01*
X225085476Y-85980476D01*
X225085476Y-85932857D01*
X225133095Y-85837619D01*
X225180714Y-85790000D01*
X225275952Y-85742380D01*
X225466428Y-85742380D01*
X225561666Y-85790000D01*
X225609285Y-85837619D01*
X225656904Y-85932857D01*
X225656904Y-85980476D01*
X225609285Y-86075714D01*
X225561666Y-86123333D01*
X225466428Y-86170952D01*
X225275952Y-86170952D01*
X225180714Y-86218571D01*
X225133095Y-86266190D01*
X225085476Y-86361428D01*
X225085476Y-86551904D01*
X225133095Y-86647142D01*
X225180714Y-86694761D01*
X225275952Y-86742380D01*
X225466428Y-86742380D01*
X225561666Y-86694761D01*
X225609285Y-86647142D01*
X225656904Y-86551904D01*
X225656904Y-86361428D01*
X225609285Y-86266190D01*
X225561666Y-86218571D01*
X225466428Y-86170952D01*
%TO.C,R32*%
X236682380Y-40012857D02*
X236206190Y-40346190D01*
X236682380Y-40584285D02*
X235682380Y-40584285D01*
X235682380Y-40203333D01*
X235730000Y-40108095D01*
X235777619Y-40060476D01*
X235872857Y-40012857D01*
X236015714Y-40012857D01*
X236110952Y-40060476D01*
X236158571Y-40108095D01*
X236206190Y-40203333D01*
X236206190Y-40584285D01*
X235682380Y-39679523D02*
X235682380Y-39060476D01*
X236063333Y-39393809D01*
X236063333Y-39250952D01*
X236110952Y-39155714D01*
X236158571Y-39108095D01*
X236253809Y-39060476D01*
X236491904Y-39060476D01*
X236587142Y-39108095D01*
X236634761Y-39155714D01*
X236682380Y-39250952D01*
X236682380Y-39536666D01*
X236634761Y-39631904D01*
X236587142Y-39679523D01*
X235777619Y-38679523D02*
X235730000Y-38631904D01*
X235682380Y-38536666D01*
X235682380Y-38298571D01*
X235730000Y-38203333D01*
X235777619Y-38155714D01*
X235872857Y-38108095D01*
X235968095Y-38108095D01*
X236110952Y-38155714D01*
X236682380Y-38727142D01*
X236682380Y-38108095D01*
%TO.C,C12*%
X204712142Y-50432857D02*
X204759761Y-50480476D01*
X204807380Y-50623333D01*
X204807380Y-50718571D01*
X204759761Y-50861428D01*
X204664523Y-50956666D01*
X204569285Y-51004285D01*
X204378809Y-51051904D01*
X204235952Y-51051904D01*
X204045476Y-51004285D01*
X203950238Y-50956666D01*
X203855000Y-50861428D01*
X203807380Y-50718571D01*
X203807380Y-50623333D01*
X203855000Y-50480476D01*
X203902619Y-50432857D01*
X204807380Y-49480476D02*
X204807380Y-50051904D01*
X204807380Y-49766190D02*
X203807380Y-49766190D01*
X203950238Y-49861428D01*
X204045476Y-49956666D01*
X204093095Y-50051904D01*
X203902619Y-49099523D02*
X203855000Y-49051904D01*
X203807380Y-48956666D01*
X203807380Y-48718571D01*
X203855000Y-48623333D01*
X203902619Y-48575714D01*
X203997857Y-48528095D01*
X204093095Y-48528095D01*
X204235952Y-48575714D01*
X204807380Y-49147142D01*
X204807380Y-48528095D01*
%TO.C,C6*%
X111458333Y-76337142D02*
X111410714Y-76384761D01*
X111267857Y-76432380D01*
X111172619Y-76432380D01*
X111029761Y-76384761D01*
X110934523Y-76289523D01*
X110886904Y-76194285D01*
X110839285Y-76003809D01*
X110839285Y-75860952D01*
X110886904Y-75670476D01*
X110934523Y-75575238D01*
X111029761Y-75480000D01*
X111172619Y-75432380D01*
X111267857Y-75432380D01*
X111410714Y-75480000D01*
X111458333Y-75527619D01*
X112315476Y-75432380D02*
X112125000Y-75432380D01*
X112029761Y-75480000D01*
X111982142Y-75527619D01*
X111886904Y-75670476D01*
X111839285Y-75860952D01*
X111839285Y-76241904D01*
X111886904Y-76337142D01*
X111934523Y-76384761D01*
X112029761Y-76432380D01*
X112220238Y-76432380D01*
X112315476Y-76384761D01*
X112363095Y-76337142D01*
X112410714Y-76241904D01*
X112410714Y-76003809D01*
X112363095Y-75908571D01*
X112315476Y-75860952D01*
X112220238Y-75813333D01*
X112029761Y-75813333D01*
X111934523Y-75860952D01*
X111886904Y-75908571D01*
X111839285Y-76003809D01*
%TO.C,U5*%
X197358095Y-28392380D02*
X197358095Y-29201904D01*
X197405714Y-29297142D01*
X197453333Y-29344761D01*
X197548571Y-29392380D01*
X197739047Y-29392380D01*
X197834285Y-29344761D01*
X197881904Y-29297142D01*
X197929523Y-29201904D01*
X197929523Y-28392380D01*
X198881904Y-28392380D02*
X198405714Y-28392380D01*
X198358095Y-28868571D01*
X198405714Y-28820952D01*
X198500952Y-28773333D01*
X198739047Y-28773333D01*
X198834285Y-28820952D01*
X198881904Y-28868571D01*
X198929523Y-28963809D01*
X198929523Y-29201904D01*
X198881904Y-29297142D01*
X198834285Y-29344761D01*
X198739047Y-29392380D01*
X198500952Y-29392380D01*
X198405714Y-29344761D01*
X198358095Y-29297142D01*
%TO.C,R17*%
X86712142Y-38552380D02*
X86378809Y-38076190D01*
X86140714Y-38552380D02*
X86140714Y-37552380D01*
X86521666Y-37552380D01*
X86616904Y-37600000D01*
X86664523Y-37647619D01*
X86712142Y-37742857D01*
X86712142Y-37885714D01*
X86664523Y-37980952D01*
X86616904Y-38028571D01*
X86521666Y-38076190D01*
X86140714Y-38076190D01*
X87664523Y-38552380D02*
X87093095Y-38552380D01*
X87378809Y-38552380D02*
X87378809Y-37552380D01*
X87283571Y-37695238D01*
X87188333Y-37790476D01*
X87093095Y-37838095D01*
X87997857Y-37552380D02*
X88664523Y-37552380D01*
X88235952Y-38552380D01*
%TO.C,R21*%
X191562142Y-74382380D02*
X191228809Y-73906190D01*
X190990714Y-74382380D02*
X190990714Y-73382380D01*
X191371666Y-73382380D01*
X191466904Y-73430000D01*
X191514523Y-73477619D01*
X191562142Y-73572857D01*
X191562142Y-73715714D01*
X191514523Y-73810952D01*
X191466904Y-73858571D01*
X191371666Y-73906190D01*
X190990714Y-73906190D01*
X191943095Y-73477619D02*
X191990714Y-73430000D01*
X192085952Y-73382380D01*
X192324047Y-73382380D01*
X192419285Y-73430000D01*
X192466904Y-73477619D01*
X192514523Y-73572857D01*
X192514523Y-73668095D01*
X192466904Y-73810952D01*
X191895476Y-74382380D01*
X192514523Y-74382380D01*
X193466904Y-74382380D02*
X192895476Y-74382380D01*
X193181190Y-74382380D02*
X193181190Y-73382380D01*
X193085952Y-73525238D01*
X192990714Y-73620476D01*
X192895476Y-73668095D01*
%TO.C,RV5*%
X204749761Y-89622380D02*
X204416428Y-89146190D01*
X204178333Y-89622380D02*
X204178333Y-88622380D01*
X204559285Y-88622380D01*
X204654523Y-88670000D01*
X204702142Y-88717619D01*
X204749761Y-88812857D01*
X204749761Y-88955714D01*
X204702142Y-89050952D01*
X204654523Y-89098571D01*
X204559285Y-89146190D01*
X204178333Y-89146190D01*
X205035476Y-88622380D02*
X205368809Y-89622380D01*
X205702142Y-88622380D01*
X206511666Y-88622380D02*
X206035476Y-88622380D01*
X205987857Y-89098571D01*
X206035476Y-89050952D01*
X206130714Y-89003333D01*
X206368809Y-89003333D01*
X206464047Y-89050952D01*
X206511666Y-89098571D01*
X206559285Y-89193809D01*
X206559285Y-89431904D01*
X206511666Y-89527142D01*
X206464047Y-89574761D01*
X206368809Y-89622380D01*
X206130714Y-89622380D01*
X206035476Y-89574761D01*
X205987857Y-89527142D01*
%TO.C,J10*%
X225112380Y-31339523D02*
X225826666Y-31339523D01*
X225969523Y-31387142D01*
X226064761Y-31482380D01*
X226112380Y-31625238D01*
X226112380Y-31720476D01*
X226112380Y-30339523D02*
X226112380Y-30910952D01*
X226112380Y-30625238D02*
X225112380Y-30625238D01*
X225255238Y-30720476D01*
X225350476Y-30815714D01*
X225398095Y-30910952D01*
X225112380Y-29720476D02*
X225112380Y-29625238D01*
X225160000Y-29530000D01*
X225207619Y-29482380D01*
X225302857Y-29434761D01*
X225493333Y-29387142D01*
X225731428Y-29387142D01*
X225921904Y-29434761D01*
X226017142Y-29482380D01*
X226064761Y-29530000D01*
X226112380Y-29625238D01*
X226112380Y-29720476D01*
X226064761Y-29815714D01*
X226017142Y-29863333D01*
X225921904Y-29910952D01*
X225731428Y-29958571D01*
X225493333Y-29958571D01*
X225302857Y-29910952D01*
X225207619Y-29863333D01*
X225160000Y-29815714D01*
X225112380Y-29720476D01*
%TO.C,D7*%
X231392380Y-40208095D02*
X230392380Y-40208095D01*
X230392380Y-39970000D01*
X230440000Y-39827142D01*
X230535238Y-39731904D01*
X230630476Y-39684285D01*
X230820952Y-39636666D01*
X230963809Y-39636666D01*
X231154285Y-39684285D01*
X231249523Y-39731904D01*
X231344761Y-39827142D01*
X231392380Y-39970000D01*
X231392380Y-40208095D01*
X230392380Y-39303333D02*
X230392380Y-38636666D01*
X231392380Y-39065238D01*
X232032380Y-43541904D02*
X231032380Y-43541904D01*
X232032380Y-42970476D02*
X231460952Y-43399047D01*
X231032380Y-42970476D02*
X231603809Y-43541904D01*
%TO.C,TH2*%
X77159285Y-78012380D02*
X77730714Y-78012380D01*
X77445000Y-79012380D02*
X77445000Y-78012380D01*
X78064047Y-79012380D02*
X78064047Y-78012380D01*
X78064047Y-78488571D02*
X78635476Y-78488571D01*
X78635476Y-79012380D02*
X78635476Y-78012380D01*
X79064047Y-78107619D02*
X79111666Y-78060000D01*
X79206904Y-78012380D01*
X79445000Y-78012380D01*
X79540238Y-78060000D01*
X79587857Y-78107619D01*
X79635476Y-78202857D01*
X79635476Y-78298095D01*
X79587857Y-78440952D01*
X79016428Y-79012380D01*
X79635476Y-79012380D01*
%TO.C,R24*%
X166082142Y-71572380D02*
X165748809Y-71096190D01*
X165510714Y-71572380D02*
X165510714Y-70572380D01*
X165891666Y-70572380D01*
X165986904Y-70620000D01*
X166034523Y-70667619D01*
X166082142Y-70762857D01*
X166082142Y-70905714D01*
X166034523Y-71000952D01*
X165986904Y-71048571D01*
X165891666Y-71096190D01*
X165510714Y-71096190D01*
X166463095Y-70667619D02*
X166510714Y-70620000D01*
X166605952Y-70572380D01*
X166844047Y-70572380D01*
X166939285Y-70620000D01*
X166986904Y-70667619D01*
X167034523Y-70762857D01*
X167034523Y-70858095D01*
X166986904Y-71000952D01*
X166415476Y-71572380D01*
X167034523Y-71572380D01*
X167891666Y-70905714D02*
X167891666Y-71572380D01*
X167653571Y-70524761D02*
X167415476Y-71239047D01*
X168034523Y-71239047D01*
%TO.C,R5*%
X92368333Y-61362380D02*
X92035000Y-60886190D01*
X91796904Y-61362380D02*
X91796904Y-60362380D01*
X92177857Y-60362380D01*
X92273095Y-60410000D01*
X92320714Y-60457619D01*
X92368333Y-60552857D01*
X92368333Y-60695714D01*
X92320714Y-60790952D01*
X92273095Y-60838571D01*
X92177857Y-60886190D01*
X91796904Y-60886190D01*
X93273095Y-60362380D02*
X92796904Y-60362380D01*
X92749285Y-60838571D01*
X92796904Y-60790952D01*
X92892142Y-60743333D01*
X93130238Y-60743333D01*
X93225476Y-60790952D01*
X93273095Y-60838571D01*
X93320714Y-60933809D01*
X93320714Y-61171904D01*
X93273095Y-61267142D01*
X93225476Y-61314761D01*
X93130238Y-61362380D01*
X92892142Y-61362380D01*
X92796904Y-61314761D01*
X92749285Y-61267142D01*
%TO.C,U6*%
X206423095Y-63012380D02*
X206423095Y-63821904D01*
X206470714Y-63917142D01*
X206518333Y-63964761D01*
X206613571Y-64012380D01*
X206804047Y-64012380D01*
X206899285Y-63964761D01*
X206946904Y-63917142D01*
X206994523Y-63821904D01*
X206994523Y-63012380D01*
X207899285Y-63012380D02*
X207708809Y-63012380D01*
X207613571Y-63060000D01*
X207565952Y-63107619D01*
X207470714Y-63250476D01*
X207423095Y-63440952D01*
X207423095Y-63821904D01*
X207470714Y-63917142D01*
X207518333Y-63964761D01*
X207613571Y-64012380D01*
X207804047Y-64012380D01*
X207899285Y-63964761D01*
X207946904Y-63917142D01*
X207994523Y-63821904D01*
X207994523Y-63583809D01*
X207946904Y-63488571D01*
X207899285Y-63440952D01*
X207804047Y-63393333D01*
X207613571Y-63393333D01*
X207518333Y-63440952D01*
X207470714Y-63488571D01*
X207423095Y-63583809D01*
%TO.C,RV3*%
X182109761Y-93432380D02*
X181776428Y-92956190D01*
X181538333Y-93432380D02*
X181538333Y-92432380D01*
X181919285Y-92432380D01*
X182014523Y-92480000D01*
X182062142Y-92527619D01*
X182109761Y-92622857D01*
X182109761Y-92765714D01*
X182062142Y-92860952D01*
X182014523Y-92908571D01*
X181919285Y-92956190D01*
X181538333Y-92956190D01*
X182395476Y-92432380D02*
X182728809Y-93432380D01*
X183062142Y-92432380D01*
X183300238Y-92432380D02*
X183919285Y-92432380D01*
X183585952Y-92813333D01*
X183728809Y-92813333D01*
X183824047Y-92860952D01*
X183871666Y-92908571D01*
X183919285Y-93003809D01*
X183919285Y-93241904D01*
X183871666Y-93337142D01*
X183824047Y-93384761D01*
X183728809Y-93432380D01*
X183443095Y-93432380D01*
X183347857Y-93384761D01*
X183300238Y-93337142D01*
%TO.C,R35*%
X216152380Y-40112857D02*
X215676190Y-40446190D01*
X216152380Y-40684285D02*
X215152380Y-40684285D01*
X215152380Y-40303333D01*
X215200000Y-40208095D01*
X215247619Y-40160476D01*
X215342857Y-40112857D01*
X215485714Y-40112857D01*
X215580952Y-40160476D01*
X215628571Y-40208095D01*
X215676190Y-40303333D01*
X215676190Y-40684285D01*
X215152380Y-39779523D02*
X215152380Y-39160476D01*
X215533333Y-39493809D01*
X215533333Y-39350952D01*
X215580952Y-39255714D01*
X215628571Y-39208095D01*
X215723809Y-39160476D01*
X215961904Y-39160476D01*
X216057142Y-39208095D01*
X216104761Y-39255714D01*
X216152380Y-39350952D01*
X216152380Y-39636666D01*
X216104761Y-39731904D01*
X216057142Y-39779523D01*
X215152380Y-38255714D02*
X215152380Y-38731904D01*
X215628571Y-38779523D01*
X215580952Y-38731904D01*
X215533333Y-38636666D01*
X215533333Y-38398571D01*
X215580952Y-38303333D01*
X215628571Y-38255714D01*
X215723809Y-38208095D01*
X215961904Y-38208095D01*
X216057142Y-38255714D01*
X216104761Y-38303333D01*
X216152380Y-38398571D01*
X216152380Y-38636666D01*
X216104761Y-38731904D01*
X216057142Y-38779523D01*
%TO.C,R12*%
X145232142Y-41382380D02*
X144898809Y-40906190D01*
X144660714Y-41382380D02*
X144660714Y-40382380D01*
X145041666Y-40382380D01*
X145136904Y-40430000D01*
X145184523Y-40477619D01*
X145232142Y-40572857D01*
X145232142Y-40715714D01*
X145184523Y-40810952D01*
X145136904Y-40858571D01*
X145041666Y-40906190D01*
X144660714Y-40906190D01*
X146184523Y-41382380D02*
X145613095Y-41382380D01*
X145898809Y-41382380D02*
X145898809Y-40382380D01*
X145803571Y-40525238D01*
X145708333Y-40620476D01*
X145613095Y-40668095D01*
X146565476Y-40477619D02*
X146613095Y-40430000D01*
X146708333Y-40382380D01*
X146946428Y-40382380D01*
X147041666Y-40430000D01*
X147089285Y-40477619D01*
X147136904Y-40572857D01*
X147136904Y-40668095D01*
X147089285Y-40810952D01*
X146517857Y-41382380D01*
X147136904Y-41382380D01*
%TO.C,R4*%
X139358333Y-28512380D02*
X139025000Y-28036190D01*
X138786904Y-28512380D02*
X138786904Y-27512380D01*
X139167857Y-27512380D01*
X139263095Y-27560000D01*
X139310714Y-27607619D01*
X139358333Y-27702857D01*
X139358333Y-27845714D01*
X139310714Y-27940952D01*
X139263095Y-27988571D01*
X139167857Y-28036190D01*
X138786904Y-28036190D01*
X140215476Y-27845714D02*
X140215476Y-28512380D01*
X139977380Y-27464761D02*
X139739285Y-28179047D01*
X140358333Y-28179047D01*
%TO.C,D8*%
X226312380Y-40208095D02*
X225312380Y-40208095D01*
X225312380Y-39970000D01*
X225360000Y-39827142D01*
X225455238Y-39731904D01*
X225550476Y-39684285D01*
X225740952Y-39636666D01*
X225883809Y-39636666D01*
X226074285Y-39684285D01*
X226169523Y-39731904D01*
X226264761Y-39827142D01*
X226312380Y-39970000D01*
X226312380Y-40208095D01*
X225740952Y-39065238D02*
X225693333Y-39160476D01*
X225645714Y-39208095D01*
X225550476Y-39255714D01*
X225502857Y-39255714D01*
X225407619Y-39208095D01*
X225360000Y-39160476D01*
X225312380Y-39065238D01*
X225312380Y-38874761D01*
X225360000Y-38779523D01*
X225407619Y-38731904D01*
X225502857Y-38684285D01*
X225550476Y-38684285D01*
X225645714Y-38731904D01*
X225693333Y-38779523D01*
X225740952Y-38874761D01*
X225740952Y-39065238D01*
X225788571Y-39160476D01*
X225836190Y-39208095D01*
X225931428Y-39255714D01*
X226121904Y-39255714D01*
X226217142Y-39208095D01*
X226264761Y-39160476D01*
X226312380Y-39065238D01*
X226312380Y-38874761D01*
X226264761Y-38779523D01*
X226217142Y-38731904D01*
X226121904Y-38684285D01*
X225931428Y-38684285D01*
X225836190Y-38731904D01*
X225788571Y-38779523D01*
X225740952Y-38874761D01*
X226952380Y-43541904D02*
X225952380Y-43541904D01*
X226952380Y-42970476D02*
X226380952Y-43399047D01*
X225952380Y-42970476D02*
X226523809Y-43541904D01*
%TO.C,D4*%
X197206904Y-93212380D02*
X197206904Y-92212380D01*
X197445000Y-92212380D01*
X197587857Y-92260000D01*
X197683095Y-92355238D01*
X197730714Y-92450476D01*
X197778333Y-92640952D01*
X197778333Y-92783809D01*
X197730714Y-92974285D01*
X197683095Y-93069523D01*
X197587857Y-93164761D01*
X197445000Y-93212380D01*
X197206904Y-93212380D01*
X198635476Y-92545714D02*
X198635476Y-93212380D01*
X198397380Y-92164761D02*
X198159285Y-92879047D01*
X198778333Y-92879047D01*
X201493095Y-92642380D02*
X201493095Y-91642380D01*
X202064523Y-92642380D02*
X201635952Y-92070952D01*
X202064523Y-91642380D02*
X201493095Y-92213809D01*
%TO.C,R2*%
X111867380Y-37116666D02*
X111391190Y-37450000D01*
X111867380Y-37688095D02*
X110867380Y-37688095D01*
X110867380Y-37307142D01*
X110915000Y-37211904D01*
X110962619Y-37164285D01*
X111057857Y-37116666D01*
X111200714Y-37116666D01*
X111295952Y-37164285D01*
X111343571Y-37211904D01*
X111391190Y-37307142D01*
X111391190Y-37688095D01*
X110962619Y-36735714D02*
X110915000Y-36688095D01*
X110867380Y-36592857D01*
X110867380Y-36354761D01*
X110915000Y-36259523D01*
X110962619Y-36211904D01*
X111057857Y-36164285D01*
X111153095Y-36164285D01*
X111295952Y-36211904D01*
X111867380Y-36783333D01*
X111867380Y-36164285D01*
%TO.C,R31*%
X236667380Y-88372857D02*
X236191190Y-88706190D01*
X236667380Y-88944285D02*
X235667380Y-88944285D01*
X235667380Y-88563333D01*
X235715000Y-88468095D01*
X235762619Y-88420476D01*
X235857857Y-88372857D01*
X236000714Y-88372857D01*
X236095952Y-88420476D01*
X236143571Y-88468095D01*
X236191190Y-88563333D01*
X236191190Y-88944285D01*
X235667380Y-88039523D02*
X235667380Y-87420476D01*
X236048333Y-87753809D01*
X236048333Y-87610952D01*
X236095952Y-87515714D01*
X236143571Y-87468095D01*
X236238809Y-87420476D01*
X236476904Y-87420476D01*
X236572142Y-87468095D01*
X236619761Y-87515714D01*
X236667380Y-87610952D01*
X236667380Y-87896666D01*
X236619761Y-87991904D01*
X236572142Y-88039523D01*
X236667380Y-86468095D02*
X236667380Y-87039523D01*
X236667380Y-86753809D02*
X235667380Y-86753809D01*
X235810238Y-86849047D01*
X235905476Y-86944285D01*
X235953095Y-87039523D01*
%TO.C,U3*%
X101933095Y-53122380D02*
X101933095Y-53931904D01*
X101980714Y-54027142D01*
X102028333Y-54074761D01*
X102123571Y-54122380D01*
X102314047Y-54122380D01*
X102409285Y-54074761D01*
X102456904Y-54027142D01*
X102504523Y-53931904D01*
X102504523Y-53122380D01*
X102885476Y-53122380D02*
X103504523Y-53122380D01*
X103171190Y-53503333D01*
X103314047Y-53503333D01*
X103409285Y-53550952D01*
X103456904Y-53598571D01*
X103504523Y-53693809D01*
X103504523Y-53931904D01*
X103456904Y-54027142D01*
X103409285Y-54074761D01*
X103314047Y-54122380D01*
X103028333Y-54122380D01*
X102933095Y-54074761D01*
X102885476Y-54027142D01*
%TO.C,R23*%
X246252380Y-77962857D02*
X245776190Y-78296190D01*
X246252380Y-78534285D02*
X245252380Y-78534285D01*
X245252380Y-78153333D01*
X245300000Y-78058095D01*
X245347619Y-78010476D01*
X245442857Y-77962857D01*
X245585714Y-77962857D01*
X245680952Y-78010476D01*
X245728571Y-78058095D01*
X245776190Y-78153333D01*
X245776190Y-78534285D01*
X245347619Y-77581904D02*
X245300000Y-77534285D01*
X245252380Y-77439047D01*
X245252380Y-77200952D01*
X245300000Y-77105714D01*
X245347619Y-77058095D01*
X245442857Y-77010476D01*
X245538095Y-77010476D01*
X245680952Y-77058095D01*
X246252380Y-77629523D01*
X246252380Y-77010476D01*
X245252380Y-76677142D02*
X245252380Y-76058095D01*
X245633333Y-76391428D01*
X245633333Y-76248571D01*
X245680952Y-76153333D01*
X245728571Y-76105714D01*
X245823809Y-76058095D01*
X246061904Y-76058095D01*
X246157142Y-76105714D01*
X246204761Y-76153333D01*
X246252380Y-76248571D01*
X246252380Y-76534285D01*
X246204761Y-76629523D01*
X246157142Y-76677142D01*
%TO.C,U4*%
X178723095Y-77982380D02*
X178723095Y-78791904D01*
X178770714Y-78887142D01*
X178818333Y-78934761D01*
X178913571Y-78982380D01*
X179104047Y-78982380D01*
X179199285Y-78934761D01*
X179246904Y-78887142D01*
X179294523Y-78791904D01*
X179294523Y-77982380D01*
X180199285Y-78315714D02*
X180199285Y-78982380D01*
X179961190Y-77934761D02*
X179723095Y-78649047D01*
X180342142Y-78649047D01*
%TO.C,R22*%
X211267380Y-87102857D02*
X210791190Y-87436190D01*
X211267380Y-87674285D02*
X210267380Y-87674285D01*
X210267380Y-87293333D01*
X210315000Y-87198095D01*
X210362619Y-87150476D01*
X210457857Y-87102857D01*
X210600714Y-87102857D01*
X210695952Y-87150476D01*
X210743571Y-87198095D01*
X210791190Y-87293333D01*
X210791190Y-87674285D01*
X210362619Y-86721904D02*
X210315000Y-86674285D01*
X210267380Y-86579047D01*
X210267380Y-86340952D01*
X210315000Y-86245714D01*
X210362619Y-86198095D01*
X210457857Y-86150476D01*
X210553095Y-86150476D01*
X210695952Y-86198095D01*
X211267380Y-86769523D01*
X211267380Y-86150476D01*
X210362619Y-85769523D02*
X210315000Y-85721904D01*
X210267380Y-85626666D01*
X210267380Y-85388571D01*
X210315000Y-85293333D01*
X210362619Y-85245714D01*
X210457857Y-85198095D01*
X210553095Y-85198095D01*
X210695952Y-85245714D01*
X211267380Y-85817142D01*
X211267380Y-85198095D01*
%TO.C,R11*%
X86822142Y-86762380D02*
X86488809Y-86286190D01*
X86250714Y-86762380D02*
X86250714Y-85762380D01*
X86631666Y-85762380D01*
X86726904Y-85810000D01*
X86774523Y-85857619D01*
X86822142Y-85952857D01*
X86822142Y-86095714D01*
X86774523Y-86190952D01*
X86726904Y-86238571D01*
X86631666Y-86286190D01*
X86250714Y-86286190D01*
X87774523Y-86762380D02*
X87203095Y-86762380D01*
X87488809Y-86762380D02*
X87488809Y-85762380D01*
X87393571Y-85905238D01*
X87298333Y-86000476D01*
X87203095Y-86048095D01*
X88726904Y-86762380D02*
X88155476Y-86762380D01*
X88441190Y-86762380D02*
X88441190Y-85762380D01*
X88345952Y-85905238D01*
X88250714Y-86000476D01*
X88155476Y-86048095D01*
%TO.C,R20*%
X86812142Y-33762380D02*
X86478809Y-33286190D01*
X86240714Y-33762380D02*
X86240714Y-32762380D01*
X86621666Y-32762380D01*
X86716904Y-32810000D01*
X86764523Y-32857619D01*
X86812142Y-32952857D01*
X86812142Y-33095714D01*
X86764523Y-33190952D01*
X86716904Y-33238571D01*
X86621666Y-33286190D01*
X86240714Y-33286190D01*
X87193095Y-32857619D02*
X87240714Y-32810000D01*
X87335952Y-32762380D01*
X87574047Y-32762380D01*
X87669285Y-32810000D01*
X87716904Y-32857619D01*
X87764523Y-32952857D01*
X87764523Y-33048095D01*
X87716904Y-33190952D01*
X87145476Y-33762380D01*
X87764523Y-33762380D01*
X88383571Y-32762380D02*
X88478809Y-32762380D01*
X88574047Y-32810000D01*
X88621666Y-32857619D01*
X88669285Y-32952857D01*
X88716904Y-33143333D01*
X88716904Y-33381428D01*
X88669285Y-33571904D01*
X88621666Y-33667142D01*
X88574047Y-33714761D01*
X88478809Y-33762380D01*
X88383571Y-33762380D01*
X88288333Y-33714761D01*
X88240714Y-33667142D01*
X88193095Y-33571904D01*
X88145476Y-33381428D01*
X88145476Y-33143333D01*
X88193095Y-32952857D01*
X88240714Y-32857619D01*
X88288333Y-32810000D01*
X88383571Y-32762380D01*
%TO.C,TH3*%
X77159285Y-67922380D02*
X77730714Y-67922380D01*
X77445000Y-68922380D02*
X77445000Y-67922380D01*
X78064047Y-68922380D02*
X78064047Y-67922380D01*
X78064047Y-68398571D02*
X78635476Y-68398571D01*
X78635476Y-68922380D02*
X78635476Y-67922380D01*
X79016428Y-67922380D02*
X79635476Y-67922380D01*
X79302142Y-68303333D01*
X79445000Y-68303333D01*
X79540238Y-68350952D01*
X79587857Y-68398571D01*
X79635476Y-68493809D01*
X79635476Y-68731904D01*
X79587857Y-68827142D01*
X79540238Y-68874761D01*
X79445000Y-68922380D01*
X79159285Y-68922380D01*
X79064047Y-68874761D01*
X79016428Y-68827142D01*
%TO.C,J2*%
X78256666Y-32362380D02*
X78256666Y-33076666D01*
X78209047Y-33219523D01*
X78113809Y-33314761D01*
X77970952Y-33362380D01*
X77875714Y-33362380D01*
X78685238Y-32457619D02*
X78732857Y-32410000D01*
X78828095Y-32362380D01*
X79066190Y-32362380D01*
X79161428Y-32410000D01*
X79209047Y-32457619D01*
X79256666Y-32552857D01*
X79256666Y-32648095D01*
X79209047Y-32790952D01*
X78637619Y-33362380D01*
X79256666Y-33362380D01*
%TO.C,U1*%
X138763095Y-99852380D02*
X138763095Y-100661904D01*
X138810714Y-100757142D01*
X138858333Y-100804761D01*
X138953571Y-100852380D01*
X139144047Y-100852380D01*
X139239285Y-100804761D01*
X139286904Y-100757142D01*
X139334523Y-100661904D01*
X139334523Y-99852380D01*
X140334523Y-100852380D02*
X139763095Y-100852380D01*
X140048809Y-100852380D02*
X140048809Y-99852380D01*
X139953571Y-99995238D01*
X139858333Y-100090476D01*
X139763095Y-100138095D01*
%TO.C,C13*%
X214432142Y-62997142D02*
X214384523Y-63044761D01*
X214241666Y-63092380D01*
X214146428Y-63092380D01*
X214003571Y-63044761D01*
X213908333Y-62949523D01*
X213860714Y-62854285D01*
X213813095Y-62663809D01*
X213813095Y-62520952D01*
X213860714Y-62330476D01*
X213908333Y-62235238D01*
X214003571Y-62140000D01*
X214146428Y-62092380D01*
X214241666Y-62092380D01*
X214384523Y-62140000D01*
X214432142Y-62187619D01*
X215384523Y-63092380D02*
X214813095Y-63092380D01*
X215098809Y-63092380D02*
X215098809Y-62092380D01*
X215003571Y-62235238D01*
X214908333Y-62330476D01*
X214813095Y-62378095D01*
X215717857Y-62092380D02*
X216336904Y-62092380D01*
X216003571Y-62473333D01*
X216146428Y-62473333D01*
X216241666Y-62520952D01*
X216289285Y-62568571D01*
X216336904Y-62663809D01*
X216336904Y-62901904D01*
X216289285Y-62997142D01*
X216241666Y-63044761D01*
X216146428Y-63092380D01*
X215860714Y-63092380D01*
X215765476Y-63044761D01*
X215717857Y-62997142D01*
%TO.C,J4*%
X114806632Y-100412380D02*
X114806632Y-101126666D01*
X114759013Y-101269523D01*
X114663775Y-101364761D01*
X114520918Y-101412380D01*
X114425680Y-101412380D01*
X115711394Y-100745714D02*
X115711394Y-101412380D01*
X115473299Y-100364761D02*
X115235204Y-101079047D01*
X115854251Y-101079047D01*
%TO.C,R19*%
X98242142Y-51202380D02*
X97908809Y-50726190D01*
X97670714Y-51202380D02*
X97670714Y-50202380D01*
X98051666Y-50202380D01*
X98146904Y-50250000D01*
X98194523Y-50297619D01*
X98242142Y-50392857D01*
X98242142Y-50535714D01*
X98194523Y-50630952D01*
X98146904Y-50678571D01*
X98051666Y-50726190D01*
X97670714Y-50726190D01*
X99194523Y-51202380D02*
X98623095Y-51202380D01*
X98908809Y-51202380D02*
X98908809Y-50202380D01*
X98813571Y-50345238D01*
X98718333Y-50440476D01*
X98623095Y-50488095D01*
X99670714Y-51202380D02*
X99861190Y-51202380D01*
X99956428Y-51154761D01*
X100004047Y-51107142D01*
X100099285Y-50964285D01*
X100146904Y-50773809D01*
X100146904Y-50392857D01*
X100099285Y-50297619D01*
X100051666Y-50250000D01*
X99956428Y-50202380D01*
X99765952Y-50202380D01*
X99670714Y-50250000D01*
X99623095Y-50297619D01*
X99575476Y-50392857D01*
X99575476Y-50630952D01*
X99623095Y-50726190D01*
X99670714Y-50773809D01*
X99765952Y-50821428D01*
X99956428Y-50821428D01*
X100051666Y-50773809D01*
X100099285Y-50726190D01*
X100146904Y-50630952D01*
%TO.C,RV4*%
X148902380Y-69295238D02*
X148426190Y-69628571D01*
X148902380Y-69866666D02*
X147902380Y-69866666D01*
X147902380Y-69485714D01*
X147950000Y-69390476D01*
X147997619Y-69342857D01*
X148092857Y-69295238D01*
X148235714Y-69295238D01*
X148330952Y-69342857D01*
X148378571Y-69390476D01*
X148426190Y-69485714D01*
X148426190Y-69866666D01*
X147902380Y-69009523D02*
X148902380Y-68676190D01*
X147902380Y-68342857D01*
X148235714Y-67580952D02*
X148902380Y-67580952D01*
X147854761Y-67819047D02*
X148569047Y-68057142D01*
X148569047Y-67438095D01*
%TO.C,C8*%
X111378333Y-56697142D02*
X111330714Y-56744761D01*
X111187857Y-56792380D01*
X111092619Y-56792380D01*
X110949761Y-56744761D01*
X110854523Y-56649523D01*
X110806904Y-56554285D01*
X110759285Y-56363809D01*
X110759285Y-56220952D01*
X110806904Y-56030476D01*
X110854523Y-55935238D01*
X110949761Y-55840000D01*
X111092619Y-55792380D01*
X111187857Y-55792380D01*
X111330714Y-55840000D01*
X111378333Y-55887619D01*
X111949761Y-56220952D02*
X111854523Y-56173333D01*
X111806904Y-56125714D01*
X111759285Y-56030476D01*
X111759285Y-55982857D01*
X111806904Y-55887619D01*
X111854523Y-55840000D01*
X111949761Y-55792380D01*
X112140238Y-55792380D01*
X112235476Y-55840000D01*
X112283095Y-55887619D01*
X112330714Y-55982857D01*
X112330714Y-56030476D01*
X112283095Y-56125714D01*
X112235476Y-56173333D01*
X112140238Y-56220952D01*
X111949761Y-56220952D01*
X111854523Y-56268571D01*
X111806904Y-56316190D01*
X111759285Y-56411428D01*
X111759285Y-56601904D01*
X111806904Y-56697142D01*
X111854523Y-56744761D01*
X111949761Y-56792380D01*
X112140238Y-56792380D01*
X112235476Y-56744761D01*
X112283095Y-56697142D01*
X112330714Y-56601904D01*
X112330714Y-56411428D01*
X112283095Y-56316190D01*
X112235476Y-56268571D01*
X112140238Y-56220952D01*
%TO.C,R34*%
X246462380Y-40112857D02*
X245986190Y-40446190D01*
X246462380Y-40684285D02*
X245462380Y-40684285D01*
X245462380Y-40303333D01*
X245510000Y-40208095D01*
X245557619Y-40160476D01*
X245652857Y-40112857D01*
X245795714Y-40112857D01*
X245890952Y-40160476D01*
X245938571Y-40208095D01*
X245986190Y-40303333D01*
X245986190Y-40684285D01*
X245462380Y-39779523D02*
X245462380Y-39160476D01*
X245843333Y-39493809D01*
X245843333Y-39350952D01*
X245890952Y-39255714D01*
X245938571Y-39208095D01*
X246033809Y-39160476D01*
X246271904Y-39160476D01*
X246367142Y-39208095D01*
X246414761Y-39255714D01*
X246462380Y-39350952D01*
X246462380Y-39636666D01*
X246414761Y-39731904D01*
X246367142Y-39779523D01*
X245795714Y-38303333D02*
X246462380Y-38303333D01*
X245414761Y-38541428D02*
X246129047Y-38779523D01*
X246129047Y-38160476D01*
%TO.C,C11*%
X204712142Y-37612857D02*
X204759761Y-37660476D01*
X204807380Y-37803333D01*
X204807380Y-37898571D01*
X204759761Y-38041428D01*
X204664523Y-38136666D01*
X204569285Y-38184285D01*
X204378809Y-38231904D01*
X204235952Y-38231904D01*
X204045476Y-38184285D01*
X203950238Y-38136666D01*
X203855000Y-38041428D01*
X203807380Y-37898571D01*
X203807380Y-37803333D01*
X203855000Y-37660476D01*
X203902619Y-37612857D01*
X204807380Y-36660476D02*
X204807380Y-37231904D01*
X204807380Y-36946190D02*
X203807380Y-36946190D01*
X203950238Y-37041428D01*
X204045476Y-37136666D01*
X204093095Y-37231904D01*
X204807380Y-35708095D02*
X204807380Y-36279523D01*
X204807380Y-35993809D02*
X203807380Y-35993809D01*
X203950238Y-36089047D01*
X204045476Y-36184285D01*
X204093095Y-36279523D01*
%TO.C,J3*%
X147667380Y-96948333D02*
X148381666Y-96948333D01*
X148524523Y-96995952D01*
X148619761Y-97091190D01*
X148667380Y-97234047D01*
X148667380Y-97329285D01*
X147667380Y-96567380D02*
X147667380Y-95948333D01*
X148048333Y-96281666D01*
X148048333Y-96138809D01*
X148095952Y-96043571D01*
X148143571Y-95995952D01*
X148238809Y-95948333D01*
X148476904Y-95948333D01*
X148572142Y-95995952D01*
X148619761Y-96043571D01*
X148667380Y-96138809D01*
X148667380Y-96424523D01*
X148619761Y-96519761D01*
X148572142Y-96567380D01*
%TO.C,Q2*%
X126729761Y-100947619D02*
X126634523Y-100900000D01*
X126539285Y-100804761D01*
X126396428Y-100661904D01*
X126301190Y-100614285D01*
X126205952Y-100614285D01*
X126253571Y-100852380D02*
X126158333Y-100804761D01*
X126063095Y-100709523D01*
X126015476Y-100519047D01*
X126015476Y-100185714D01*
X126063095Y-99995238D01*
X126158333Y-99900000D01*
X126253571Y-99852380D01*
X126444047Y-99852380D01*
X126539285Y-99900000D01*
X126634523Y-99995238D01*
X126682142Y-100185714D01*
X126682142Y-100519047D01*
X126634523Y-100709523D01*
X126539285Y-100804761D01*
X126444047Y-100852380D01*
X126253571Y-100852380D01*
X127063095Y-99947619D02*
X127110714Y-99900000D01*
X127205952Y-99852380D01*
X127444047Y-99852380D01*
X127539285Y-99900000D01*
X127586904Y-99947619D01*
X127634523Y-100042857D01*
X127634523Y-100138095D01*
X127586904Y-100280952D01*
X127015476Y-100852380D01*
X127634523Y-100852380D01*
%TO.C,RV1*%
X77897380Y-61675238D02*
X77421190Y-62008571D01*
X77897380Y-62246666D02*
X76897380Y-62246666D01*
X76897380Y-61865714D01*
X76945000Y-61770476D01*
X76992619Y-61722857D01*
X77087857Y-61675238D01*
X77230714Y-61675238D01*
X77325952Y-61722857D01*
X77373571Y-61770476D01*
X77421190Y-61865714D01*
X77421190Y-62246666D01*
X76897380Y-61389523D02*
X77897380Y-61056190D01*
X76897380Y-60722857D01*
X77897380Y-59865714D02*
X77897380Y-60437142D01*
X77897380Y-60151428D02*
X76897380Y-60151428D01*
X77040238Y-60246666D01*
X77135476Y-60341904D01*
X77183095Y-60437142D01*
%TO.C,R3*%
X126658333Y-28512380D02*
X126325000Y-28036190D01*
X126086904Y-28512380D02*
X126086904Y-27512380D01*
X126467857Y-27512380D01*
X126563095Y-27560000D01*
X126610714Y-27607619D01*
X126658333Y-27702857D01*
X126658333Y-27845714D01*
X126610714Y-27940952D01*
X126563095Y-27988571D01*
X126467857Y-28036190D01*
X126086904Y-28036190D01*
X126991666Y-27512380D02*
X127610714Y-27512380D01*
X127277380Y-27893333D01*
X127420238Y-27893333D01*
X127515476Y-27940952D01*
X127563095Y-27988571D01*
X127610714Y-28083809D01*
X127610714Y-28321904D01*
X127563095Y-28417142D01*
X127515476Y-28464761D01*
X127420238Y-28512380D01*
X127134523Y-28512380D01*
X127039285Y-28464761D01*
X126991666Y-28417142D01*
%TO.C,RV6*%
X212564761Y-93412380D02*
X212231428Y-92936190D01*
X211993333Y-93412380D02*
X211993333Y-92412380D01*
X212374285Y-92412380D01*
X212469523Y-92460000D01*
X212517142Y-92507619D01*
X212564761Y-92602857D01*
X212564761Y-92745714D01*
X212517142Y-92840952D01*
X212469523Y-92888571D01*
X212374285Y-92936190D01*
X211993333Y-92936190D01*
X212850476Y-92412380D02*
X213183809Y-93412380D01*
X213517142Y-92412380D01*
X214279047Y-92412380D02*
X214088571Y-92412380D01*
X213993333Y-92460000D01*
X213945714Y-92507619D01*
X213850476Y-92650476D01*
X213802857Y-92840952D01*
X213802857Y-93221904D01*
X213850476Y-93317142D01*
X213898095Y-93364761D01*
X213993333Y-93412380D01*
X214183809Y-93412380D01*
X214279047Y-93364761D01*
X214326666Y-93317142D01*
X214374285Y-93221904D01*
X214374285Y-92983809D01*
X214326666Y-92888571D01*
X214279047Y-92840952D01*
X214183809Y-92793333D01*
X213993333Y-92793333D01*
X213898095Y-92840952D01*
X213850476Y-92888571D01*
X213802857Y-92983809D01*
%TO.C,R16*%
X98242142Y-46122380D02*
X97908809Y-45646190D01*
X97670714Y-46122380D02*
X97670714Y-45122380D01*
X98051666Y-45122380D01*
X98146904Y-45170000D01*
X98194523Y-45217619D01*
X98242142Y-45312857D01*
X98242142Y-45455714D01*
X98194523Y-45550952D01*
X98146904Y-45598571D01*
X98051666Y-45646190D01*
X97670714Y-45646190D01*
X99194523Y-46122380D02*
X98623095Y-46122380D01*
X98908809Y-46122380D02*
X98908809Y-45122380D01*
X98813571Y-45265238D01*
X98718333Y-45360476D01*
X98623095Y-45408095D01*
X100051666Y-45122380D02*
X99861190Y-45122380D01*
X99765952Y-45170000D01*
X99718333Y-45217619D01*
X99623095Y-45360476D01*
X99575476Y-45550952D01*
X99575476Y-45931904D01*
X99623095Y-46027142D01*
X99670714Y-46074761D01*
X99765952Y-46122380D01*
X99956428Y-46122380D01*
X100051666Y-46074761D01*
X100099285Y-46027142D01*
X100146904Y-45931904D01*
X100146904Y-45693809D01*
X100099285Y-45598571D01*
X100051666Y-45550952D01*
X99956428Y-45503333D01*
X99765952Y-45503333D01*
X99670714Y-45550952D01*
X99623095Y-45598571D01*
X99575476Y-45693809D01*
%TO.C,D5*%
X234002380Y-51073095D02*
X233002380Y-51073095D01*
X233002380Y-50835000D01*
X233050000Y-50692142D01*
X233145238Y-50596904D01*
X233240476Y-50549285D01*
X233430952Y-50501666D01*
X233573809Y-50501666D01*
X233764285Y-50549285D01*
X233859523Y-50596904D01*
X233954761Y-50692142D01*
X234002380Y-50835000D01*
X234002380Y-51073095D01*
X233002380Y-49596904D02*
X233002380Y-50073095D01*
X233478571Y-50120714D01*
X233430952Y-50073095D01*
X233383333Y-49977857D01*
X233383333Y-49739761D01*
X233430952Y-49644523D01*
X233478571Y-49596904D01*
X233573809Y-49549285D01*
X233811904Y-49549285D01*
X233907142Y-49596904D01*
X233954761Y-49644523D01*
X234002380Y-49739761D01*
X234002380Y-49977857D01*
X233954761Y-50073095D01*
X233907142Y-50120714D01*
X234572380Y-54406904D02*
X233572380Y-54406904D01*
X234572380Y-53835476D02*
X234000952Y-54264047D01*
X233572380Y-53835476D02*
X234143809Y-54406904D01*
%TO.C,R27*%
X223942380Y-51077857D02*
X223466190Y-51411190D01*
X223942380Y-51649285D02*
X222942380Y-51649285D01*
X222942380Y-51268333D01*
X222990000Y-51173095D01*
X223037619Y-51125476D01*
X223132857Y-51077857D01*
X223275714Y-51077857D01*
X223370952Y-51125476D01*
X223418571Y-51173095D01*
X223466190Y-51268333D01*
X223466190Y-51649285D01*
X223037619Y-50696904D02*
X222990000Y-50649285D01*
X222942380Y-50554047D01*
X222942380Y-50315952D01*
X222990000Y-50220714D01*
X223037619Y-50173095D01*
X223132857Y-50125476D01*
X223228095Y-50125476D01*
X223370952Y-50173095D01*
X223942380Y-50744523D01*
X223942380Y-50125476D01*
X222942380Y-49792142D02*
X222942380Y-49125476D01*
X223942380Y-49554047D01*
%TO.C,U2*%
X129873095Y-30262380D02*
X129873095Y-31071904D01*
X129920714Y-31167142D01*
X129968333Y-31214761D01*
X130063571Y-31262380D01*
X130254047Y-31262380D01*
X130349285Y-31214761D01*
X130396904Y-31167142D01*
X130444523Y-31071904D01*
X130444523Y-30262380D01*
X130873095Y-30357619D02*
X130920714Y-30310000D01*
X131015952Y-30262380D01*
X131254047Y-30262380D01*
X131349285Y-30310000D01*
X131396904Y-30357619D01*
X131444523Y-30452857D01*
X131444523Y-30548095D01*
X131396904Y-30690952D01*
X130825476Y-31262380D01*
X131444523Y-31262380D01*
%TO.C,C10*%
X154412142Y-50645411D02*
X154459761Y-50693030D01*
X154507380Y-50835887D01*
X154507380Y-50931125D01*
X154459761Y-51073982D01*
X154364523Y-51169220D01*
X154269285Y-51216839D01*
X154078809Y-51264458D01*
X153935952Y-51264458D01*
X153745476Y-51216839D01*
X153650238Y-51169220D01*
X153555000Y-51073982D01*
X153507380Y-50931125D01*
X153507380Y-50835887D01*
X153555000Y-50693030D01*
X153602619Y-50645411D01*
X154507380Y-49693030D02*
X154507380Y-50264458D01*
X154507380Y-49978744D02*
X153507380Y-49978744D01*
X153650238Y-50073982D01*
X153745476Y-50169220D01*
X153793095Y-50264458D01*
X153507380Y-49073982D02*
X153507380Y-48978744D01*
X153555000Y-48883506D01*
X153602619Y-48835887D01*
X153697857Y-48788268D01*
X153888333Y-48740649D01*
X154126428Y-48740649D01*
X154316904Y-48788268D01*
X154412142Y-48835887D01*
X154459761Y-48883506D01*
X154507380Y-48978744D01*
X154507380Y-49073982D01*
X154459761Y-49169220D01*
X154412142Y-49216839D01*
X154316904Y-49264458D01*
X154126428Y-49312077D01*
X153888333Y-49312077D01*
X153697857Y-49264458D01*
X153602619Y-49216839D01*
X153555000Y-49169220D01*
X153507380Y-49073982D01*
%TO.C,J5*%
X219149345Y-28485833D02*
X219863631Y-28485833D01*
X220006488Y-28533452D01*
X220101726Y-28628690D01*
X220149345Y-28771547D01*
X220149345Y-28866785D01*
X219149345Y-27533452D02*
X219149345Y-28009642D01*
X219625536Y-28057261D01*
X219577917Y-28009642D01*
X219530298Y-27914404D01*
X219530298Y-27676309D01*
X219577917Y-27581071D01*
X219625536Y-27533452D01*
X219720774Y-27485833D01*
X219958869Y-27485833D01*
X220054107Y-27533452D01*
X220101726Y-27581071D01*
X220149345Y-27676309D01*
X220149345Y-27914404D01*
X220101726Y-28009642D01*
X220054107Y-28057261D01*
%TO.C,R7*%
X87288333Y-43922380D02*
X86955000Y-43446190D01*
X86716904Y-43922380D02*
X86716904Y-42922380D01*
X87097857Y-42922380D01*
X87193095Y-42970000D01*
X87240714Y-43017619D01*
X87288333Y-43112857D01*
X87288333Y-43255714D01*
X87240714Y-43350952D01*
X87193095Y-43398571D01*
X87097857Y-43446190D01*
X86716904Y-43446190D01*
X87621666Y-42922380D02*
X88288333Y-42922380D01*
X87859761Y-43922380D01*
%TO.C,R9*%
X87298333Y-91842380D02*
X86965000Y-91366190D01*
X86726904Y-91842380D02*
X86726904Y-90842380D01*
X87107857Y-90842380D01*
X87203095Y-90890000D01*
X87250714Y-90937619D01*
X87298333Y-91032857D01*
X87298333Y-91175714D01*
X87250714Y-91270952D01*
X87203095Y-91318571D01*
X87107857Y-91366190D01*
X86726904Y-91366190D01*
X87774523Y-91842380D02*
X87965000Y-91842380D01*
X88060238Y-91794761D01*
X88107857Y-91747142D01*
X88203095Y-91604285D01*
X88250714Y-91413809D01*
X88250714Y-91032857D01*
X88203095Y-90937619D01*
X88155476Y-90890000D01*
X88060238Y-90842380D01*
X87869761Y-90842380D01*
X87774523Y-90890000D01*
X87726904Y-90937619D01*
X87679285Y-91032857D01*
X87679285Y-91270952D01*
X87726904Y-91366190D01*
X87774523Y-91413809D01*
X87869761Y-91461428D01*
X88060238Y-91461428D01*
X88155476Y-91413809D01*
X88203095Y-91366190D01*
X88250714Y-91270952D01*
%TO.C,Q4*%
X225764761Y-100947619D02*
X225669523Y-100900000D01*
X225574285Y-100804761D01*
X225431428Y-100661904D01*
X225336190Y-100614285D01*
X225240952Y-100614285D01*
X225288571Y-100852380D02*
X225193333Y-100804761D01*
X225098095Y-100709523D01*
X225050476Y-100519047D01*
X225050476Y-100185714D01*
X225098095Y-99995238D01*
X225193333Y-99900000D01*
X225288571Y-99852380D01*
X225479047Y-99852380D01*
X225574285Y-99900000D01*
X225669523Y-99995238D01*
X225717142Y-100185714D01*
X225717142Y-100519047D01*
X225669523Y-100709523D01*
X225574285Y-100804761D01*
X225479047Y-100852380D01*
X225288571Y-100852380D01*
X226574285Y-100185714D02*
X226574285Y-100852380D01*
X226336190Y-99804761D02*
X226098095Y-100519047D01*
X226717142Y-100519047D01*
%TO.C,R29*%
X244292380Y-56522857D02*
X243816190Y-56856190D01*
X244292380Y-57094285D02*
X243292380Y-57094285D01*
X243292380Y-56713333D01*
X243340000Y-56618095D01*
X243387619Y-56570476D01*
X243482857Y-56522857D01*
X243625714Y-56522857D01*
X243720952Y-56570476D01*
X243768571Y-56618095D01*
X243816190Y-56713333D01*
X243816190Y-57094285D01*
X243387619Y-56141904D02*
X243340000Y-56094285D01*
X243292380Y-55999047D01*
X243292380Y-55760952D01*
X243340000Y-55665714D01*
X243387619Y-55618095D01*
X243482857Y-55570476D01*
X243578095Y-55570476D01*
X243720952Y-55618095D01*
X244292380Y-56189523D01*
X244292380Y-55570476D01*
X244292380Y-55094285D02*
X244292380Y-54903809D01*
X244244761Y-54808571D01*
X244197142Y-54760952D01*
X244054285Y-54665714D01*
X243863809Y-54618095D01*
X243482857Y-54618095D01*
X243387619Y-54665714D01*
X243340000Y-54713333D01*
X243292380Y-54808571D01*
X243292380Y-54999047D01*
X243340000Y-55094285D01*
X243387619Y-55141904D01*
X243482857Y-55189523D01*
X243720952Y-55189523D01*
X243816190Y-55141904D01*
X243863809Y-55094285D01*
X243911428Y-54999047D01*
X243911428Y-54808571D01*
X243863809Y-54713333D01*
X243816190Y-54665714D01*
X243720952Y-54618095D01*
%TO.C,R30*%
X216152380Y-51077857D02*
X215676190Y-51411190D01*
X216152380Y-51649285D02*
X215152380Y-51649285D01*
X215152380Y-51268333D01*
X215200000Y-51173095D01*
X215247619Y-51125476D01*
X215342857Y-51077857D01*
X215485714Y-51077857D01*
X215580952Y-51125476D01*
X215628571Y-51173095D01*
X215676190Y-51268333D01*
X215676190Y-51649285D01*
X215152380Y-50744523D02*
X215152380Y-50125476D01*
X215533333Y-50458809D01*
X215533333Y-50315952D01*
X215580952Y-50220714D01*
X215628571Y-50173095D01*
X215723809Y-50125476D01*
X215961904Y-50125476D01*
X216057142Y-50173095D01*
X216104761Y-50220714D01*
X216152380Y-50315952D01*
X216152380Y-50601666D01*
X216104761Y-50696904D01*
X216057142Y-50744523D01*
X215152380Y-49506428D02*
X215152380Y-49411190D01*
X215200000Y-49315952D01*
X215247619Y-49268333D01*
X215342857Y-49220714D01*
X215533333Y-49173095D01*
X215771428Y-49173095D01*
X215961904Y-49220714D01*
X216057142Y-49268333D01*
X216104761Y-49315952D01*
X216152380Y-49411190D01*
X216152380Y-49506428D01*
X216104761Y-49601666D01*
X216057142Y-49649285D01*
X215961904Y-49696904D01*
X215771428Y-49744523D01*
X215533333Y-49744523D01*
X215342857Y-49696904D01*
X215247619Y-49649285D01*
X215200000Y-49601666D01*
X215152380Y-49506428D01*
%TO.C,C1*%
X102449642Y-97976666D02*
X102497261Y-98024285D01*
X102544880Y-98167142D01*
X102544880Y-98262380D01*
X102497261Y-98405238D01*
X102402023Y-98500476D01*
X102306785Y-98548095D01*
X102116309Y-98595714D01*
X101973452Y-98595714D01*
X101782976Y-98548095D01*
X101687738Y-98500476D01*
X101592500Y-98405238D01*
X101544880Y-98262380D01*
X101544880Y-98167142D01*
X101592500Y-98024285D01*
X101640119Y-97976666D01*
X102544880Y-97024285D02*
X102544880Y-97595714D01*
X102544880Y-97310000D02*
X101544880Y-97310000D01*
X101687738Y-97405238D01*
X101782976Y-97500476D01*
X101830595Y-97595714D01*
%TO.C,D3*%
X198476904Y-58902380D02*
X198476904Y-57902380D01*
X198715000Y-57902380D01*
X198857857Y-57950000D01*
X198953095Y-58045238D01*
X199000714Y-58140476D01*
X199048333Y-58330952D01*
X199048333Y-58473809D01*
X199000714Y-58664285D01*
X198953095Y-58759523D01*
X198857857Y-58854761D01*
X198715000Y-58902380D01*
X198476904Y-58902380D01*
X199381666Y-57902380D02*
X200000714Y-57902380D01*
X199667380Y-58283333D01*
X199810238Y-58283333D01*
X199905476Y-58330952D01*
X199953095Y-58378571D01*
X200000714Y-58473809D01*
X200000714Y-58711904D01*
X199953095Y-58807142D01*
X199905476Y-58854761D01*
X199810238Y-58902380D01*
X199524523Y-58902380D01*
X199429285Y-58854761D01*
X199381666Y-58807142D01*
X202763095Y-58332380D02*
X202763095Y-57332380D01*
X203334523Y-58332380D02*
X202905952Y-57760952D01*
X203334523Y-57332380D02*
X202763095Y-57903809D01*
%TO.C,D6*%
X228922380Y-51073095D02*
X227922380Y-51073095D01*
X227922380Y-50835000D01*
X227970000Y-50692142D01*
X228065238Y-50596904D01*
X228160476Y-50549285D01*
X228350952Y-50501666D01*
X228493809Y-50501666D01*
X228684285Y-50549285D01*
X228779523Y-50596904D01*
X228874761Y-50692142D01*
X228922380Y-50835000D01*
X228922380Y-51073095D01*
X227922380Y-49644523D02*
X227922380Y-49835000D01*
X227970000Y-49930238D01*
X228017619Y-49977857D01*
X228160476Y-50073095D01*
X228350952Y-50120714D01*
X228731904Y-50120714D01*
X228827142Y-50073095D01*
X228874761Y-50025476D01*
X228922380Y-49930238D01*
X228922380Y-49739761D01*
X228874761Y-49644523D01*
X228827142Y-49596904D01*
X228731904Y-49549285D01*
X228493809Y-49549285D01*
X228398571Y-49596904D01*
X228350952Y-49644523D01*
X228303333Y-49739761D01*
X228303333Y-49930238D01*
X228350952Y-50025476D01*
X228398571Y-50073095D01*
X228493809Y-50120714D01*
X229492380Y-54406904D02*
X228492380Y-54406904D01*
X229492380Y-53835476D02*
X228920952Y-54264047D01*
X228492380Y-53835476D02*
X229063809Y-54406904D01*
%TO.C,R18*%
X127567380Y-82092857D02*
X127091190Y-82426190D01*
X127567380Y-82664285D02*
X126567380Y-82664285D01*
X126567380Y-82283333D01*
X126615000Y-82188095D01*
X126662619Y-82140476D01*
X126757857Y-82092857D01*
X126900714Y-82092857D01*
X126995952Y-82140476D01*
X127043571Y-82188095D01*
X127091190Y-82283333D01*
X127091190Y-82664285D01*
X127567380Y-81140476D02*
X127567380Y-81711904D01*
X127567380Y-81426190D02*
X126567380Y-81426190D01*
X126710238Y-81521428D01*
X126805476Y-81616666D01*
X126853095Y-81711904D01*
X126995952Y-80569047D02*
X126948333Y-80664285D01*
X126900714Y-80711904D01*
X126805476Y-80759523D01*
X126757857Y-80759523D01*
X126662619Y-80711904D01*
X126615000Y-80664285D01*
X126567380Y-80569047D01*
X126567380Y-80378571D01*
X126615000Y-80283333D01*
X126662619Y-80235714D01*
X126757857Y-80188095D01*
X126805476Y-80188095D01*
X126900714Y-80235714D01*
X126948333Y-80283333D01*
X126995952Y-80378571D01*
X126995952Y-80569047D01*
X127043571Y-80664285D01*
X127091190Y-80711904D01*
X127186428Y-80759523D01*
X127376904Y-80759523D01*
X127472142Y-80711904D01*
X127519761Y-80664285D01*
X127567380Y-80569047D01*
X127567380Y-80378571D01*
X127519761Y-80283333D01*
X127472142Y-80235714D01*
X127376904Y-80188095D01*
X127186428Y-80188095D01*
X127091190Y-80235714D01*
X127043571Y-80283333D01*
X126995952Y-80378571D01*
%TO.C,D2*%
X198476904Y-43662380D02*
X198476904Y-42662380D01*
X198715000Y-42662380D01*
X198857857Y-42710000D01*
X198953095Y-42805238D01*
X199000714Y-42900476D01*
X199048333Y-43090952D01*
X199048333Y-43233809D01*
X199000714Y-43424285D01*
X198953095Y-43519523D01*
X198857857Y-43614761D01*
X198715000Y-43662380D01*
X198476904Y-43662380D01*
X199429285Y-42757619D02*
X199476904Y-42710000D01*
X199572142Y-42662380D01*
X199810238Y-42662380D01*
X199905476Y-42710000D01*
X199953095Y-42757619D01*
X200000714Y-42852857D01*
X200000714Y-42948095D01*
X199953095Y-43090952D01*
X199381666Y-43662380D01*
X200000714Y-43662380D01*
X202763095Y-43092380D02*
X202763095Y-42092380D01*
X203334523Y-43092380D02*
X202905952Y-42520952D01*
X203334523Y-42092380D02*
X202763095Y-42663809D01*
D11*
%TO.C,R33*%
X221950000Y-36200000D02*
X222280000Y-36200000D01*
X224360000Y-42740000D02*
X224690000Y-42740000D01*
X222280000Y-42740000D02*
X221950000Y-42740000D01*
X224690000Y-36200000D02*
X224360000Y-36200000D01*
X221950000Y-42740000D02*
X221950000Y-36200000D01*
X224690000Y-42740000D02*
X224690000Y-36200000D01*
%TO.C,U7*%
X176855000Y-70010000D02*
X182155000Y-70010000D01*
X182155000Y-70010000D02*
X182155000Y-64810000D01*
X178505000Y-64810000D02*
X176855000Y-64810000D01*
X176855000Y-64810000D02*
X176855000Y-70010000D01*
X182155000Y-64810000D02*
X180505000Y-64810000D01*
X178505000Y-64810000D02*
G75*
G03*
X180505000Y-64810000I1000000J0D01*
G01*
%TO.C,R26*%
X240060000Y-53705000D02*
X239730000Y-53705000D01*
X242470000Y-53705000D02*
X242470000Y-47165000D01*
X242140000Y-53705000D02*
X242470000Y-53705000D01*
X239730000Y-53705000D02*
X239730000Y-47165000D01*
X242470000Y-47165000D02*
X242140000Y-47165000D01*
X239730000Y-47165000D02*
X240060000Y-47165000D01*
%TO.C,C4*%
X91575000Y-67210000D02*
X91575000Y-67195000D01*
X96115000Y-65070000D02*
X91575000Y-65070000D01*
X96115000Y-67210000D02*
X91575000Y-67210000D01*
X96115000Y-67210000D02*
X96115000Y-67195000D01*
X96115000Y-65085000D02*
X96115000Y-65070000D01*
X91575000Y-65085000D02*
X91575000Y-65070000D01*
%TO.C,Q1*%
X160415000Y-44190000D02*
X158915000Y-44190000D01*
X158915000Y-37560000D02*
X156085000Y-37560000D01*
X158915000Y-43920000D02*
X157815000Y-43920000D01*
X160415000Y-37290000D02*
X158915000Y-37290000D01*
X158915000Y-44190000D02*
X158915000Y-43920000D01*
X158915000Y-37290000D02*
X158915000Y-37560000D01*
%TO.C,TH1*%
X79775000Y-90230000D02*
X79775000Y-91560000D01*
X77115000Y-92830000D02*
X79775000Y-92830000D01*
X78445000Y-90230000D02*
X79775000Y-90230000D01*
X79775000Y-92830000D02*
X79775000Y-95430000D01*
X77115000Y-92830000D02*
X77115000Y-95430000D01*
X77115000Y-95430000D02*
X79775000Y-95430000D01*
%TO.C,R14*%
X149685000Y-62580000D02*
X149685000Y-59270000D01*
X151055000Y-52730000D02*
X148315000Y-52730000D01*
X149685000Y-49420000D02*
X149685000Y-52730000D01*
X151055000Y-59270000D02*
X151055000Y-52730000D01*
X148315000Y-52730000D02*
X148315000Y-59270000D01*
X148315000Y-59270000D02*
X151055000Y-59270000D01*
%TO.C,Q3*%
X231705000Y-85770000D02*
X235305000Y-85770000D01*
X233505000Y-81319999D02*
G75*
G03*
X231666522Y-85758478I0J-2600001D01*
G01*
X235343478Y-85758478D02*
G75*
G03*
X233505000Y-81320000I-1838478J1838478D01*
G01*
%TO.C,R25*%
X195475000Y-65100000D02*
X195475000Y-64770000D01*
X188935000Y-67510000D02*
X188935000Y-67180000D01*
X195475000Y-67510000D02*
X188935000Y-67510000D01*
X188935000Y-64770000D02*
X188935000Y-65100000D01*
X195475000Y-67180000D02*
X195475000Y-67510000D01*
X195475000Y-64770000D02*
X188935000Y-64770000D01*
%TO.C,R10*%
X89045000Y-69870000D02*
X89045000Y-70200000D01*
X95585000Y-69870000D02*
X89045000Y-69870000D01*
X95585000Y-70200000D02*
X95585000Y-69870000D01*
X89045000Y-72610000D02*
X89045000Y-72280000D01*
X95585000Y-72280000D02*
X95585000Y-72610000D01*
X95585000Y-72610000D02*
X89045000Y-72610000D01*
%TO.C,C3*%
X116975000Y-32070000D02*
X116975000Y-32085000D01*
X116975000Y-32070000D02*
X121515000Y-32070000D01*
X121515000Y-32070000D02*
X121515000Y-32085000D01*
X116975000Y-34195000D02*
X116975000Y-34210000D01*
X116975000Y-34210000D02*
X121515000Y-34210000D01*
X121515000Y-34195000D02*
X121515000Y-34210000D01*
%TO.C,R15*%
X155935000Y-64160000D02*
X156265000Y-64160000D01*
X155935000Y-70700000D02*
X155935000Y-64160000D01*
X158345000Y-70700000D02*
X158675000Y-70700000D01*
X156265000Y-70700000D02*
X155935000Y-70700000D01*
X158675000Y-64160000D02*
X158345000Y-64160000D01*
X158675000Y-70700000D02*
X158675000Y-64160000D01*
%TO.C,J9*%
X247415000Y-85270000D02*
X250075000Y-85270000D01*
X250075000Y-41970000D02*
X250075000Y-43300000D01*
X247415000Y-44570000D02*
X247415000Y-85270000D01*
X247415000Y-44570000D02*
X250075000Y-44570000D01*
X248745000Y-41970000D02*
X250075000Y-41970000D01*
X250075000Y-44570000D02*
X250075000Y-85270000D01*
%TO.C,J6*%
X120217500Y-52130000D02*
X120217500Y-80130000D01*
X117557500Y-52130000D02*
X120217500Y-52130000D01*
X117557500Y-52130000D02*
X117557500Y-80130000D01*
X117557500Y-80130000D02*
X120217500Y-80130000D01*
X120217500Y-49530000D02*
X120217500Y-50860000D01*
X118887500Y-49530000D02*
X120217500Y-49530000D01*
%TO.C,R13*%
X146685000Y-37180000D02*
X146685000Y-36850000D01*
X153225000Y-39590000D02*
X153225000Y-39260000D01*
X146685000Y-39590000D02*
X153225000Y-39590000D01*
X146685000Y-39260000D02*
X146685000Y-39590000D01*
X146685000Y-36850000D02*
X153225000Y-36850000D01*
X153225000Y-36850000D02*
X153225000Y-37180000D01*
%TO.C,R8*%
X90725000Y-52290000D02*
X90725000Y-51960000D01*
X84185000Y-49550000D02*
X90725000Y-49550000D01*
X84185000Y-49880000D02*
X84185000Y-49550000D01*
X90725000Y-49550000D02*
X90725000Y-49880000D01*
X84185000Y-52290000D02*
X90725000Y-52290000D01*
X84185000Y-51960000D02*
X84185000Y-52290000D01*
%TO.C,C7*%
X98053000Y-81061000D02*
X97185000Y-81061000D01*
X95505000Y-81381000D02*
X94907000Y-81381000D01*
X95505000Y-81021000D02*
X94610000Y-81021000D01*
X98361000Y-80380000D02*
X97185000Y-80380000D01*
X95505000Y-80060000D02*
X94274000Y-80060000D01*
X98339000Y-80460000D02*
X97185000Y-80460000D01*
X97599000Y-81541000D02*
X97185000Y-81541000D01*
X97358000Y-81701000D02*
X95332000Y-81701000D01*
X95505000Y-81261000D02*
X94793000Y-81261000D01*
X95505000Y-80661000D02*
X94421000Y-80661000D01*
X95505000Y-80140000D02*
X94283000Y-80140000D01*
X97741000Y-81421000D02*
X97185000Y-81421000D01*
X97696000Y-81461000D02*
X97185000Y-81461000D01*
X98379000Y-80300000D02*
X97185000Y-80300000D01*
X95505000Y-81421000D02*
X94949000Y-81421000D01*
X95505000Y-80741000D02*
X94456000Y-80741000D01*
X95505000Y-80941000D02*
X94560000Y-80941000D01*
X95505000Y-80540000D02*
X94377000Y-80540000D01*
X95505000Y-81621000D02*
X95203000Y-81621000D01*
X98299000Y-80581000D02*
X97185000Y-80581000D01*
X97932000Y-81221000D02*
X97185000Y-81221000D01*
X98313000Y-80540000D02*
X97185000Y-80540000D01*
X95505000Y-80621000D02*
X94405000Y-80621000D01*
X95505000Y-80260000D02*
X94303000Y-80260000D01*
X98422000Y-79980000D02*
X94268000Y-79980000D01*
X97783000Y-81381000D02*
X97185000Y-81381000D01*
X95505000Y-81141000D02*
X94695000Y-81141000D01*
X98416000Y-80060000D02*
X97185000Y-80060000D01*
X95505000Y-81101000D02*
X94665000Y-81101000D01*
X97113000Y-81821000D02*
X95577000Y-81821000D01*
X97740000Y-77790199D02*
X97340000Y-77790199D01*
X97285000Y-81741000D02*
X95405000Y-81741000D01*
X95505000Y-80500000D02*
X94363000Y-80500000D01*
X95505000Y-81461000D02*
X94994000Y-81461000D01*
X98327000Y-80500000D02*
X97185000Y-80500000D01*
X95505000Y-81221000D02*
X94758000Y-81221000D01*
X95505000Y-81581000D02*
X95145000Y-81581000D01*
X95505000Y-80300000D02*
X94311000Y-80300000D01*
X97897000Y-81261000D02*
X97185000Y-81261000D01*
X97487000Y-81621000D02*
X97185000Y-81621000D01*
X98252000Y-80701000D02*
X97185000Y-80701000D01*
X95505000Y-80340000D02*
X94320000Y-80340000D01*
X97823000Y-81341000D02*
X97185000Y-81341000D01*
X95505000Y-80460000D02*
X94351000Y-80460000D01*
X98285000Y-80621000D02*
X97185000Y-80621000D01*
X98395000Y-80220000D02*
X97185000Y-80220000D01*
X97204000Y-81781000D02*
X95486000Y-81781000D01*
X95505000Y-81541000D02*
X95091000Y-81541000D01*
X95505000Y-80220000D02*
X94295000Y-80220000D01*
X98025000Y-81101000D02*
X97185000Y-81101000D01*
X98153000Y-80901000D02*
X97185000Y-80901000D01*
X97861000Y-81301000D02*
X97185000Y-81301000D01*
X95505000Y-80701000D02*
X94438000Y-80701000D01*
X98401000Y-80180000D02*
X97185000Y-80180000D01*
X97649000Y-81501000D02*
X97185000Y-81501000D01*
X97964000Y-81181000D02*
X97185000Y-81181000D01*
X98215000Y-80781000D02*
X97185000Y-80781000D01*
X98080000Y-81021000D02*
X97185000Y-81021000D01*
X98196000Y-80821000D02*
X97185000Y-80821000D01*
X98269000Y-80661000D02*
X97185000Y-80661000D01*
X98412000Y-80100000D02*
X97185000Y-80100000D01*
X97009000Y-81861000D02*
X95681000Y-81861000D01*
X95505000Y-81341000D02*
X94867000Y-81341000D01*
X95505000Y-80781000D02*
X94475000Y-80781000D01*
X95505000Y-80821000D02*
X94494000Y-80821000D01*
X95505000Y-81301000D02*
X94829000Y-81301000D01*
X98234000Y-80741000D02*
X97185000Y-80741000D01*
X98425000Y-79900000D02*
X94265000Y-79900000D01*
X97995000Y-81141000D02*
X97185000Y-81141000D01*
X98130000Y-80941000D02*
X97185000Y-80941000D01*
X98425000Y-79860000D02*
X94265000Y-79860000D01*
X96882000Y-81901000D02*
X95808000Y-81901000D01*
X95505000Y-80981000D02*
X94585000Y-80981000D01*
X95505000Y-81501000D02*
X95041000Y-81501000D01*
X95505000Y-80581000D02*
X94391000Y-80581000D01*
X97425000Y-81661000D02*
X97185000Y-81661000D01*
X95505000Y-80901000D02*
X94537000Y-80901000D01*
X97545000Y-81581000D02*
X97185000Y-81581000D01*
X95505000Y-80100000D02*
X94278000Y-80100000D01*
X96715000Y-81941000D02*
X95975000Y-81941000D01*
X95505000Y-80420000D02*
X94340000Y-80420000D01*
X95505000Y-80861000D02*
X94515000Y-80861000D01*
X97540000Y-77590199D02*
X97540000Y-77990199D01*
X98407000Y-80140000D02*
X97185000Y-80140000D01*
X95505000Y-80180000D02*
X94289000Y-80180000D01*
X98175000Y-80861000D02*
X97185000Y-80861000D01*
X98370000Y-80340000D02*
X97185000Y-80340000D01*
X95505000Y-81661000D02*
X95265000Y-81661000D01*
X95505000Y-81061000D02*
X94637000Y-81061000D01*
X98105000Y-80981000D02*
X97185000Y-80981000D01*
X95505000Y-81181000D02*
X94726000Y-81181000D01*
X98419000Y-80020000D02*
X94271000Y-80020000D01*
X95505000Y-80380000D02*
X94329000Y-80380000D01*
X98387000Y-80260000D02*
X97185000Y-80260000D01*
X98350000Y-80420000D02*
X97185000Y-80420000D01*
X98424000Y-79940000D02*
X94266000Y-79940000D01*
X98465000Y-79860000D02*
G75*
G03*
X98465000Y-79860000I-2120000J0D01*
G01*
%TO.C,U8*%
X243680000Y-97890000D02*
X233440000Y-97890000D01*
X243680000Y-99400000D02*
X233440000Y-99400000D01*
X233440000Y-99400000D02*
X233440000Y-94759000D01*
X240410000Y-99400000D02*
X240410000Y-97890000D01*
X243680000Y-99400000D02*
X243680000Y-94759000D01*
X243680000Y-94759000D02*
X233440000Y-94759000D01*
X236709000Y-99400000D02*
X236709000Y-97890000D01*
%TO.C,J8*%
X135750000Y-49570000D02*
X133090000Y-49570000D01*
X135750000Y-77570000D02*
X135750000Y-49570000D01*
X134420000Y-80170000D02*
X133090000Y-80170000D01*
X135750000Y-77570000D02*
X133090000Y-77570000D01*
X133090000Y-77570000D02*
X133090000Y-49570000D01*
X133090000Y-80170000D02*
X133090000Y-78840000D01*
%TO.C,R6*%
X90735000Y-93060000D02*
X90735000Y-92730000D01*
X84195000Y-92730000D02*
X84195000Y-93060000D01*
X84195000Y-95470000D02*
X84195000Y-95140000D01*
X90735000Y-92730000D02*
X84195000Y-92730000D01*
X90735000Y-95140000D02*
X90735000Y-95470000D01*
X90735000Y-95470000D02*
X84195000Y-95470000D01*
%TO.C,D1*%
X159415000Y-54510000D02*
X159415000Y-57450000D01*
X158395000Y-57120000D02*
X158395000Y-57450000D01*
X163835000Y-57450000D02*
X163835000Y-57120000D01*
X158395000Y-57450000D02*
X163835000Y-57450000D01*
X159295000Y-54510000D02*
X159295000Y-57450000D01*
X158395000Y-54840000D02*
X158395000Y-54510000D01*
X159175000Y-54510000D02*
X159175000Y-57450000D01*
X158395000Y-54510000D02*
X163835000Y-54510000D01*
X163835000Y-54510000D02*
X163835000Y-54840000D01*
%TO.C,R1*%
X101965000Y-26690000D02*
X108505000Y-26690000D01*
X101965000Y-29100000D02*
X101965000Y-29430000D01*
X101965000Y-27020000D02*
X101965000Y-26690000D01*
X108505000Y-26690000D02*
X108505000Y-27020000D01*
X108505000Y-29430000D02*
X108505000Y-29100000D01*
X101965000Y-29430000D02*
X108505000Y-29430000D01*
%TO.C,RV2*%
X177820000Y-85375000D02*
X187590000Y-85375000D01*
X187590000Y-85375000D02*
X187590000Y-90445000D01*
X177820000Y-85375000D02*
X177820000Y-90445000D01*
X177820000Y-90445000D02*
X187590000Y-90445000D01*
%TO.C,J1*%
X147820000Y-30980000D02*
X149860000Y-30980000D01*
X150910000Y-27090000D02*
X150910000Y-26490000D01*
X149860000Y-32510000D02*
X149860000Y-31510000D01*
X149860000Y-30980000D02*
X150110000Y-31510000D01*
X151490000Y-32510000D02*
X151490000Y-26490000D01*
X147570000Y-31510000D02*
X147820000Y-30980000D01*
X145900000Y-27520000D02*
X145900000Y-31520000D01*
X146190000Y-26490000D02*
X146190000Y-32510000D01*
X146770000Y-26490000D02*
X146770000Y-27090000D01*
X149310000Y-26490000D02*
X149310000Y-27090000D01*
X147820000Y-32510000D02*
X147820000Y-31510000D01*
X148370000Y-27090000D02*
X148370000Y-26490000D01*
X146770000Y-27090000D02*
X148370000Y-27090000D01*
X151490000Y-26490000D02*
X146190000Y-26490000D01*
X147570000Y-31510000D02*
X150110000Y-31510000D01*
X147570000Y-32510000D02*
X147570000Y-31510000D01*
X149310000Y-27090000D02*
X150910000Y-27090000D01*
X146190000Y-32510000D02*
X151490000Y-32510000D01*
X150110000Y-31510000D02*
X150110000Y-32510000D01*
%TO.C,C9*%
X114386000Y-67000000D02*
X114386000Y-67240000D01*
X113025000Y-64126000D02*
X113025000Y-65320000D01*
X113866000Y-67000000D02*
X113866000Y-67810000D01*
X112905000Y-67000000D02*
X112905000Y-68216000D01*
X113105000Y-64144000D02*
X113105000Y-65320000D01*
X113826000Y-67000000D02*
X113826000Y-67840000D01*
X113866000Y-64510000D02*
X113866000Y-65320000D01*
X114306000Y-64960000D02*
X114306000Y-65320000D01*
X113626000Y-67000000D02*
X113626000Y-67968000D01*
X110315199Y-64965000D02*
X110715199Y-64965000D01*
X114026000Y-67000000D02*
X114026000Y-67676000D01*
X113986000Y-64608000D02*
X113986000Y-65320000D01*
X113666000Y-67000000D02*
X113666000Y-67945000D01*
X114146000Y-67000000D02*
X114146000Y-67556000D01*
X112625000Y-64080000D02*
X112625000Y-68240000D01*
X114066000Y-67000000D02*
X114066000Y-67638000D01*
X113466000Y-64271000D02*
X113466000Y-65320000D01*
X113626000Y-64352000D02*
X113626000Y-65320000D01*
X113666000Y-64375000D02*
X113666000Y-65320000D01*
X113225000Y-64178000D02*
X113225000Y-65320000D01*
X114386000Y-65080000D02*
X114386000Y-65320000D01*
X110515199Y-64765000D02*
X110515199Y-65165000D01*
X114626000Y-65623000D02*
X114626000Y-66697000D01*
X113986000Y-67000000D02*
X113986000Y-67712000D01*
X114106000Y-67000000D02*
X114106000Y-67598000D01*
X112865000Y-67000000D02*
X112865000Y-68222000D01*
X114106000Y-64722000D02*
X114106000Y-65320000D01*
X112785000Y-67000000D02*
X112785000Y-68231000D01*
X114306000Y-67000000D02*
X114306000Y-67360000D01*
X114346000Y-67000000D02*
X114346000Y-67302000D01*
X113025000Y-67000000D02*
X113025000Y-68194000D01*
X112665000Y-64081000D02*
X112665000Y-68239000D01*
X113145000Y-64155000D02*
X113145000Y-65320000D01*
X113786000Y-67000000D02*
X113786000Y-67868000D01*
X113145000Y-67000000D02*
X113145000Y-68165000D01*
X114586000Y-65496000D02*
X114586000Y-66824000D01*
X113706000Y-64400000D02*
X113706000Y-65320000D01*
X113426000Y-67000000D02*
X113426000Y-68067000D01*
X114266000Y-64906000D02*
X114266000Y-65320000D01*
X114186000Y-67000000D02*
X114186000Y-67511000D01*
X113906000Y-64541000D02*
X113906000Y-65320000D01*
X114546000Y-65392000D02*
X114546000Y-66928000D01*
X113225000Y-67000000D02*
X113225000Y-68142000D01*
X112945000Y-67000000D02*
X112945000Y-68210000D01*
X113946000Y-67000000D02*
X113946000Y-67747000D01*
X113906000Y-67000000D02*
X113906000Y-67779000D01*
X112585000Y-64080000D02*
X112585000Y-68240000D01*
X113265000Y-64192000D02*
X113265000Y-65320000D01*
X112985000Y-64118000D02*
X112985000Y-65320000D01*
X113506000Y-64290000D02*
X113506000Y-65320000D01*
X114266000Y-67000000D02*
X114266000Y-67414000D01*
X113265000Y-67000000D02*
X113265000Y-68128000D01*
X113466000Y-67000000D02*
X113466000Y-68049000D01*
X112865000Y-64098000D02*
X112865000Y-65320000D01*
X114226000Y-67000000D02*
X114226000Y-67464000D01*
X113386000Y-64236000D02*
X113386000Y-65320000D01*
X113586000Y-67000000D02*
X113586000Y-67990000D01*
X113306000Y-67000000D02*
X113306000Y-68114000D01*
X113546000Y-67000000D02*
X113546000Y-68011000D01*
X114066000Y-64682000D02*
X114066000Y-65320000D01*
X113185000Y-64166000D02*
X113185000Y-65320000D01*
X114346000Y-65018000D02*
X114346000Y-65320000D01*
X114226000Y-64856000D02*
X114226000Y-65320000D01*
X113506000Y-67000000D02*
X113506000Y-68030000D01*
X114426000Y-65147000D02*
X114426000Y-67173000D01*
X112905000Y-64104000D02*
X112905000Y-65320000D01*
X113065000Y-64135000D02*
X113065000Y-65320000D01*
X113065000Y-67000000D02*
X113065000Y-68185000D01*
X113426000Y-64253000D02*
X113426000Y-65320000D01*
X113746000Y-67000000D02*
X113746000Y-67895000D01*
X114506000Y-65301000D02*
X114506000Y-67019000D01*
X114466000Y-65220000D02*
X114466000Y-67100000D01*
X113346000Y-67000000D02*
X113346000Y-68100000D01*
X113386000Y-67000000D02*
X113386000Y-68084000D01*
X114186000Y-64809000D02*
X114186000Y-65320000D01*
X113306000Y-64206000D02*
X113306000Y-65320000D01*
X113546000Y-64309000D02*
X113546000Y-65320000D01*
X112705000Y-64083000D02*
X112705000Y-68237000D01*
X114666000Y-65790000D02*
X114666000Y-66530000D01*
X112985000Y-67000000D02*
X112985000Y-68202000D01*
X113105000Y-67000000D02*
X113105000Y-68176000D01*
X113586000Y-64330000D02*
X113586000Y-65320000D01*
X113946000Y-64573000D02*
X113946000Y-65320000D01*
X113826000Y-64480000D02*
X113826000Y-65320000D01*
X112745000Y-64086000D02*
X112745000Y-68234000D01*
X112825000Y-67000000D02*
X112825000Y-68227000D01*
X113746000Y-64425000D02*
X113746000Y-65320000D01*
X112785000Y-64089000D02*
X112785000Y-65320000D01*
X113786000Y-64452000D02*
X113786000Y-65320000D01*
X112825000Y-64093000D02*
X112825000Y-65320000D01*
X113185000Y-67000000D02*
X113185000Y-68154000D01*
X114146000Y-64764000D02*
X114146000Y-65320000D01*
X114026000Y-64644000D02*
X114026000Y-65320000D01*
X112945000Y-64110000D02*
X112945000Y-65320000D01*
X113706000Y-67000000D02*
X113706000Y-67920000D01*
X113346000Y-64220000D02*
X113346000Y-65320000D01*
X114705000Y-66160000D02*
G75*
G03*
X114705000Y-66160000I-2120000J0D01*
G01*
%TO.C,C2*%
X121515000Y-39690000D02*
X116975000Y-39690000D01*
X121515000Y-39705000D02*
X121515000Y-39690000D01*
X116975000Y-39705000D02*
X116975000Y-39690000D01*
X116975000Y-41830000D02*
X116975000Y-41815000D01*
X121515000Y-41830000D02*
X116975000Y-41830000D01*
X121515000Y-41830000D02*
X121515000Y-41815000D01*
%TO.C,TR1*%
X171780000Y-47330000D02*
X171780000Y-49830000D01*
X191760000Y-30260000D02*
X167640000Y-30260000D01*
X171780000Y-37380000D02*
X171780000Y-39880000D01*
X171780000Y-56880000D02*
X171780000Y-57380000D01*
X188640000Y-57380000D02*
X188640000Y-56880000D01*
X188640000Y-34380000D02*
X170180000Y-34380000D01*
X171780000Y-42250000D02*
X171780000Y-44750000D01*
X167640000Y-61500000D02*
X167640000Y-30260000D01*
X188640000Y-54880000D02*
X188640000Y-51880000D01*
X171780000Y-51880000D02*
X171780000Y-54880000D01*
X170180000Y-57380000D02*
X188640000Y-57380000D01*
X188640000Y-49880000D02*
X188640000Y-46880000D01*
X188640000Y-44880000D02*
X188640000Y-41880000D01*
X191760000Y-30260000D02*
X191760000Y-61500000D01*
X188640000Y-39880000D02*
X188640000Y-36880000D01*
X167640000Y-61500000D02*
X191760000Y-61500000D01*
X188640000Y-34880000D02*
X188640000Y-34380000D01*
%TO.C,C5*%
X116975000Y-39290000D02*
X116975000Y-39275000D01*
X116975000Y-37165000D02*
X116975000Y-37150000D01*
X121515000Y-39290000D02*
X116975000Y-39290000D01*
X121515000Y-37150000D02*
X116975000Y-37150000D01*
X121515000Y-37165000D02*
X121515000Y-37150000D01*
X121515000Y-39290000D02*
X121515000Y-39275000D01*
%TO.C,R28*%
X221125000Y-82550000D02*
X221125000Y-82880000D01*
X227665000Y-84960000D02*
X227665000Y-85290000D01*
X227665000Y-82550000D02*
X221125000Y-82550000D01*
X227665000Y-85290000D02*
X221125000Y-85290000D01*
X227665000Y-82880000D02*
X227665000Y-82550000D01*
X221125000Y-85290000D02*
X221125000Y-84960000D01*
%TO.C,R32*%
X237230000Y-42640000D02*
X237230000Y-36100000D01*
X239970000Y-36100000D02*
X239640000Y-36100000D01*
X239970000Y-42640000D02*
X239970000Y-36100000D01*
X237560000Y-42640000D02*
X237230000Y-42640000D01*
X239640000Y-42640000D02*
X239970000Y-42640000D01*
X237230000Y-36100000D02*
X237560000Y-36100000D01*
%TO.C,C12*%
X205837000Y-48549000D02*
X207065000Y-48549000D01*
X206500000Y-47749000D02*
X207065000Y-47749000D01*
X209145000Y-48789000D02*
X210487000Y-48789000D01*
X205594000Y-49190000D02*
X207065000Y-49190000D01*
X205562000Y-49350000D02*
X207065000Y-49350000D01*
X209145000Y-48389000D02*
X210280000Y-48389000D01*
X205881000Y-48469000D02*
X207065000Y-48469000D01*
X205691000Y-48869000D02*
X207065000Y-48869000D01*
X209145000Y-47709000D02*
X209659000Y-47709000D01*
X209145000Y-48549000D02*
X210373000Y-48549000D01*
X206722000Y-47589000D02*
X207065000Y-47589000D01*
X205527000Y-49670000D02*
X210683000Y-49670000D01*
X205956000Y-48349000D02*
X207065000Y-48349000D01*
X209145000Y-48749000D02*
X210470000Y-48749000D01*
X209145000Y-49069000D02*
X210585000Y-49069000D01*
X209145000Y-48509000D02*
X210352000Y-48509000D01*
X206786000Y-47549000D02*
X207065000Y-47549000D01*
X206662000Y-47629000D02*
X207065000Y-47629000D01*
X209145000Y-48269000D02*
X210200000Y-48269000D01*
X206279000Y-47949000D02*
X207065000Y-47949000D01*
X205815000Y-48589000D02*
X207065000Y-48589000D01*
X205544000Y-49470000D02*
X207065000Y-49470000D01*
X206204000Y-48029000D02*
X207065000Y-48029000D01*
X209145000Y-49510000D02*
X210670000Y-49510000D01*
X209145000Y-49470000D02*
X210666000Y-49470000D01*
X205540000Y-49510000D02*
X207065000Y-49510000D01*
X209145000Y-49270000D02*
X210633000Y-49270000D01*
X209145000Y-48709000D02*
X210453000Y-48709000D01*
X209145000Y-48629000D02*
X210415000Y-48629000D01*
X206040000Y-48229000D02*
X207065000Y-48229000D01*
X206452000Y-47789000D02*
X207065000Y-47789000D01*
X206134000Y-48109000D02*
X207065000Y-48109000D01*
X205663000Y-48949000D02*
X207065000Y-48949000D01*
X205983000Y-48309000D02*
X207065000Y-48309000D01*
X207094000Y-47389000D02*
X209116000Y-47389000D01*
X209145000Y-49350000D02*
X210648000Y-49350000D01*
X209145000Y-48989000D02*
X210560000Y-48989000D01*
X209145000Y-49310000D02*
X210641000Y-49310000D01*
X205555000Y-49390000D02*
X207065000Y-49390000D01*
X205536000Y-49550000D02*
X207065000Y-49550000D01*
X205707000Y-48829000D02*
X207065000Y-48829000D01*
X206551000Y-47709000D02*
X207065000Y-47709000D01*
X209145000Y-48029000D02*
X210006000Y-48029000D01*
X209145000Y-47789000D02*
X209758000Y-47789000D01*
X209145000Y-49110000D02*
X210596000Y-49110000D01*
X205526000Y-49710000D02*
X210684000Y-49710000D01*
X209145000Y-48349000D02*
X210254000Y-48349000D01*
X205776000Y-48669000D02*
X207065000Y-48669000D01*
X206927000Y-47469000D02*
X209283000Y-47469000D01*
X209145000Y-47909000D02*
X209890000Y-47909000D01*
X209145000Y-47549000D02*
X209424000Y-47549000D01*
X207428000Y-47269000D02*
X208782000Y-47269000D01*
X207587000Y-47229000D02*
X208623000Y-47229000D01*
X206168000Y-48069000D02*
X207065000Y-48069000D01*
X207821000Y-47189000D02*
X208389000Y-47189000D01*
X205625000Y-49069000D02*
X207065000Y-49069000D01*
X205650000Y-48989000D02*
X207065000Y-48989000D01*
X209145000Y-47749000D02*
X209710000Y-47749000D01*
X205549000Y-49430000D02*
X207065000Y-49430000D01*
X206854000Y-47509000D02*
X207065000Y-47509000D01*
X209145000Y-49390000D02*
X210655000Y-49390000D01*
X209145000Y-48829000D02*
X210503000Y-48829000D01*
X209145000Y-49190000D02*
X210616000Y-49190000D01*
X207007000Y-47429000D02*
X209203000Y-47429000D01*
X206010000Y-48269000D02*
X207065000Y-48269000D01*
X205723000Y-48789000D02*
X207065000Y-48789000D01*
X209145000Y-48869000D02*
X210519000Y-48869000D01*
X205930000Y-48389000D02*
X207065000Y-48389000D01*
X209145000Y-48189000D02*
X210140000Y-48189000D01*
X209145000Y-47949000D02*
X209931000Y-47949000D01*
X209145000Y-47589000D02*
X209488000Y-47589000D01*
X209145000Y-48229000D02*
X210170000Y-48229000D01*
X205740000Y-48749000D02*
X207065000Y-48749000D01*
X209145000Y-48309000D02*
X210227000Y-48309000D01*
X205604000Y-49150000D02*
X207065000Y-49150000D01*
X209145000Y-48589000D02*
X210395000Y-48589000D01*
X205569000Y-49310000D02*
X207065000Y-49310000D01*
X209145000Y-47989000D02*
X209969000Y-47989000D01*
X209145000Y-48949000D02*
X210547000Y-48949000D01*
X207300000Y-47309000D02*
X208910000Y-47309000D01*
X206070000Y-48189000D02*
X207065000Y-48189000D01*
X205905000Y-48429000D02*
X207065000Y-48429000D01*
X206380000Y-52344775D02*
X206880000Y-52344775D01*
X209145000Y-48069000D02*
X210042000Y-48069000D01*
X205585000Y-49230000D02*
X207065000Y-49230000D01*
X206406000Y-47829000D02*
X207065000Y-47829000D01*
X206320000Y-47909000D02*
X207065000Y-47909000D01*
X206630000Y-52594775D02*
X206630000Y-52094775D01*
X205532000Y-49590000D02*
X210678000Y-49590000D01*
X206362000Y-47869000D02*
X207065000Y-47869000D01*
X209145000Y-47669000D02*
X209605000Y-47669000D01*
X209145000Y-49550000D02*
X210674000Y-49550000D01*
X205757000Y-48709000D02*
X207065000Y-48709000D01*
X209145000Y-49230000D02*
X210625000Y-49230000D01*
X207190000Y-47349000D02*
X209020000Y-47349000D01*
X206241000Y-47989000D02*
X207065000Y-47989000D01*
X209145000Y-47829000D02*
X209804000Y-47829000D01*
X206101000Y-48149000D02*
X207065000Y-48149000D01*
X205858000Y-48509000D02*
X207065000Y-48509000D01*
X209145000Y-48429000D02*
X210305000Y-48429000D01*
X209145000Y-49029000D02*
X210573000Y-49029000D01*
X209145000Y-48909000D02*
X210533000Y-48909000D01*
X209145000Y-48669000D02*
X210434000Y-48669000D01*
X209145000Y-48149000D02*
X210109000Y-48149000D01*
X205577000Y-49270000D02*
X207065000Y-49270000D01*
X205529000Y-49630000D02*
X210681000Y-49630000D01*
X209145000Y-47509000D02*
X209356000Y-47509000D01*
X205677000Y-48909000D02*
X207065000Y-48909000D01*
X205525000Y-49790000D02*
X210685000Y-49790000D01*
X205637000Y-49029000D02*
X207065000Y-49029000D01*
X209145000Y-49150000D02*
X210606000Y-49150000D01*
X205795000Y-48629000D02*
X207065000Y-48629000D01*
X209145000Y-49430000D02*
X210661000Y-49430000D01*
X206605000Y-47669000D02*
X207065000Y-47669000D01*
X205614000Y-49110000D02*
X207065000Y-49110000D01*
X209145000Y-47869000D02*
X209848000Y-47869000D01*
X209145000Y-47629000D02*
X209548000Y-47629000D01*
X209145000Y-48109000D02*
X210076000Y-48109000D01*
X209145000Y-48469000D02*
X210329000Y-48469000D01*
X205525000Y-49750000D02*
X210685000Y-49750000D01*
X210725000Y-49790000D02*
G75*
G03*
X210725000Y-49790000I-2620000J0D01*
G01*
%TO.C,C6*%
X109355000Y-72725000D02*
X109355000Y-72710000D01*
X113895000Y-72725000D02*
X113895000Y-72710000D01*
X109355000Y-74850000D02*
X109355000Y-74835000D01*
X113895000Y-74850000D02*
X109355000Y-74850000D01*
X113895000Y-74850000D02*
X113895000Y-74835000D01*
X113895000Y-72710000D02*
X109355000Y-72710000D01*
%TO.C,U5*%
X207416000Y-26550000D02*
X207416000Y-28060000D01*
X200445000Y-31191000D02*
X210685000Y-31191000D01*
X200445000Y-26550000D02*
X200445000Y-31191000D01*
X200445000Y-28060000D02*
X210685000Y-28060000D01*
X210685000Y-26550000D02*
X210685000Y-31191000D01*
X200445000Y-26550000D02*
X210685000Y-26550000D01*
X203715000Y-26550000D02*
X203715000Y-28060000D01*
%TO.C,R17*%
X90625000Y-41800000D02*
X90625000Y-42130000D01*
X90625000Y-39720000D02*
X90625000Y-39390000D01*
X90625000Y-39390000D02*
X84085000Y-39390000D01*
X84085000Y-42130000D02*
X84085000Y-41800000D01*
X84085000Y-39390000D02*
X84085000Y-39720000D01*
X90625000Y-42130000D02*
X84085000Y-42130000D01*
%TO.C,R21*%
X188935000Y-77670000D02*
X195475000Y-77670000D01*
X195475000Y-74930000D02*
X195475000Y-75260000D01*
X195475000Y-77670000D02*
X195475000Y-77340000D01*
X188935000Y-74930000D02*
X195475000Y-74930000D01*
X188935000Y-75260000D02*
X188935000Y-74930000D01*
X188935000Y-77340000D02*
X188935000Y-77670000D01*
%TO.C,RV5*%
X205345000Y-94090000D02*
X205345000Y-99160000D01*
X195575000Y-99160000D02*
X205345000Y-99160000D01*
X195575000Y-94090000D02*
X205345000Y-94090000D01*
X195575000Y-94090000D02*
X195575000Y-99160000D01*
%TO.C,J10*%
X229700000Y-31860000D02*
X247540000Y-31860000D01*
X227100000Y-29200000D02*
X228430000Y-29200000D01*
X227100000Y-30530000D02*
X227100000Y-29200000D01*
X247540000Y-31860000D02*
X247540000Y-29200000D01*
X229700000Y-31860000D02*
X229700000Y-29200000D01*
X229700000Y-29200000D02*
X247540000Y-29200000D01*
%TO.C,D7*%
X232010000Y-41410000D02*
X234950000Y-41410000D01*
X234950000Y-36750000D02*
X234620000Y-36750000D01*
X232010000Y-36750000D02*
X232340000Y-36750000D01*
X232010000Y-42190000D02*
X232010000Y-36750000D01*
X234950000Y-42190000D02*
X234950000Y-36750000D01*
X232010000Y-41170000D02*
X234950000Y-41170000D01*
X232340000Y-42190000D02*
X232010000Y-42190000D01*
X232010000Y-41290000D02*
X234950000Y-41290000D01*
X234620000Y-42190000D02*
X234950000Y-42190000D01*
%TO.C,TH2*%
X78445000Y-80000000D02*
X79775000Y-80000000D01*
X77115000Y-82600000D02*
X79775000Y-82600000D01*
X79775000Y-80000000D02*
X79775000Y-81330000D01*
X77115000Y-85200000D02*
X79775000Y-85200000D01*
X77115000Y-82600000D02*
X77115000Y-85200000D01*
X79775000Y-82600000D02*
X79775000Y-85200000D01*
%TO.C,R24*%
X169995000Y-69720000D02*
X169995000Y-70050000D01*
X169995000Y-67310000D02*
X163455000Y-67310000D01*
X163455000Y-67310000D02*
X163455000Y-67640000D01*
X163455000Y-70050000D02*
X163455000Y-69720000D01*
X169995000Y-70050000D02*
X163455000Y-70050000D01*
X169995000Y-67640000D02*
X169995000Y-67310000D01*
%TO.C,R5*%
X89265000Y-59910000D02*
X89265000Y-59580000D01*
X95805000Y-59580000D02*
X95805000Y-59910000D01*
X95805000Y-59910000D02*
X89265000Y-59910000D01*
X95805000Y-57170000D02*
X89265000Y-57170000D01*
X95805000Y-57500000D02*
X95805000Y-57170000D01*
X89265000Y-57170000D02*
X89265000Y-57500000D01*
%TO.C,U6*%
X209835000Y-64560000D02*
X208185000Y-64560000D01*
X204535000Y-74840000D02*
X209835000Y-74840000D01*
X209835000Y-74840000D02*
X209835000Y-64560000D01*
X206185000Y-64560000D02*
X204535000Y-64560000D01*
X204535000Y-64560000D02*
X204535000Y-74840000D01*
X206185000Y-64560000D02*
G75*
G03*
X208185000Y-64560000I1000000J0D01*
G01*
%TO.C,RV3*%
X177820000Y-94110000D02*
X187590000Y-94110000D01*
X177820000Y-99180000D02*
X187590000Y-99180000D01*
X187590000Y-94110000D02*
X187590000Y-99180000D01*
X177820000Y-94110000D02*
X177820000Y-99180000D01*
%TO.C,R35*%
X217200000Y-36200000D02*
X216870000Y-36200000D01*
X219610000Y-36200000D02*
X219610000Y-42740000D01*
X216870000Y-42740000D02*
X217200000Y-42740000D01*
X216870000Y-36200000D02*
X216870000Y-42740000D01*
X219280000Y-36200000D02*
X219610000Y-36200000D01*
X219610000Y-42740000D02*
X219280000Y-42740000D01*
%TO.C,R12*%
X142605000Y-42260000D02*
X142605000Y-41930000D01*
X149145000Y-44670000D02*
X149145000Y-44340000D01*
X142605000Y-44340000D02*
X142605000Y-44670000D01*
X142605000Y-41930000D02*
X149145000Y-41930000D01*
X149145000Y-41930000D02*
X149145000Y-42260000D01*
X142605000Y-44670000D02*
X149145000Y-44670000D01*
%TO.C,R4*%
X129905000Y-29100000D02*
X129905000Y-29430000D01*
X136445000Y-29430000D02*
X136445000Y-29100000D01*
X129905000Y-27020000D02*
X129905000Y-26690000D01*
X129905000Y-26690000D02*
X136445000Y-26690000D01*
X136445000Y-26690000D02*
X136445000Y-27020000D01*
X129905000Y-29430000D02*
X136445000Y-29430000D01*
%TO.C,D8*%
X226930000Y-41290000D02*
X229870000Y-41290000D01*
X226930000Y-42190000D02*
X226930000Y-36750000D01*
X226930000Y-41170000D02*
X229870000Y-41170000D01*
X229870000Y-36750000D02*
X229540000Y-36750000D01*
X226930000Y-41410000D02*
X229870000Y-41410000D01*
X227260000Y-42190000D02*
X226930000Y-42190000D01*
X226930000Y-36750000D02*
X227260000Y-36750000D01*
X229870000Y-42190000D02*
X229870000Y-36750000D01*
X229540000Y-42190000D02*
X229870000Y-42190000D01*
%TO.C,D4*%
X200665000Y-91430000D02*
X200665000Y-91760000D01*
X199885000Y-91760000D02*
X199885000Y-88820000D01*
X200665000Y-88820000D02*
X195225000Y-88820000D01*
X195225000Y-88820000D02*
X195225000Y-89150000D01*
X200665000Y-91760000D02*
X195225000Y-91760000D01*
X200665000Y-89150000D02*
X200665000Y-88820000D01*
X195225000Y-91760000D02*
X195225000Y-91430000D01*
X199645000Y-91760000D02*
X199645000Y-88820000D01*
X199765000Y-91760000D02*
X199765000Y-88820000D01*
%TO.C,R2*%
X107675000Y-40220000D02*
X108005000Y-40220000D01*
X107675000Y-33680000D02*
X107675000Y-40220000D01*
X110415000Y-40220000D02*
X110085000Y-40220000D01*
X110415000Y-33680000D02*
X110415000Y-40220000D01*
X108005000Y-33680000D02*
X107675000Y-33680000D01*
X110085000Y-33680000D02*
X110415000Y-33680000D01*
%TO.C,R31*%
X239955000Y-91000000D02*
X239955000Y-84460000D01*
X239625000Y-91000000D02*
X239955000Y-91000000D01*
X237545000Y-91000000D02*
X237215000Y-91000000D01*
X239955000Y-84460000D02*
X239625000Y-84460000D01*
X237215000Y-84460000D02*
X237545000Y-84460000D01*
X237215000Y-91000000D02*
X237215000Y-84460000D01*
%TO.C,U3*%
X101695000Y-54670000D02*
X100045000Y-54670000D01*
X105345000Y-75110000D02*
X105345000Y-54670000D01*
X100045000Y-75110000D02*
X105345000Y-75110000D01*
X100045000Y-54670000D02*
X100045000Y-75110000D01*
X105345000Y-54670000D02*
X103695000Y-54670000D01*
X101695000Y-54670000D02*
G75*
G03*
X103695000Y-54670000I1000000J0D01*
G01*
%TO.C,R23*%
X244800000Y-80590000D02*
X244470000Y-80590000D01*
X242060000Y-74050000D02*
X242060000Y-80590000D01*
X244800000Y-74050000D02*
X244800000Y-80590000D01*
X242390000Y-74050000D02*
X242060000Y-74050000D01*
X242060000Y-80590000D02*
X242390000Y-80590000D01*
X244470000Y-74050000D02*
X244800000Y-74050000D01*
%TO.C,U4*%
X182135000Y-77530000D02*
X182135000Y-72330000D01*
X176835000Y-77530000D02*
X178485000Y-77530000D01*
X182135000Y-72330000D02*
X176835000Y-72330000D01*
X176835000Y-72330000D02*
X176835000Y-77530000D01*
X180485000Y-77530000D02*
X182135000Y-77530000D01*
X180485000Y-77530000D02*
G75*
G03*
X178485000Y-77530000I-1000000J0D01*
G01*
%TO.C,R22*%
X214555000Y-83190000D02*
X211815000Y-83190000D01*
X211815000Y-89730000D02*
X214555000Y-89730000D01*
X213185000Y-82420000D02*
X213185000Y-83190000D01*
X214555000Y-89730000D02*
X214555000Y-83190000D01*
X211815000Y-83190000D02*
X211815000Y-89730000D01*
X213185000Y-90500000D02*
X213185000Y-89730000D01*
%TO.C,R11*%
X84195000Y-82570000D02*
X84195000Y-82900000D01*
X84195000Y-85310000D02*
X84195000Y-84980000D01*
X90735000Y-82570000D02*
X84195000Y-82570000D01*
X90735000Y-84980000D02*
X90735000Y-85310000D01*
X90735000Y-82900000D02*
X90735000Y-82570000D01*
X90735000Y-85310000D02*
X84195000Y-85310000D01*
%TO.C,R20*%
X84185000Y-36720000D02*
X84185000Y-37050000D01*
X90725000Y-34310000D02*
X90725000Y-34640000D01*
X84185000Y-34310000D02*
X90725000Y-34310000D01*
X84185000Y-34640000D02*
X84185000Y-34310000D01*
X84185000Y-37050000D02*
X90725000Y-37050000D01*
X90725000Y-37050000D02*
X90725000Y-36720000D01*
%TO.C,TH3*%
X77115000Y-72510000D02*
X77115000Y-75110000D01*
X77115000Y-75110000D02*
X79775000Y-75110000D01*
X79775000Y-72510000D02*
X79775000Y-75110000D01*
X78445000Y-69910000D02*
X79775000Y-69910000D01*
X77115000Y-72510000D02*
X79775000Y-72510000D01*
X79775000Y-69910000D02*
X79775000Y-71240000D01*
%TO.C,J2*%
X77260000Y-47170000D02*
X79920000Y-47170000D01*
X78590000Y-34350000D02*
X79920000Y-34350000D01*
X77260000Y-36950000D02*
X79920000Y-36950000D01*
X79920000Y-36950000D02*
X79920000Y-47170000D01*
X79920000Y-34350000D02*
X79920000Y-35680000D01*
X77260000Y-36950000D02*
X77260000Y-47170000D01*
%TO.C,U1*%
X144645000Y-97890000D02*
X134405000Y-97890000D01*
X134405000Y-99400000D02*
X134405000Y-94759000D01*
X137674000Y-99400000D02*
X137674000Y-97890000D01*
X141375000Y-99400000D02*
X141375000Y-97890000D01*
X144645000Y-99400000D02*
X144645000Y-94759000D01*
X144645000Y-94759000D02*
X134405000Y-94759000D01*
X144645000Y-99400000D02*
X134405000Y-99400000D01*
%TO.C,C13*%
X215675000Y-66730000D02*
X215675000Y-67884000D01*
X216676000Y-64539000D02*
X216676000Y-65050000D01*
X215956000Y-64001000D02*
X215956000Y-65050000D01*
X216476000Y-64338000D02*
X216476000Y-65050000D01*
X216276000Y-66730000D02*
X216276000Y-67598000D01*
X216716000Y-66730000D02*
X216716000Y-67194000D01*
X216156000Y-66730000D02*
X216156000Y-67675000D01*
X215395000Y-63834000D02*
X215395000Y-65050000D01*
X217036000Y-65122000D02*
X217036000Y-66658000D01*
X216756000Y-66730000D02*
X216756000Y-67144000D01*
X215675000Y-63896000D02*
X215675000Y-65050000D01*
X215315000Y-63823000D02*
X215315000Y-65050000D01*
X216196000Y-64130000D02*
X216196000Y-65050000D01*
X215755000Y-66730000D02*
X215755000Y-67858000D01*
X216436000Y-64303000D02*
X216436000Y-65050000D01*
X216356000Y-64240000D02*
X216356000Y-65050000D01*
X216556000Y-66730000D02*
X216556000Y-67368000D01*
X215435000Y-66730000D02*
X215435000Y-67940000D01*
X215435000Y-63840000D02*
X215435000Y-65050000D01*
X215996000Y-64020000D02*
X215996000Y-65050000D01*
X216276000Y-64182000D02*
X216276000Y-65050000D01*
X216076000Y-64060000D02*
X216076000Y-65050000D01*
X216236000Y-64155000D02*
X216236000Y-65050000D01*
X215475000Y-63848000D02*
X215475000Y-65050000D01*
X215595000Y-63874000D02*
X215595000Y-65050000D01*
X215555000Y-63865000D02*
X215555000Y-65050000D01*
X215635000Y-66730000D02*
X215635000Y-67895000D01*
X216316000Y-64210000D02*
X216316000Y-65050000D01*
X216036000Y-66730000D02*
X216036000Y-67741000D01*
X216236000Y-66730000D02*
X216236000Y-67625000D01*
X216676000Y-66730000D02*
X216676000Y-67241000D01*
X215515000Y-66730000D02*
X215515000Y-67924000D01*
X212805199Y-64695000D02*
X213205199Y-64695000D01*
X216916000Y-64877000D02*
X216916000Y-66903000D01*
X215235000Y-63816000D02*
X215235000Y-67964000D01*
X215155000Y-63811000D02*
X215155000Y-67969000D01*
X216836000Y-66730000D02*
X216836000Y-67032000D01*
X215796000Y-63936000D02*
X215796000Y-65050000D01*
X215275000Y-66730000D02*
X215275000Y-67961000D01*
X216716000Y-64586000D02*
X216716000Y-65050000D01*
X216956000Y-64950000D02*
X216956000Y-66830000D01*
X215836000Y-63950000D02*
X215836000Y-65050000D01*
X217116000Y-65353000D02*
X217116000Y-66427000D01*
X216796000Y-64690000D02*
X216796000Y-65050000D01*
X216116000Y-66730000D02*
X216116000Y-67698000D01*
X216356000Y-66730000D02*
X216356000Y-67540000D01*
X215876000Y-63966000D02*
X215876000Y-65050000D01*
X215555000Y-66730000D02*
X215555000Y-67915000D01*
X216596000Y-64452000D02*
X216596000Y-65050000D01*
X215075000Y-63810000D02*
X215075000Y-67970000D01*
X215916000Y-66730000D02*
X215916000Y-67797000D01*
X215996000Y-66730000D02*
X215996000Y-67760000D01*
X215475000Y-66730000D02*
X215475000Y-67932000D01*
X216836000Y-64748000D02*
X216836000Y-65050000D01*
X215355000Y-66730000D02*
X215355000Y-67952000D01*
X216396000Y-64271000D02*
X216396000Y-65050000D01*
X216556000Y-64412000D02*
X216556000Y-65050000D01*
X215195000Y-63813000D02*
X215195000Y-67967000D01*
X215876000Y-66730000D02*
X215876000Y-67814000D01*
X215275000Y-63819000D02*
X215275000Y-65050000D01*
X215715000Y-66730000D02*
X215715000Y-67872000D01*
X215836000Y-66730000D02*
X215836000Y-67830000D01*
X216476000Y-66730000D02*
X216476000Y-67442000D01*
X215715000Y-63908000D02*
X215715000Y-65050000D01*
X215796000Y-66730000D02*
X215796000Y-67844000D01*
X216596000Y-66730000D02*
X216596000Y-67328000D01*
X216756000Y-64636000D02*
X216756000Y-65050000D01*
X215395000Y-66730000D02*
X215395000Y-67946000D01*
X217156000Y-65520000D02*
X217156000Y-66260000D01*
X216876000Y-66730000D02*
X216876000Y-66970000D01*
X213005199Y-64495000D02*
X213005199Y-64895000D01*
X216636000Y-64494000D02*
X216636000Y-65050000D01*
X216076000Y-66730000D02*
X216076000Y-67720000D01*
X216156000Y-64105000D02*
X216156000Y-65050000D01*
X216036000Y-64039000D02*
X216036000Y-65050000D01*
X216516000Y-64374000D02*
X216516000Y-65050000D01*
X216116000Y-64082000D02*
X216116000Y-65050000D01*
X215115000Y-63810000D02*
X215115000Y-67970000D01*
X216796000Y-66730000D02*
X216796000Y-67090000D01*
X215315000Y-66730000D02*
X215315000Y-67957000D01*
X216516000Y-66730000D02*
X216516000Y-67406000D01*
X215956000Y-66730000D02*
X215956000Y-67779000D01*
X216196000Y-66730000D02*
X216196000Y-67650000D01*
X216396000Y-66730000D02*
X216396000Y-67509000D01*
X215595000Y-66730000D02*
X215595000Y-67906000D01*
X217076000Y-65226000D02*
X217076000Y-66554000D01*
X216636000Y-66730000D02*
X216636000Y-67286000D01*
X216316000Y-66730000D02*
X216316000Y-67570000D01*
X215916000Y-63983000D02*
X215916000Y-65050000D01*
X215355000Y-63828000D02*
X215355000Y-65050000D01*
X216876000Y-64810000D02*
X216876000Y-65050000D01*
X215515000Y-63856000D02*
X215515000Y-65050000D01*
X215635000Y-63885000D02*
X215635000Y-65050000D01*
X216996000Y-65031000D02*
X216996000Y-66749000D01*
X216436000Y-66730000D02*
X216436000Y-67477000D01*
X215755000Y-63922000D02*
X215755000Y-65050000D01*
X217195000Y-65890000D02*
G75*
G03*
X217195000Y-65890000I-2120000J0D01*
G01*
%TO.C,J4*%
X117789966Y-93850000D02*
X112489966Y-93850000D01*
X113069966Y-99270000D02*
X113069966Y-99870000D01*
X113869966Y-94850000D02*
X113869966Y-93850000D01*
X116159966Y-95380000D02*
X114119966Y-95380000D01*
X115609966Y-99270000D02*
X115609966Y-99870000D01*
X114669966Y-99870000D02*
X114669966Y-99270000D01*
X117789966Y-99870000D02*
X117789966Y-93850000D01*
X114119966Y-93850000D02*
X114119966Y-94850000D01*
X117209966Y-99870000D02*
X117209966Y-99270000D01*
X116409966Y-93850000D02*
X116409966Y-94850000D01*
X116409966Y-94850000D02*
X116159966Y-95380000D01*
X112489966Y-99870000D02*
X117789966Y-99870000D01*
X116409966Y-94850000D02*
X113869966Y-94850000D01*
X114119966Y-95380000D02*
X113869966Y-94850000D01*
X117209966Y-99270000D02*
X115609966Y-99270000D01*
X116159966Y-93850000D02*
X116159966Y-94850000D01*
X112489966Y-93850000D02*
X112489966Y-99870000D01*
X114669966Y-99270000D02*
X113069966Y-99270000D01*
X118079966Y-98840000D02*
X118079966Y-94840000D01*
%TO.C,R19*%
X102155000Y-49750000D02*
X95615000Y-49750000D01*
X102155000Y-47340000D02*
X102155000Y-47010000D01*
X102155000Y-49420000D02*
X102155000Y-49750000D01*
X102155000Y-47010000D02*
X95615000Y-47010000D01*
X95615000Y-49750000D02*
X95615000Y-49420000D01*
X95615000Y-47010000D02*
X95615000Y-47340000D01*
%TO.C,RV4*%
X142250000Y-63815000D02*
X142250000Y-73585000D01*
X147320000Y-73585000D02*
X142250000Y-73585000D01*
X147320000Y-63815000D02*
X147320000Y-73585000D01*
X147320000Y-63815000D02*
X142250000Y-63815000D01*
%TO.C,C8*%
X113815000Y-57470000D02*
X113815000Y-57485000D01*
X113815000Y-59595000D02*
X113815000Y-59610000D01*
X109275000Y-57470000D02*
X113815000Y-57470000D01*
X109275000Y-59595000D02*
X109275000Y-59610000D01*
X109275000Y-57470000D02*
X109275000Y-57485000D01*
X109275000Y-59610000D02*
X113815000Y-59610000D01*
%TO.C,R34*%
X245010000Y-42740000D02*
X244680000Y-42740000D01*
X244680000Y-36200000D02*
X245010000Y-36200000D01*
X242600000Y-36200000D02*
X242270000Y-36200000D01*
X245010000Y-36200000D02*
X245010000Y-42740000D01*
X242270000Y-42740000D02*
X242600000Y-42740000D01*
X242270000Y-36200000D02*
X242270000Y-42740000D01*
%TO.C,C11*%
X209145000Y-36009000D02*
X210503000Y-36009000D01*
X207821000Y-34369000D02*
X208389000Y-34369000D01*
X205776000Y-35849000D02*
X207065000Y-35849000D01*
X206854000Y-34689000D02*
X207065000Y-34689000D01*
X205837000Y-35729000D02*
X207065000Y-35729000D01*
X205691000Y-36049000D02*
X207065000Y-36049000D01*
X205549000Y-36610000D02*
X207065000Y-36610000D01*
X207428000Y-34449000D02*
X208782000Y-34449000D01*
X209145000Y-35489000D02*
X210227000Y-35489000D01*
X209145000Y-35049000D02*
X209848000Y-35049000D01*
X209145000Y-35249000D02*
X210042000Y-35249000D01*
X205650000Y-36169000D02*
X207065000Y-36169000D01*
X206010000Y-35449000D02*
X207065000Y-35449000D01*
X205637000Y-36209000D02*
X207065000Y-36209000D01*
X207587000Y-34409000D02*
X208623000Y-34409000D01*
X205562000Y-36530000D02*
X207065000Y-36530000D01*
X205956000Y-35529000D02*
X207065000Y-35529000D01*
X205532000Y-36770000D02*
X210678000Y-36770000D01*
X205555000Y-36570000D02*
X207065000Y-36570000D01*
X206279000Y-35129000D02*
X207065000Y-35129000D01*
X209145000Y-35009000D02*
X209804000Y-35009000D01*
X209145000Y-35289000D02*
X210076000Y-35289000D01*
X205614000Y-36290000D02*
X207065000Y-36290000D01*
X205529000Y-36810000D02*
X210681000Y-36810000D01*
X209145000Y-36530000D02*
X210648000Y-36530000D01*
X209145000Y-36690000D02*
X210670000Y-36690000D01*
X209145000Y-36490000D02*
X210641000Y-36490000D01*
X209145000Y-36410000D02*
X210625000Y-36410000D01*
X206605000Y-34849000D02*
X207065000Y-34849000D01*
X209145000Y-36089000D02*
X210533000Y-36089000D01*
X209145000Y-36209000D02*
X210573000Y-36209000D01*
X209145000Y-35649000D02*
X210329000Y-35649000D01*
X206204000Y-35209000D02*
X207065000Y-35209000D01*
X205604000Y-36330000D02*
X207065000Y-36330000D01*
X209145000Y-35609000D02*
X210305000Y-35609000D01*
X205983000Y-35489000D02*
X207065000Y-35489000D01*
X205625000Y-36249000D02*
X207065000Y-36249000D01*
X209145000Y-34809000D02*
X209548000Y-34809000D01*
X205569000Y-36490000D02*
X207065000Y-36490000D01*
X205525000Y-36930000D02*
X210685000Y-36930000D01*
X209145000Y-35729000D02*
X210373000Y-35729000D01*
X206630000Y-39774775D02*
X206630000Y-39274775D01*
X205663000Y-36129000D02*
X207065000Y-36129000D01*
X207190000Y-34529000D02*
X209020000Y-34529000D01*
X209145000Y-35409000D02*
X210170000Y-35409000D01*
X209145000Y-35889000D02*
X210453000Y-35889000D01*
X209145000Y-36330000D02*
X210606000Y-36330000D01*
X205594000Y-36370000D02*
X207065000Y-36370000D01*
X206134000Y-35289000D02*
X207065000Y-35289000D01*
X206320000Y-35089000D02*
X207065000Y-35089000D01*
X205526000Y-36890000D02*
X210684000Y-36890000D01*
X205757000Y-35889000D02*
X207065000Y-35889000D01*
X209145000Y-35689000D02*
X210352000Y-35689000D01*
X206500000Y-34929000D02*
X207065000Y-34929000D01*
X209145000Y-35089000D02*
X209890000Y-35089000D01*
X206101000Y-35329000D02*
X207065000Y-35329000D01*
X209145000Y-36450000D02*
X210633000Y-36450000D01*
X209145000Y-34969000D02*
X209758000Y-34969000D01*
X206406000Y-35009000D02*
X207065000Y-35009000D01*
X209145000Y-35169000D02*
X209969000Y-35169000D01*
X209145000Y-36610000D02*
X210661000Y-36610000D01*
X209145000Y-36249000D02*
X210585000Y-36249000D01*
X206168000Y-35249000D02*
X207065000Y-35249000D01*
X206040000Y-35409000D02*
X207065000Y-35409000D01*
X205858000Y-35689000D02*
X207065000Y-35689000D01*
X209145000Y-35809000D02*
X210415000Y-35809000D01*
X209145000Y-34689000D02*
X209356000Y-34689000D01*
X209145000Y-36570000D02*
X210655000Y-36570000D01*
X206452000Y-34969000D02*
X207065000Y-34969000D01*
X205540000Y-36690000D02*
X207065000Y-36690000D01*
X209145000Y-35529000D02*
X210254000Y-35529000D01*
X205707000Y-36009000D02*
X207065000Y-36009000D01*
X207300000Y-34489000D02*
X208910000Y-34489000D01*
X205815000Y-35769000D02*
X207065000Y-35769000D01*
X209145000Y-36730000D02*
X210674000Y-36730000D01*
X205740000Y-35929000D02*
X207065000Y-35929000D01*
X209145000Y-35449000D02*
X210200000Y-35449000D01*
X209145000Y-35329000D02*
X210109000Y-35329000D01*
X207094000Y-34569000D02*
X209116000Y-34569000D01*
X205577000Y-36450000D02*
X207065000Y-36450000D01*
X206662000Y-34809000D02*
X207065000Y-34809000D01*
X209145000Y-35849000D02*
X210434000Y-35849000D01*
X206380000Y-39524775D02*
X206880000Y-39524775D01*
X206551000Y-34889000D02*
X207065000Y-34889000D01*
X209145000Y-34769000D02*
X209488000Y-34769000D01*
X209145000Y-35369000D02*
X210140000Y-35369000D01*
X205536000Y-36730000D02*
X207065000Y-36730000D01*
X209145000Y-35209000D02*
X210006000Y-35209000D01*
X205677000Y-36089000D02*
X207065000Y-36089000D01*
X206362000Y-35049000D02*
X207065000Y-35049000D01*
X206070000Y-35369000D02*
X207065000Y-35369000D01*
X205544000Y-36650000D02*
X207065000Y-36650000D01*
X209145000Y-34889000D02*
X209659000Y-34889000D01*
X209145000Y-34929000D02*
X209710000Y-34929000D01*
X209145000Y-36650000D02*
X210666000Y-36650000D01*
X209145000Y-35569000D02*
X210280000Y-35569000D01*
X205905000Y-35609000D02*
X207065000Y-35609000D01*
X205585000Y-36410000D02*
X207065000Y-36410000D01*
X209145000Y-36049000D02*
X210519000Y-36049000D01*
X209145000Y-35129000D02*
X209931000Y-35129000D01*
X209145000Y-36290000D02*
X210596000Y-36290000D01*
X205527000Y-36850000D02*
X210683000Y-36850000D01*
X209145000Y-34849000D02*
X209605000Y-34849000D01*
X209145000Y-36370000D02*
X210616000Y-36370000D01*
X206786000Y-34729000D02*
X207065000Y-34729000D01*
X209145000Y-34729000D02*
X209424000Y-34729000D01*
X205881000Y-35649000D02*
X207065000Y-35649000D01*
X209145000Y-35969000D02*
X210487000Y-35969000D01*
X209145000Y-36129000D02*
X210547000Y-36129000D01*
X206927000Y-34649000D02*
X209283000Y-34649000D01*
X209145000Y-35929000D02*
X210470000Y-35929000D01*
X205723000Y-35969000D02*
X207065000Y-35969000D01*
X205930000Y-35569000D02*
X207065000Y-35569000D01*
X207007000Y-34609000D02*
X209203000Y-34609000D01*
X206722000Y-34769000D02*
X207065000Y-34769000D01*
X206241000Y-35169000D02*
X207065000Y-35169000D01*
X209145000Y-36169000D02*
X210560000Y-36169000D01*
X205795000Y-35809000D02*
X207065000Y-35809000D01*
X209145000Y-35769000D02*
X210395000Y-35769000D01*
X205525000Y-36970000D02*
X210685000Y-36970000D01*
X210725000Y-36970000D02*
G75*
G03*
X210725000Y-36970000I-2620000J0D01*
G01*
%TO.C,J3*%
X149655000Y-96615000D02*
X149655000Y-95285000D01*
X152255000Y-95285000D02*
X175175000Y-95285000D01*
X152255000Y-97945000D02*
X175175000Y-97945000D01*
X152255000Y-97945000D02*
X152255000Y-95285000D01*
X149655000Y-95285000D02*
X150985000Y-95285000D01*
X175175000Y-97945000D02*
X175175000Y-95285000D01*
%TO.C,Q2*%
X131945000Y-99400000D02*
X131945000Y-94759000D01*
X131945000Y-94759000D02*
X121705000Y-94759000D01*
X121705000Y-99400000D02*
X121705000Y-94759000D01*
X128675000Y-99400000D02*
X128675000Y-97890000D01*
X131945000Y-97890000D02*
X121705000Y-97890000D01*
X131945000Y-99400000D02*
X121705000Y-99400000D01*
X124974000Y-99400000D02*
X124974000Y-97890000D01*
%TO.C,RV1*%
X83645000Y-65965000D02*
X83645000Y-56195000D01*
X78575000Y-65965000D02*
X83645000Y-65965000D01*
X78575000Y-56195000D02*
X83645000Y-56195000D01*
X78575000Y-65965000D02*
X78575000Y-56195000D01*
%TO.C,R3*%
X117205000Y-29430000D02*
X123745000Y-29430000D01*
X117205000Y-26690000D02*
X123745000Y-26690000D01*
X117205000Y-27020000D02*
X117205000Y-26690000D01*
X123745000Y-29430000D02*
X123745000Y-29100000D01*
X123745000Y-26690000D02*
X123745000Y-27020000D01*
X117205000Y-29100000D02*
X117205000Y-29430000D01*
%TO.C,RV6*%
X208275000Y-99160000D02*
X218045000Y-99160000D01*
X208275000Y-94090000D02*
X218045000Y-94090000D01*
X208275000Y-94090000D02*
X208275000Y-99160000D01*
X218045000Y-94090000D02*
X218045000Y-99160000D01*
%TO.C,R16*%
X95615000Y-41930000D02*
X95615000Y-42260000D01*
X102155000Y-41930000D02*
X95615000Y-41930000D01*
X102155000Y-44670000D02*
X95615000Y-44670000D01*
X95615000Y-44670000D02*
X95615000Y-44340000D01*
X102155000Y-42260000D02*
X102155000Y-41930000D01*
X102155000Y-44340000D02*
X102155000Y-44670000D01*
%TO.C,D5*%
X234550000Y-53055000D02*
X234550000Y-47615000D01*
X237160000Y-53055000D02*
X237490000Y-53055000D01*
X234550000Y-52035000D02*
X237490000Y-52035000D01*
X237490000Y-47615000D02*
X237160000Y-47615000D01*
X234550000Y-47615000D02*
X234880000Y-47615000D01*
X237490000Y-53055000D02*
X237490000Y-47615000D01*
X234550000Y-52275000D02*
X237490000Y-52275000D01*
X234880000Y-53055000D02*
X234550000Y-53055000D01*
X234550000Y-52155000D02*
X237490000Y-52155000D01*
%TO.C,R27*%
X226900000Y-53705000D02*
X227230000Y-53705000D01*
X224490000Y-53705000D02*
X224490000Y-47165000D01*
X224820000Y-53705000D02*
X224490000Y-53705000D01*
X224490000Y-47165000D02*
X224820000Y-47165000D01*
X227230000Y-47165000D02*
X226900000Y-47165000D01*
X227230000Y-53705000D02*
X227230000Y-47165000D01*
%TO.C,U2*%
X133285000Y-31810000D02*
X131635000Y-31810000D01*
X127985000Y-31810000D02*
X127985000Y-42090000D01*
X129635000Y-31810000D02*
X127985000Y-31810000D01*
X133285000Y-42090000D02*
X133285000Y-31810000D01*
X127985000Y-42090000D02*
X133285000Y-42090000D01*
X129635000Y-31810000D02*
G75*
G03*
X131635000Y-31810000I1000000J0D01*
G01*
%TO.C,C10*%
X156105000Y-48281554D02*
X156465000Y-48281554D01*
X155867000Y-48481554D02*
X156465000Y-48481554D01*
X155243000Y-49722554D02*
X156465000Y-49722554D01*
X156001000Y-48361554D02*
X156465000Y-48361554D01*
X155497000Y-48961554D02*
X156465000Y-48961554D01*
X155323000Y-49362554D02*
X156465000Y-49362554D01*
X155597000Y-48801554D02*
X156465000Y-48801554D01*
X158145000Y-49522554D02*
X159330000Y-49522554D01*
X156110000Y-52272355D02*
X156110000Y-51872355D01*
X158145000Y-48921554D02*
X159090000Y-48921554D01*
X158145000Y-49281554D02*
X159259000Y-49281554D01*
X158145000Y-49161554D02*
X159212000Y-49161554D01*
X155300000Y-49442554D02*
X156465000Y-49442554D01*
X156365000Y-48121554D02*
X158245000Y-48121554D01*
X158145000Y-49562554D02*
X159339000Y-49562554D01*
X155225000Y-50002554D02*
X159385000Y-50002554D01*
X155263000Y-49602554D02*
X156465000Y-49602554D01*
X158145000Y-48401554D02*
X158656000Y-48401554D01*
X158145000Y-48241554D02*
X158447000Y-48241554D01*
X158145000Y-48841554D02*
X159040000Y-48841554D01*
X155545000Y-48881554D02*
X156465000Y-48881554D01*
X158145000Y-49201554D02*
X159229000Y-49201554D01*
X155234000Y-49802554D02*
X156465000Y-49802554D01*
X156292000Y-48161554D02*
X158318000Y-48161554D01*
X155416000Y-49121554D02*
X156465000Y-49121554D01*
X158145000Y-48481554D02*
X158743000Y-48481554D01*
X156225000Y-48201554D02*
X156465000Y-48201554D01*
X155271000Y-49562554D02*
X156465000Y-49562554D01*
X155238000Y-49762554D02*
X156465000Y-49762554D01*
X155289000Y-49482554D02*
X156465000Y-49482554D01*
X158145000Y-49482554D02*
X159321000Y-49482554D01*
X156641000Y-48001554D02*
X157969000Y-48001554D01*
X158145000Y-48761554D02*
X158985000Y-48761554D01*
X158145000Y-49322554D02*
X159273000Y-49322554D01*
X158145000Y-49001554D02*
X159135000Y-49001554D01*
X156446000Y-48081554D02*
X158164000Y-48081554D01*
X155435000Y-49081554D02*
X156465000Y-49081554D01*
X155365000Y-49241554D02*
X156465000Y-49241554D01*
X158145000Y-48601554D02*
X158857000Y-48601554D01*
X158145000Y-48441554D02*
X158701000Y-48441554D01*
X155625000Y-48761554D02*
X156465000Y-48761554D01*
X158145000Y-49402554D02*
X159299000Y-49402554D01*
X158145000Y-49642554D02*
X159355000Y-49642554D01*
X158145000Y-48321554D02*
X158559000Y-48321554D01*
X158145000Y-49602554D02*
X159347000Y-49602554D01*
X155475000Y-49001554D02*
X156465000Y-49001554D01*
X158145000Y-49682554D02*
X159361000Y-49682554D01*
X155381000Y-49201554D02*
X156465000Y-49201554D01*
X155909000Y-48441554D02*
X156465000Y-48441554D01*
X155910000Y-52072355D02*
X156310000Y-52072355D01*
X158145000Y-48361554D02*
X158609000Y-48361554D01*
X155226000Y-49922554D02*
X159384000Y-49922554D01*
X158145000Y-48801554D02*
X159013000Y-48801554D01*
X155686000Y-48681554D02*
X156465000Y-48681554D01*
X158145000Y-49802554D02*
X159376000Y-49802554D01*
X155520000Y-48921554D02*
X156465000Y-48921554D01*
X158145000Y-49081554D02*
X159175000Y-49081554D01*
X155398000Y-49161554D02*
X156465000Y-49161554D01*
X158145000Y-48201554D02*
X158385000Y-48201554D01*
X155225000Y-49962554D02*
X159385000Y-49962554D01*
X155337000Y-49322554D02*
X156465000Y-49322554D01*
X158145000Y-48881554D02*
X159065000Y-48881554D01*
X158145000Y-48281554D02*
X158505000Y-48281554D01*
X156163000Y-48241554D02*
X156465000Y-48241554D01*
X155570000Y-48841554D02*
X156465000Y-48841554D01*
X156768000Y-47961554D02*
X157842000Y-47961554D01*
X158145000Y-48681554D02*
X158924000Y-48681554D01*
X155351000Y-49281554D02*
X156465000Y-49281554D01*
X155249000Y-49682554D02*
X156465000Y-49682554D01*
X155655000Y-48721554D02*
X156465000Y-48721554D01*
X158145000Y-49121554D02*
X159194000Y-49121554D01*
X158145000Y-49442554D02*
X159310000Y-49442554D01*
X155280000Y-49522554D02*
X156465000Y-49522554D01*
X156051000Y-48321554D02*
X156465000Y-48321554D01*
X158145000Y-49362554D02*
X159287000Y-49362554D01*
X158145000Y-48641554D02*
X158892000Y-48641554D01*
X155255000Y-49642554D02*
X156465000Y-49642554D01*
X158145000Y-48561554D02*
X158821000Y-48561554D01*
X155789000Y-48561554D02*
X156465000Y-48561554D01*
X155753000Y-48601554D02*
X156465000Y-48601554D01*
X155454000Y-49041554D02*
X156465000Y-49041554D01*
X158145000Y-48961554D02*
X159113000Y-48961554D01*
X155718000Y-48641554D02*
X156465000Y-48641554D01*
X155827000Y-48521554D02*
X156465000Y-48521554D01*
X155228000Y-49882554D02*
X159382000Y-49882554D01*
X156537000Y-48041554D02*
X158073000Y-48041554D01*
X158145000Y-49241554D02*
X159245000Y-49241554D01*
X158145000Y-49722554D02*
X159367000Y-49722554D01*
X155231000Y-49842554D02*
X159379000Y-49842554D01*
X158145000Y-48721554D02*
X158955000Y-48721554D01*
X156935000Y-47921554D02*
X157675000Y-47921554D01*
X158145000Y-49041554D02*
X159156000Y-49041554D01*
X158145000Y-49762554D02*
X159372000Y-49762554D01*
X155311000Y-49402554D02*
X156465000Y-49402554D01*
X158145000Y-48521554D02*
X158783000Y-48521554D01*
X155954000Y-48401554D02*
X156465000Y-48401554D01*
X159425000Y-50002554D02*
G75*
G03*
X159425000Y-50002554I-2120000J0D01*
G01*
%TO.C,J5*%
X213056965Y-26822500D02*
X213056965Y-29482500D01*
X215656965Y-26822500D02*
X213056965Y-26822500D01*
X218256965Y-28152500D02*
X218256965Y-29482500D01*
X215656965Y-29482500D02*
X213056965Y-29482500D01*
X218256965Y-29482500D02*
X216926965Y-29482500D01*
X215656965Y-26822500D02*
X215656965Y-29482500D01*
%TO.C,R7*%
X90725000Y-47210000D02*
X90725000Y-46880000D01*
X84185000Y-44800000D02*
X84185000Y-44470000D01*
X90725000Y-44470000D02*
X90725000Y-44800000D01*
X84185000Y-44470000D02*
X90725000Y-44470000D01*
X84185000Y-47210000D02*
X90725000Y-47210000D01*
X84185000Y-46880000D02*
X84185000Y-47210000D01*
%TO.C,R9*%
X90735000Y-90390000D02*
X84195000Y-90390000D01*
X90735000Y-87980000D02*
X90735000Y-87650000D01*
X84195000Y-90390000D02*
X84195000Y-90060000D01*
X84195000Y-87650000D02*
X84195000Y-87980000D01*
X90735000Y-90060000D02*
X90735000Y-90390000D01*
X90735000Y-87650000D02*
X84195000Y-87650000D01*
%TO.C,Q4*%
X230980000Y-94759000D02*
X220740000Y-94759000D01*
X227710000Y-99400000D02*
X227710000Y-97890000D01*
X230980000Y-97890000D02*
X220740000Y-97890000D01*
X220740000Y-99400000D02*
X220740000Y-94759000D01*
X230980000Y-99400000D02*
X230980000Y-94759000D01*
X224009000Y-99400000D02*
X224009000Y-97890000D01*
X230980000Y-99400000D02*
X220740000Y-99400000D01*
%TO.C,R29*%
X246130000Y-47165000D02*
X246460000Y-47165000D01*
X244050000Y-47165000D02*
X243720000Y-47165000D01*
X243720000Y-53705000D02*
X244050000Y-53705000D01*
X243720000Y-47165000D02*
X243720000Y-53705000D01*
X246460000Y-53705000D02*
X246130000Y-53705000D01*
X246460000Y-47165000D02*
X246460000Y-53705000D01*
%TO.C,R30*%
X216910000Y-47165000D02*
X216910000Y-53705000D01*
X217240000Y-47165000D02*
X216910000Y-47165000D01*
X219650000Y-47165000D02*
X219650000Y-53705000D01*
X216910000Y-53705000D02*
X217240000Y-53705000D01*
X219320000Y-47165000D02*
X219650000Y-47165000D01*
X219650000Y-53705000D02*
X219320000Y-53705000D01*
%TO.C,C1*%
X103444500Y-96849000D02*
X104802500Y-96849000D01*
X103978500Y-96009000D02*
X104802500Y-96009000D01*
X103262500Y-97770000D02*
X108422500Y-97770000D01*
X103277500Y-97530000D02*
X104802500Y-97530000D01*
X106882500Y-95809000D02*
X107495500Y-95809000D01*
X106882500Y-95969000D02*
X107668500Y-95969000D01*
X104927500Y-95369000D02*
X106757500Y-95369000D01*
X106882500Y-95729000D02*
X107396500Y-95729000D01*
X106882500Y-96729000D02*
X108190500Y-96729000D01*
X103299500Y-97370000D02*
X104802500Y-97370000D01*
X106882500Y-96489000D02*
X108066500Y-96489000D01*
X104664500Y-95489000D02*
X107020500Y-95489000D01*
X106882500Y-97570000D02*
X108411500Y-97570000D01*
X106882500Y-97370000D02*
X108385500Y-97370000D01*
X106882500Y-97089000D02*
X108322500Y-97089000D01*
X103292500Y-97410000D02*
X104802500Y-97410000D01*
X103322500Y-97250000D02*
X104802500Y-97250000D01*
X106882500Y-96529000D02*
X108089500Y-96529000D01*
X106882500Y-95649000D02*
X107285500Y-95649000D01*
X106882500Y-96049000D02*
X107743500Y-96049000D01*
X103262500Y-97810000D02*
X108422500Y-97810000D01*
X104057500Y-95929000D02*
X104802500Y-95929000D01*
X106882500Y-95569000D02*
X107161500Y-95569000D01*
X103351500Y-97130000D02*
X104802500Y-97130000D01*
X106882500Y-95929000D02*
X107627500Y-95929000D01*
X103747500Y-96289000D02*
X104802500Y-96289000D01*
X106882500Y-96889000D02*
X108256500Y-96889000D01*
X103387500Y-97009000D02*
X104802500Y-97009000D01*
X103273500Y-97570000D02*
X104802500Y-97570000D01*
X106882500Y-96289000D02*
X107937500Y-96289000D01*
X106882500Y-97330000D02*
X108378500Y-97330000D01*
X106882500Y-96969000D02*
X108284500Y-96969000D01*
X103905500Y-96089000D02*
X104802500Y-96089000D01*
X106882500Y-96569000D02*
X108110500Y-96569000D01*
X103341500Y-97170000D02*
X104802500Y-97170000D01*
X106882500Y-97009000D02*
X108297500Y-97009000D01*
X104367500Y-100614775D02*
X104367500Y-100114775D01*
X103667500Y-96409000D02*
X104802500Y-96409000D01*
X106882500Y-97450000D02*
X108398500Y-97450000D01*
X103618500Y-96489000D02*
X104802500Y-96489000D01*
X106882500Y-96809000D02*
X108224500Y-96809000D01*
X106882500Y-97049000D02*
X108310500Y-97049000D01*
X104459500Y-95609000D02*
X104802500Y-95609000D01*
X106882500Y-95689000D02*
X107342500Y-95689000D01*
X104016500Y-95969000D02*
X104802500Y-95969000D01*
X103807500Y-96209000D02*
X104802500Y-96209000D01*
X103552500Y-96609000D02*
X104802500Y-96609000D01*
X103532500Y-96649000D02*
X104802500Y-96649000D01*
X103269500Y-97610000D02*
X108415500Y-97610000D01*
X103494500Y-96729000D02*
X104802500Y-96729000D01*
X103460500Y-96809000D02*
X104802500Y-96809000D01*
X103264500Y-97690000D02*
X108420500Y-97690000D01*
X106882500Y-96409000D02*
X108017500Y-96409000D01*
X104189500Y-95809000D02*
X104802500Y-95809000D01*
X106882500Y-97410000D02*
X108392500Y-97410000D01*
X103400500Y-96969000D02*
X104802500Y-96969000D01*
X103574500Y-96569000D02*
X104802500Y-96569000D01*
X104237500Y-95769000D02*
X104802500Y-95769000D01*
X106882500Y-96209000D02*
X107877500Y-96209000D01*
X106882500Y-97250000D02*
X108362500Y-97250000D01*
X104591500Y-95529000D02*
X104802500Y-95529000D01*
X106882500Y-96329000D02*
X107964500Y-96329000D01*
X103595500Y-96529000D02*
X104802500Y-96529000D01*
X103331500Y-97210000D02*
X104802500Y-97210000D01*
X103513500Y-96689000D02*
X104802500Y-96689000D01*
X106882500Y-96009000D02*
X107706500Y-96009000D01*
X106882500Y-96649000D02*
X108152500Y-96649000D01*
X103428500Y-96889000D02*
X104802500Y-96889000D01*
X106882500Y-97130000D02*
X108333500Y-97130000D01*
X106882500Y-96249000D02*
X107907500Y-96249000D01*
X103838500Y-96169000D02*
X104802500Y-96169000D01*
X104399500Y-95649000D02*
X104802500Y-95649000D01*
X103281500Y-97490000D02*
X104802500Y-97490000D01*
X106882500Y-97290000D02*
X108370500Y-97290000D01*
X106882500Y-96609000D02*
X108132500Y-96609000D01*
X106882500Y-96689000D02*
X108171500Y-96689000D01*
X106882500Y-96129000D02*
X107813500Y-96129000D01*
X106882500Y-96849000D02*
X108240500Y-96849000D01*
X106882500Y-96449000D02*
X108042500Y-96449000D01*
X106882500Y-95769000D02*
X107447500Y-95769000D01*
X103266500Y-97650000D02*
X108418500Y-97650000D01*
X103642500Y-96449000D02*
X104802500Y-96449000D01*
X106882500Y-97530000D02*
X108407500Y-97530000D01*
X103693500Y-96369000D02*
X104802500Y-96369000D01*
X103306500Y-97330000D02*
X104802500Y-97330000D01*
X104117500Y-100364775D02*
X104617500Y-100364775D01*
X103314500Y-97290000D02*
X104802500Y-97290000D01*
X105037500Y-95329000D02*
X106647500Y-95329000D01*
X106882500Y-97490000D02*
X108403500Y-97490000D01*
X103263500Y-97730000D02*
X108421500Y-97730000D01*
X104831500Y-95409000D02*
X106853500Y-95409000D01*
X104099500Y-95889000D02*
X104802500Y-95889000D01*
X105324500Y-95249000D02*
X106360500Y-95249000D01*
X104143500Y-95849000D02*
X104802500Y-95849000D01*
X106882500Y-96929000D02*
X108270500Y-96929000D01*
X106882500Y-96089000D02*
X107779500Y-96089000D01*
X106882500Y-96169000D02*
X107846500Y-96169000D01*
X103374500Y-97049000D02*
X104802500Y-97049000D01*
X104744500Y-95449000D02*
X106940500Y-95449000D01*
X106882500Y-97210000D02*
X108353500Y-97210000D01*
X106882500Y-95529000D02*
X107093500Y-95529000D01*
X104523500Y-95569000D02*
X104802500Y-95569000D01*
X103477500Y-96769000D02*
X104802500Y-96769000D01*
X106882500Y-95609000D02*
X107225500Y-95609000D01*
X103286500Y-97450000D02*
X104802500Y-97450000D01*
X103362500Y-97089000D02*
X104802500Y-97089000D01*
X106882500Y-97170000D02*
X108343500Y-97170000D01*
X106882500Y-95849000D02*
X107541500Y-95849000D01*
X103871500Y-96129000D02*
X104802500Y-96129000D01*
X105165500Y-95289000D02*
X106519500Y-95289000D01*
X106882500Y-96369000D02*
X107991500Y-96369000D01*
X106882500Y-96769000D02*
X108207500Y-96769000D01*
X103941500Y-96049000D02*
X104802500Y-96049000D01*
X103414500Y-96929000D02*
X104802500Y-96929000D01*
X106882500Y-95889000D02*
X107585500Y-95889000D01*
X105558500Y-95209000D02*
X106126500Y-95209000D01*
X103777500Y-96249000D02*
X104802500Y-96249000D01*
X104288500Y-95729000D02*
X104802500Y-95729000D01*
X103720500Y-96329000D02*
X104802500Y-96329000D01*
X104342500Y-95689000D02*
X104802500Y-95689000D01*
X108462500Y-97810000D02*
G75*
G03*
X108462500Y-97810000I-2620000J0D01*
G01*
%TO.C,D3*%
X201935000Y-57450000D02*
X196495000Y-57450000D01*
X196495000Y-57450000D02*
X196495000Y-57120000D01*
X201935000Y-54840000D02*
X201935000Y-54510000D01*
X201035000Y-57450000D02*
X201035000Y-54510000D01*
X201935000Y-57120000D02*
X201935000Y-57450000D01*
X200915000Y-57450000D02*
X200915000Y-54510000D01*
X201155000Y-57450000D02*
X201155000Y-54510000D01*
X196495000Y-54510000D02*
X196495000Y-54840000D01*
X201935000Y-54510000D02*
X196495000Y-54510000D01*
%TO.C,D6*%
X229470000Y-52035000D02*
X232410000Y-52035000D01*
X232410000Y-47615000D02*
X232080000Y-47615000D01*
X229470000Y-52155000D02*
X232410000Y-52155000D01*
X229800000Y-53055000D02*
X229470000Y-53055000D01*
X232410000Y-53055000D02*
X232410000Y-47615000D01*
X232080000Y-53055000D02*
X232410000Y-53055000D01*
X229470000Y-52275000D02*
X232410000Y-52275000D01*
X229470000Y-53055000D02*
X229470000Y-47615000D01*
X229470000Y-47615000D02*
X229800000Y-47615000D01*
%TO.C,R18*%
X128445000Y-84720000D02*
X128115000Y-84720000D01*
X130525000Y-84720000D02*
X130855000Y-84720000D01*
X128115000Y-78180000D02*
X128445000Y-78180000D01*
X130855000Y-78180000D02*
X130525000Y-78180000D01*
X130855000Y-84720000D02*
X130855000Y-78180000D01*
X128115000Y-84720000D02*
X128115000Y-78180000D01*
%TO.C,D2*%
X201155000Y-42210000D02*
X201155000Y-39270000D01*
X201935000Y-41880000D02*
X201935000Y-42210000D01*
X196495000Y-39270000D02*
X196495000Y-39600000D01*
X201035000Y-42210000D02*
X201035000Y-39270000D01*
X201935000Y-39600000D02*
X201935000Y-39270000D01*
X201935000Y-39270000D02*
X196495000Y-39270000D01*
X201935000Y-42210000D02*
X196495000Y-42210000D01*
X196495000Y-42210000D02*
X196495000Y-41880000D01*
X200915000Y-42210000D02*
X200915000Y-39270000D01*
%TD*%
M02*
