M48
; DRILL file {KiCad 6.0.11+dfsg-1} date jue 13 jul 2023 18:49:29
; FORMAT={-:-/ absolute / inch / decimal}
; #@! TF.CreationDate,2023-07-13T18:49:29+02:00
; #@! TF.GenerationSoftware,Kicad,Pcbnew,6.0.11+dfsg-1
; #@! TF.FileFunction,Plated,1,2,PTH
FMAT,2
INCH
; #@! TA.AperFunction,Plated,PTH,ViaDrill
T1C0.0157
; #@! TA.AperFunction,Plated,PTH,ComponentDrill
T2C0.0236
; #@! TA.AperFunction,Plated,PTH,ComponentDrill
T3C0.0295
; #@! TA.AperFunction,Plated,PTH,ComponentDrill
T4C0.0315
; #@! TA.AperFunction,Plated,PTH,ComponentDrill
T5C0.0354
; #@! TA.AperFunction,Plated,PTH,ComponentDrill
T6C0.0394
; #@! TA.AperFunction,Plated,PTH,ComponentDrill
T7C0.0433
; #@! TA.AperFunction,Plated,PTH,ComponentDrill
T8C0.0469
%
G90
G05
T1
X4.2597Y-2.2
X5.0Y-3.5
X5.1Y-1.9
X5.7Y-2.3
X5.7Y-3.0
T2
X3.7931Y-3.1047
X3.7931Y-3.1835
X4.3931Y-2.6047
X4.4719Y-2.6047
X6.1931Y-1.9292
X6.1931Y-2.008
X8.4281Y-2.5941
X8.5069Y-2.5941
T3
X9.1431Y-3.3039
X9.1931Y-3.3039
X9.2431Y-3.3039
T4
X3.1931Y-2.3047
X3.1931Y-2.4047
X3.1931Y-2.5047
X3.2892Y-1.6047
X3.2931Y-1.4047
X3.2931Y-1.8047
X3.2931Y-2.0047
X3.2935Y-3.3047
X3.2935Y-3.5047
X3.2935Y-3.7047
X3.4844Y-2.8047
X3.4931Y-2.3047
X3.5892Y-1.6047
X3.5931Y-1.4047
X3.5931Y-1.8047
X3.5931Y-2.0047
X3.5935Y-3.3047
X3.5935Y-3.5047
X3.5935Y-3.7047
X3.5963Y-2.6039
X3.7431Y-1.7047
X3.7431Y-1.9047
X3.7844Y-2.8047
X3.7931Y-2.3047
X3.7931Y-2.6039
X3.8931Y-2.2047
X3.8931Y-2.3047
X3.8931Y-2.4047
X3.8931Y-2.5047
X3.8931Y-2.6047
X3.8931Y-2.7047
X3.8931Y-2.8047
X3.8931Y-2.9047
X3.9931Y-1.1047
X4.0431Y-1.7047
X4.0431Y-1.9047
X4.167Y-3.8016
X4.167Y-3.9
X4.1931Y-2.2047
X4.1931Y-2.3047
X4.1931Y-2.4047
X4.1931Y-2.5047
X4.1931Y-2.6047
X4.1931Y-2.7047
X4.1931Y-2.8047
X4.1931Y-2.9047
X4.2931Y-1.1047
X4.2931Y-1.3047
X4.2931Y-1.6047
X4.2931Y-2.3047
X4.2963Y-2.9047
X4.49Y-2.3047
X4.4931Y-2.9047
X4.5931Y-1.1047
X4.5963Y-1.3047
X4.5963Y-1.5047
X4.5963Y-1.6047
X4.7931Y-1.3047
X4.7931Y-1.5047
X4.7931Y-1.6047
X4.8931Y-1.1047
X4.9931Y-1.3047
X4.9931Y-1.4047
X4.9931Y-1.5047
X4.9931Y-1.6047
X5.0931Y-1.1047
X5.0978Y-3.0567
X5.0978Y-3.3567
X5.2931Y-1.3047
X5.2931Y-1.4047
X5.2931Y-1.5047
X5.2931Y-1.6047
X5.3931Y-1.1047
X5.5931Y-1.7047
X5.7004Y-2.6047
X5.7004Y-2.7047
X5.7004Y-2.8047
X5.7537Y-1.5047
X5.8931Y-1.7047
X5.8931Y-1.9047
X5.8931Y-2.5047
X6.0537Y-1.5047
X6.1931Y-2.5047
X6.1931Y-2.8047
X6.414Y-2.7039
X6.714Y-2.7039
X6.9163Y-2.9
X6.9163Y-3.0
X6.9171Y-2.6039
X6.9171Y-2.7039
X7.0931Y-3.4608
X7.0931Y-3.8047
X7.1931Y-3.4608
X7.1931Y-3.8047
X7.2163Y-2.9
X7.2163Y-3.0
X7.2171Y-2.6039
X7.2171Y-2.7039
X7.2931Y-3.4608
X7.2931Y-3.8047
X7.4171Y-2.6039
X7.4171Y-3.0039
X7.7171Y-2.6039
X7.7171Y-3.0039
X7.7921Y-3.8039
X7.8921Y-3.8039
X7.9921Y-3.8039
X8.0069Y-2.5941
X8.0069Y-2.6941
X8.0069Y-2.7941
X8.0069Y-2.8941
X8.1931Y-1.4063
X8.1931Y-1.5047
X8.1931Y-1.911
X8.1931Y-2.0094
X8.2921Y-3.8039
X8.3069Y-2.5941
X8.3069Y-2.6941
X8.3069Y-2.7941
X8.3069Y-2.8941
X8.3921Y-3.8039
X8.3931Y-3.2039
X8.3931Y-3.6039
X8.4921Y-3.8039
X8.5921Y-1.4039
X8.5921Y-1.7039
X8.5937Y-1.8356
X8.5937Y-2.1356
X8.6844Y-3.3039
X8.7921Y-1.4039
X8.7921Y-1.7039
X8.8921Y-1.8356
X8.8921Y-2.1356
X8.9844Y-3.3039
X9.3931Y-3.3039
X9.3931Y-3.6039
X9.3937Y-1.4
X9.3937Y-1.7
X9.4921Y-1.8356
X9.4921Y-2.1356
X9.5839Y-2.8941
X9.5839Y-3.1941
X9.5921Y-1.4039
X9.5921Y-1.7039
X9.6492Y-1.8356
X9.6492Y-2.1356
T5
X6.1931Y-2.2039
X6.4931Y-2.2039
X6.8Y-1.4126
X6.8Y-1.6094
X6.8Y-1.8126
X6.8Y-2.0031
X6.8Y-2.2
X7.3874Y-1.4126
X7.3874Y-1.6094
X7.3874Y-2.0031
X7.3874Y-2.2
X7.6431Y-3.5547
X7.6931Y-1.6039
X7.6931Y-2.2039
X7.9431Y-3.5547
X7.9931Y-1.6039
X7.9931Y-2.2039
X8.9921Y-1.4039
X8.9921Y-1.7039
X9.0921Y-1.8317
X9.0921Y-2.1317
X9.1921Y-1.4039
X9.1921Y-1.7039
X9.2921Y-1.8317
X9.2921Y-2.1317
T6
X3.0884Y-2.8047
X3.0884Y-2.9047
X3.0884Y-3.202
X3.0884Y-3.302
X3.0884Y-3.6047
X3.0884Y-3.7047
X3.0941Y-1.4047
X3.0941Y-1.5047
X3.0941Y-1.6047
X3.0941Y-1.7047
X3.0941Y-1.8047
X4.6806Y-2.0024
X4.6806Y-2.1024
X4.6806Y-2.2024
X4.6806Y-2.3024
X4.6806Y-2.4024
X4.6806Y-2.5024
X4.6806Y-2.6024
X4.6806Y-2.7024
X4.6806Y-2.8024
X4.6806Y-2.9024
X4.6806Y-3.0024
X4.6806Y-3.1024
X5.2921Y-2.0039
X5.2921Y-2.1039
X5.2921Y-2.2039
X5.2921Y-2.3039
X5.2921Y-2.4039
X5.2921Y-2.5039
X5.2921Y-2.6039
X5.2921Y-2.7039
X5.2921Y-2.8039
X5.2921Y-2.9039
X5.2921Y-3.0039
X5.2921Y-3.1039
X5.9443Y-3.8037
X6.0443Y-3.8037
X6.1443Y-3.8037
X6.2443Y-3.8037
X6.3443Y-3.8037
X6.4443Y-3.8037
X6.5443Y-3.8037
X6.6443Y-3.8037
X6.7443Y-3.8037
X6.8443Y-3.8037
X8.4404Y-1.1084
X8.5404Y-1.1084
X8.9933Y-1.202
X9.0933Y-1.202
X9.1933Y-1.202
X9.2933Y-1.202
X9.3933Y-1.202
X9.4933Y-1.202
X9.5933Y-1.202
X9.6933Y-1.202
X9.7931Y-1.7047
X9.7931Y-1.8047
X9.7931Y-1.9047
X9.7931Y-2.0047
X9.7931Y-2.1047
X9.7931Y-2.2047
X9.7931Y-2.3047
X9.7931Y-2.4047
X9.7931Y-2.5047
X9.7931Y-2.6047
X9.7931Y-2.7047
X9.7931Y-2.8047
X9.7931Y-2.9047
X9.7931Y-3.0047
X9.7931Y-3.1047
X9.7931Y-3.2047
X9.7931Y-3.3047
T7
X4.8931Y-3.7846
X4.9931Y-3.7846
X5.0931Y-3.7846
X5.3931Y-3.7846
X5.4931Y-3.7846
X5.5931Y-3.7846
X7.9931Y-1.174
X8.0931Y-1.174
X8.1931Y-1.174
X8.7921Y-3.7846
X8.8921Y-3.7846
X8.9921Y-3.7846
X9.2921Y-3.7846
X9.3921Y-3.7846
X9.4921Y-3.7846
T8
X4.4831Y-3.8126
X4.5831Y-3.8126
X5.8098Y-1.1622
X5.9098Y-1.1622
T0
M30
