%TF.GenerationSoftware,KiCad,Pcbnew,6.0.11+dfsg-1*%
%TF.CreationDate,2023-07-13T18:49:34+02:00*%
%TF.ProjectId,inversor,696e7665-7273-46f7-922e-6b696361645f,rev?*%
%TF.SameCoordinates,Original*%
%TF.FileFunction,Soldermask,Top*%
%TF.FilePolarity,Negative*%
%FSLAX46Y46*%
G04 Gerber Fmt 4.6, Leading zero omitted, Abs format (unit mm)*
G04 Created by KiCad (PCBNEW 6.0.11+dfsg-1) date 2023-07-13 18:49:34*
%MOMM*%
%LPD*%
G01*
G04 APERTURE LIST*
G04 Aperture macros list*
%AMRoundRect*
0 Rectangle with rounded corners*
0 $1 Rounding radius*
0 $2 $3 $4 $5 $6 $7 $8 $9 X,Y pos of 4 corners*
0 Add a 4 corners polygon primitive as box body*
4,1,4,$2,$3,$4,$5,$6,$7,$8,$9,$2,$3,0*
0 Add four circle primitives for the rounded corners*
1,1,$1+$1,$2,$3*
1,1,$1+$1,$4,$5*
1,1,$1+$1,$6,$7*
1,1,$1+$1,$8,$9*
0 Add four rect primitives between the rounded corners*
20,1,$1+$1,$2,$3,$4,$5,0*
20,1,$1+$1,$4,$5,$6,$7,0*
20,1,$1+$1,$6,$7,$8,$9,0*
20,1,$1+$1,$8,$9,$2,$3,0*%
G04 Aperture macros list end*
%ADD10C,1.600000*%
%ADD11O,1.600000X1.600000*%
%ADD12R,1.600000X1.600000*%
%ADD13R,2.200000X1.200000*%
%ADD14R,6.400000X5.800000*%
%ADD15R,1.700000X1.700000*%
%ADD16O,1.700000X1.700000*%
%ADD17R,1.050000X1.500000*%
%ADD18O,1.050000X1.500000*%
%ADD19R,1.200000X1.200000*%
%ADD20C,1.200000*%
%ADD21R,1.905000X2.000000*%
%ADD22O,1.905000X2.000000*%
%ADD23R,1.800000X1.800000*%
%ADD24O,1.800000X1.800000*%
%ADD25C,1.440000*%
%ADD26RoundRect,0.250000X-0.620000X-0.845000X0.620000X-0.845000X0.620000X0.845000X-0.620000X0.845000X0*%
%ADD27O,1.740000X2.190000*%
%ADD28C,2.000000*%
%ADD29R,2.000000X2.000000*%
%ADD30RoundRect,0.250000X0.620000X0.845000X-0.620000X0.845000X-0.620000X-0.845000X0.620000X-0.845000X0*%
G04 APERTURE END LIST*
D10*
%TO.C,R33*%
X223320000Y-43280000D03*
D11*
X223320000Y-35660000D03*
%TD*%
D12*
%TO.C,U7*%
X175695000Y-66140000D03*
D11*
X175695000Y-68680000D03*
X183315000Y-68680000D03*
X183315000Y-66140000D03*
%TD*%
D10*
%TO.C,R26*%
X241100000Y-54245000D03*
D11*
X241100000Y-46625000D03*
%TD*%
D10*
%TO.C,C4*%
X96345000Y-66140000D03*
X91345000Y-66140000D03*
%TD*%
D13*
%TO.C,Q1*%
X157185000Y-38460000D03*
X157185000Y-40740000D03*
D14*
X163485000Y-40740000D03*
D13*
X157185000Y-43020000D03*
%TD*%
D15*
%TO.C,TH1*%
X78445000Y-91560000D03*
D16*
X78445000Y-94100000D03*
%TD*%
D10*
%TO.C,R14*%
X149685000Y-48380000D03*
D11*
X149685000Y-63620000D03*
%TD*%
D17*
%TO.C,Q3*%
X232235000Y-83920000D03*
D18*
X233505000Y-83920000D03*
X234775000Y-83920000D03*
%TD*%
D10*
%TO.C,R25*%
X196015000Y-66140000D03*
D11*
X188395000Y-66140000D03*
%TD*%
D10*
%TO.C,R10*%
X96125000Y-71240000D03*
D11*
X88505000Y-71240000D03*
%TD*%
D10*
%TO.C,C3*%
X116745000Y-33140000D03*
X121745000Y-33140000D03*
%TD*%
%TO.C,R15*%
X157305000Y-71240000D03*
D11*
X157305000Y-63620000D03*
%TD*%
D15*
%TO.C,J9*%
X248745000Y-43300000D03*
D16*
X248745000Y-45840000D03*
X248745000Y-48380000D03*
X248745000Y-50920000D03*
X248745000Y-53460000D03*
X248745000Y-56000000D03*
X248745000Y-58540000D03*
X248745000Y-61080000D03*
X248745000Y-63620000D03*
X248745000Y-66160000D03*
X248745000Y-68700000D03*
X248745000Y-71240000D03*
X248745000Y-73780000D03*
X248745000Y-76320000D03*
X248745000Y-78860000D03*
X248745000Y-81400000D03*
X248745000Y-83940000D03*
%TD*%
D15*
%TO.C,J6*%
X118887500Y-50860000D03*
D16*
X118887500Y-53400000D03*
X118887500Y-55940000D03*
X118887500Y-58480000D03*
X118887500Y-61020000D03*
X118887500Y-63560000D03*
X118887500Y-66100000D03*
X118887500Y-68640000D03*
X118887500Y-71180000D03*
X118887500Y-73720000D03*
X118887500Y-76260000D03*
X118887500Y-78800000D03*
%TD*%
D10*
%TO.C,R13*%
X146145000Y-38220000D03*
D11*
X153765000Y-38220000D03*
%TD*%
D10*
%TO.C,R8*%
X83645000Y-50920000D03*
D11*
X91265000Y-50920000D03*
%TD*%
D19*
%TO.C,C7*%
X96345000Y-78860000D03*
D20*
X96345000Y-80860000D03*
%TD*%
D21*
%TO.C,U8*%
X241100000Y-96130000D03*
D22*
X238560000Y-96130000D03*
X236020000Y-96130000D03*
%TD*%
D15*
%TO.C,J8*%
X134420000Y-78840000D03*
D16*
X134420000Y-76300000D03*
X134420000Y-73760000D03*
X134420000Y-71220000D03*
X134420000Y-68680000D03*
X134420000Y-66140000D03*
X134420000Y-63600000D03*
X134420000Y-61060000D03*
X134420000Y-58520000D03*
X134420000Y-55980000D03*
X134420000Y-53440000D03*
X134420000Y-50900000D03*
%TD*%
D10*
%TO.C,R6*%
X91275000Y-94100000D03*
D11*
X83655000Y-94100000D03*
%TD*%
D23*
%TO.C,D1*%
X157305000Y-55980000D03*
D24*
X164925000Y-55980000D03*
%TD*%
D10*
%TO.C,R1*%
X101425000Y-28060000D03*
D11*
X109045000Y-28060000D03*
%TD*%
D25*
%TO.C,RV2*%
X185245000Y-87905000D03*
X182705000Y-87905000D03*
X180165000Y-87905000D03*
%TD*%
D26*
%TO.C,J1*%
X147570000Y-29520000D03*
D27*
X150110000Y-29520000D03*
%TD*%
D19*
%TO.C,C9*%
X111585000Y-66160000D03*
D20*
X113585000Y-66160000D03*
%TD*%
D10*
%TO.C,C2*%
X121745000Y-40760000D03*
X116745000Y-40760000D03*
%TD*%
D28*
%TO.C,TR1*%
X172720000Y-46040000D03*
D29*
X172720000Y-35880000D03*
D28*
X172720000Y-40880000D03*
X172720000Y-50880000D03*
X172720000Y-55880000D03*
X187640000Y-55880000D03*
X187640000Y-50880000D03*
X187640000Y-40880000D03*
X187640000Y-35880000D03*
%TD*%
D10*
%TO.C,C5*%
X121745000Y-38220000D03*
X116745000Y-38220000D03*
%TD*%
%TO.C,R28*%
X228205000Y-83920000D03*
D11*
X220585000Y-83920000D03*
%TD*%
D10*
%TO.C,R32*%
X238600000Y-43180000D03*
D11*
X238600000Y-35560000D03*
%TD*%
D12*
%TO.C,C12*%
X208105000Y-51040000D03*
D10*
X208105000Y-48540000D03*
%TD*%
%TO.C,C6*%
X114125000Y-73780000D03*
X109125000Y-73780000D03*
%TD*%
D21*
%TO.C,U5*%
X203025000Y-29820000D03*
D22*
X205565000Y-29820000D03*
X208105000Y-29820000D03*
%TD*%
D10*
%TO.C,R17*%
X91165000Y-40760000D03*
D11*
X83545000Y-40760000D03*
%TD*%
D10*
%TO.C,R21*%
X188395000Y-76300000D03*
D11*
X196015000Y-76300000D03*
%TD*%
D25*
%TO.C,RV5*%
X203000000Y-96620000D03*
X200460000Y-96620000D03*
X197920000Y-96620000D03*
%TD*%
D15*
%TO.C,J10*%
X228430000Y-30530000D03*
D16*
X230970000Y-30530000D03*
X233510000Y-30530000D03*
X236050000Y-30530000D03*
X238590000Y-30530000D03*
X241130000Y-30530000D03*
X243670000Y-30530000D03*
X246210000Y-30530000D03*
%TD*%
D23*
%TO.C,D7*%
X233480000Y-43280000D03*
D24*
X233480000Y-35660000D03*
%TD*%
D15*
%TO.C,TH2*%
X78445000Y-81330000D03*
D16*
X78445000Y-83870000D03*
%TD*%
D10*
%TO.C,R24*%
X170535000Y-68680000D03*
D11*
X162915000Y-68680000D03*
%TD*%
D10*
%TO.C,R5*%
X96345000Y-58540000D03*
D11*
X88725000Y-58540000D03*
%TD*%
D12*
%TO.C,U6*%
X203375000Y-65890000D03*
D11*
X203375000Y-68430000D03*
X203375000Y-70970000D03*
X203375000Y-73510000D03*
X210995000Y-73510000D03*
X210995000Y-70970000D03*
X210995000Y-68430000D03*
X210995000Y-65890000D03*
%TD*%
D25*
%TO.C,RV3*%
X185245000Y-96640000D03*
X182705000Y-96640000D03*
X180165000Y-96640000D03*
%TD*%
D10*
%TO.C,R35*%
X218240000Y-35660000D03*
D11*
X218240000Y-43280000D03*
%TD*%
D10*
%TO.C,R12*%
X142065000Y-43300000D03*
D11*
X149685000Y-43300000D03*
%TD*%
D10*
%TO.C,R4*%
X129365000Y-28060000D03*
D11*
X136985000Y-28060000D03*
%TD*%
D23*
%TO.C,D8*%
X228400000Y-43280000D03*
D24*
X228400000Y-35660000D03*
%TD*%
D23*
%TO.C,D4*%
X201755000Y-90290000D03*
D24*
X194135000Y-90290000D03*
%TD*%
D10*
%TO.C,R2*%
X109045000Y-33140000D03*
D11*
X109045000Y-40760000D03*
%TD*%
D10*
%TO.C,R31*%
X238585000Y-91540000D03*
D11*
X238585000Y-83920000D03*
%TD*%
D12*
%TO.C,U3*%
X98885000Y-56000000D03*
D11*
X98885000Y-58540000D03*
X98885000Y-61080000D03*
X98885000Y-63620000D03*
X98885000Y-66160000D03*
X98885000Y-68700000D03*
X98885000Y-71240000D03*
X98885000Y-73780000D03*
X106505000Y-73780000D03*
X106505000Y-71240000D03*
X106505000Y-68700000D03*
X106505000Y-66160000D03*
X106505000Y-63620000D03*
X106505000Y-61080000D03*
X106505000Y-58540000D03*
X106505000Y-56000000D03*
%TD*%
D10*
%TO.C,R23*%
X243430000Y-73510000D03*
D11*
X243430000Y-81130000D03*
%TD*%
D12*
%TO.C,U4*%
X183295000Y-76200000D03*
D11*
X183295000Y-73660000D03*
X175675000Y-73660000D03*
X175675000Y-76200000D03*
%TD*%
D10*
%TO.C,R22*%
X213185000Y-91540000D03*
D11*
X213185000Y-81380000D03*
%TD*%
D10*
%TO.C,R11*%
X91275000Y-83940000D03*
D11*
X83655000Y-83940000D03*
%TD*%
D10*
%TO.C,R20*%
X83645000Y-35680000D03*
D11*
X91265000Y-35680000D03*
%TD*%
D15*
%TO.C,TH3*%
X78445000Y-71240000D03*
D16*
X78445000Y-73780000D03*
%TD*%
D15*
%TO.C,J2*%
X78590000Y-35680000D03*
D16*
X78590000Y-38220000D03*
X78590000Y-40760000D03*
X78590000Y-43300000D03*
X78590000Y-45840000D03*
%TD*%
D21*
%TO.C,U1*%
X142065000Y-96130000D03*
D22*
X139525000Y-96130000D03*
X136985000Y-96130000D03*
%TD*%
D19*
%TO.C,C13*%
X214075000Y-65890000D03*
D20*
X216075000Y-65890000D03*
%TD*%
D30*
%TO.C,J4*%
X116409966Y-96840000D03*
D27*
X113869966Y-96840000D03*
%TD*%
D10*
%TO.C,R19*%
X102695000Y-48380000D03*
D11*
X95075000Y-48380000D03*
%TD*%
D25*
%TO.C,RV4*%
X144790000Y-71240000D03*
X144790000Y-68700000D03*
X144790000Y-66160000D03*
%TD*%
D10*
%TO.C,C8*%
X109045000Y-58540000D03*
X114045000Y-58540000D03*
%TD*%
%TO.C,R34*%
X243640000Y-35660000D03*
D11*
X243640000Y-43280000D03*
%TD*%
D12*
%TO.C,C11*%
X208105000Y-38220000D03*
D10*
X208105000Y-35720000D03*
%TD*%
D15*
%TO.C,J3*%
X150985000Y-96615000D03*
D16*
X153525000Y-96615000D03*
X156065000Y-96615000D03*
X158605000Y-96615000D03*
X161145000Y-96615000D03*
X163685000Y-96615000D03*
X166225000Y-96615000D03*
X168765000Y-96615000D03*
X171305000Y-96615000D03*
X173845000Y-96615000D03*
%TD*%
D21*
%TO.C,Q2*%
X129365000Y-96130000D03*
D22*
X126825000Y-96130000D03*
X124285000Y-96130000D03*
%TD*%
D25*
%TO.C,RV1*%
X81105000Y-58540000D03*
X81105000Y-61080000D03*
X81105000Y-63620000D03*
%TD*%
D10*
%TO.C,R3*%
X116665000Y-28060000D03*
D11*
X124285000Y-28060000D03*
%TD*%
D25*
%TO.C,RV6*%
X215700000Y-96620000D03*
X213160000Y-96620000D03*
X210620000Y-96620000D03*
%TD*%
D10*
%TO.C,R16*%
X102695000Y-43300000D03*
D11*
X95075000Y-43300000D03*
%TD*%
D23*
%TO.C,D5*%
X236020000Y-54145000D03*
D24*
X236020000Y-46525000D03*
%TD*%
D10*
%TO.C,R27*%
X225860000Y-54245000D03*
D11*
X225860000Y-46625000D03*
%TD*%
D12*
%TO.C,U2*%
X126825000Y-33140000D03*
D11*
X126825000Y-35680000D03*
X126825000Y-38220000D03*
X126825000Y-40760000D03*
X134445000Y-40760000D03*
X134445000Y-38220000D03*
X134445000Y-35680000D03*
X134445000Y-33140000D03*
%TD*%
D19*
%TO.C,C10*%
X157305000Y-51002554D03*
D20*
X157305000Y-49002554D03*
%TD*%
D15*
%TO.C,J5*%
X216926965Y-28152500D03*
D16*
X214386965Y-28152500D03*
%TD*%
D10*
%TO.C,R7*%
X83645000Y-45840000D03*
D11*
X91265000Y-45840000D03*
%TD*%
D10*
%TO.C,R9*%
X91275000Y-89020000D03*
D11*
X83655000Y-89020000D03*
%TD*%
D21*
%TO.C,Q4*%
X228400000Y-96130000D03*
D22*
X225860000Y-96130000D03*
X223320000Y-96130000D03*
%TD*%
D10*
%TO.C,R29*%
X245090000Y-46625000D03*
D11*
X245090000Y-54245000D03*
%TD*%
D10*
%TO.C,R30*%
X218280000Y-46625000D03*
D11*
X218280000Y-54245000D03*
%TD*%
D12*
%TO.C,C1*%
X105842500Y-99060000D03*
D10*
X105842500Y-96560000D03*
%TD*%
D23*
%TO.C,D3*%
X203025000Y-55980000D03*
D24*
X195405000Y-55980000D03*
%TD*%
D23*
%TO.C,D6*%
X230940000Y-54145000D03*
D24*
X230940000Y-46525000D03*
%TD*%
D10*
%TO.C,R18*%
X129485000Y-85260000D03*
D11*
X129485000Y-77640000D03*
%TD*%
D23*
%TO.C,D2*%
X203025000Y-40740000D03*
D24*
X195405000Y-40740000D03*
%TD*%
M02*
